SplineFontDB: 3.0
FontName: tajmahal-1.01
FullName: tajmahal-1.01
FamilyName: tajmahal-1.01
Weight: Book
Copyright: tajmahal Font Copyright (c) 2017 SIL OFL by Mohammed Asif Ali Rizvan, <fast.rizwaan@gmail.com>.
Version: 1.001 2017
ItalicAngle: 0
UnderlinePosition: -203
UnderlineWidth: 20
Ascent: 1638
Descent: 410
InvalidEm: 0
sfntRevision: 0x00010042
LayerCount: 2
Layer: 0 1 "Back" 1
Layer: 1 1 "Fore" 0
XUID: [1021 13 525464108 3406470]
StyleMap: 0x0040
FSType: 0
OS2Version: 3
OS2_WeightWidthSlopeOnly: 0
OS2_UseTypoMetrics: 0
CreationTime: 1338147379
ModificationTime: 1505262422
PfmFamily: 17
TTFWeight: 400
TTFWidth: 5
LineGap: 0
VLineGap: 0
Panose: 2 0 4 0 0 0 0 0 0 0
OS2TypoAscent: 2150
OS2TypoAOffset: 0
OS2TypoDescent: -1043
OS2TypoDOffset: 0
OS2TypoLinegap: 0
OS2WinAscent: 2344
OS2WinAOffset: 0
OS2WinDescent: 1048
OS2WinDOffset: 0
HheadAscent: 2150
HheadAOffset: 0
HheadDescent: -1043
HheadDOffset: 0
OS2SubXSize: 1434
OS2SubYSize: 1331
OS2SubXOff: 0
OS2SubYOff: 293
OS2SupXSize: 1434
OS2SupYSize: 1331
OS2SupXOff: 0
OS2SupYOff: 928
OS2StrikeYSize: 102
OS2StrikeYPos: 530
OS2Vendor: 'FONT'
OS2CodePages: 00000001.00000000
OS2UnicodeRanges: 00008003.00000000.00000000.00000000
Lookup: 4 0 0 "'nukt' Nukta Forms in Devanagari lookup 0" { "'nukt' Nukta Forms in Devanagari lookup 0 subtable"  } ['nukt' ('deva' <'dflt' > ) ]
Lookup: 4 0 0 "'akhn' Akhand in Devanagari lookup 1" { "'akhn' Akhand in Devanagari lookup 1 subtable"  } ['akhn' ('deva' <'dflt' > ) ]
Lookup: 4 0 0 "'rphf' Reph Form in Devanagari lookup 2" { "'rphf' Reph Form in Devanagari lookup 2 subtable"  } ['rphf' ('deva' <'dflt' > ) ]
Lookup: 4 0 0 "'half' Half Forms in Devanagari lookup 3" { "'half' Half Forms in Devanagari lookup 3 subtable"  } ['half' ('deva' <'dflt' > ) ]
Lookup: 4 0 0 "'vatu' Vattu Variants in Devanagari lookup 4" { "'vatu' Vattu Variants in Devanagari lookup 4 subtable"  } ['vatu' ('deva' <'dflt' > ) ]

StartChar: .notdef
Encoding: 256 -1 0
Width: 1024
GlyphClass: 2
Flags: W
LayerCount: 2
Fore
SplineSet
128 0 m 1,0,-1
 128 2150 l 1,1,-1
 896 2150 l 1,2,-1
 896 0 l 1,3,-1
 128 0 l 1,0,-1
256 128 m 1,4,-1
 768 128 l 1,5,-1
 768 2022 l 1,6,-1
 256 2022 l 1,7,-1
 256 128 l 1,4,-1
EndSplineSet
EndChar

StartChar: exclam
Encoding: 260 33 4
Width: 1107
GlyphClass: 2
Flags: W
LayerCount: 2
Fore
SplineSet
903 1725 m 1,0,-1
 585 470 l 1,1,-1
 371 470 l 1,2,-1
 692 1725 l 1,3,-1
 903 1725 l 1,0,-1
591 271 m 1,4,-1
 511 3 l 1,5,-1
 205 3 l 1,6,-1
 286 271 l 1,7,-1
 591 271 l 1,4,-1
EndSplineSet
EndChar

StartChar: quotedbl
Encoding: 261 34 5
Width: 973
GlyphClass: 2
Flags: W
LayerCount: 2
Fore
SplineSet
806 1600 m 2,0,-1
 725 1128 l 1,1,-1
 676 1128 l 1,2,-1
 594 1600 l 2,3,4
 587 1642 587 1642 621.5 1675 c 128,-1,5
 656 1708 656 1708 702 1708 c 0,6,7
 744 1708 744 1708 775.5 1679.5 c 128,-1,8
 807 1651 807 1651 807 1614 c 0,9,10
 807 1607 807 1607 806 1600 c 2,0,-1
378 1600 m 2,11,-1
 300 1128 l 1,12,-1
 245 1130 l 1,13,-1
 161 1600 l 2,14,15
 153 1639 153 1639 188.5 1673.5 c 128,-1,16
 224 1708 224 1708 271 1708 c 0,17,18
 316 1708 316 1708 350.5 1673.5 c 128,-1,19
 385 1639 385 1639 378 1600 c 2,11,-1
EndSplineSet
EndChar

StartChar: numbersign
Encoding: 262 35 6
Width: 1192
GlyphClass: 2
Flags: W
LayerCount: 2
Fore
SplineSet
1186 1028 m 1,0,-1
 937 1028 l 1,1,-1
 889 722 l 1,2,-1
 1124 722 l 1,3,-1
 1124 582 l 1,4,-1
 869 582 l 1,5,-1
 791 65 l 1,6,-1
 644 65 l 1,7,-1
 718 582 l 1,8,-1
 411 582 l 1,9,-1
 330 65 l 1,10,-1
 179 65 l 1,11,-1
 258 582 l 1,12,-1
 3 582 l 1,13,-1
 3 722 l 1,14,-1
 280 722 l 1,15,-1
 330 1028 l 1,16,-1
 68 1028 l 1,17,-1
 68 1176 l 1,18,-1
 350 1176 l 1,19,-1
 425 1657 l 1,20,-1
 572 1657 l 1,21,-1
 499 1176 l 1,22,-1
 804 1176 l 1,23,-1
 879 1657 l 1,24,-1
 1025 1657 l 1,25,-1
 957 1176 l 1,26,-1
 1186 1176 l 1,27,-1
 1186 1028 l 1,0,-1
784 1028 m 1,28,-1
 481 1028 l 1,29,-1
 431 722 l 1,30,-1
 738 722 l 1,31,-1
 784 1028 l 1,28,-1
EndSplineSet
EndChar

StartChar: dollar
Encoding: 263 36 7
Width: 1192
GlyphClass: 2
Flags: W
LayerCount: 2
Fore
SplineSet
1094 493 m 0,0,1
 1094 302 1094 302 959 186 c 0,2,3
 836 80 836 80 637 62 c 1,4,-1
 637 -141 l 1,5,-1
 542 -141 l 1,6,-1
 542 62 l 1,7,8
 310 67 310 67 101 189 c 1,9,-1
 101 506 l 1,10,-1
 138 503 l 1,11,12
 205 154 205 154 542 144 c 1,13,-1
 542 806 l 1,14,15
 346 918 346 918 263 997 c 0,16,17
 121 1130 121 1130 121 1287 c 0,18,19
 121 1456 121 1456 250 1559 c 0,20,21
 366 1651 366 1651 542 1660 c 1,22,-1
 542 1810 l 1,23,-1
 637 1810 l 1,24,-1
 637 1660 l 1,25,26
 852 1649 852 1649 1016 1529 c 1,27,-1
 1020 1261 l 1,28,-1
 977 1261 l 1,29,30
 953 1398 953 1398 861 1485 c 128,-1,31
 769 1572 769 1572 637 1584 c 1,32,-1
 637 1006 l 1,33,34
 868 882 868 882 945 812 c 0,35,36
 1094 679 1094 679 1094 493 c 0,0,1
539 1058 m 1,37,-1
 539 1584 l 1,38,39
 466 1578 466 1578 393 1514 c 0,40,41
 307 1439 307 1439 307 1343 c 0,42,43
 307 1248 307 1248 384 1175 c 1,44,45
 461 1116 461 1116 539 1058 c 1,37,-1
899 431 m 0,46,47
 899 614 899 614 637 755 c 1,48,-1
 637 144 l 1,49,50
 755 162 755 162 827 238 c 128,-1,51
 899 314 899 314 899 431 c 0,46,47
EndSplineSet
EndChar

StartChar: percent
Encoding: 264 37 8
Width: 1507
GlyphClass: 2
Flags: W
LayerCount: 2
Fore
SplineSet
1505 459 m 0,0,1
 1505 238 1505 238 1399 120 c 0,2,3
 1319 35 1319 35 1224 35 c 0,4,5
 1128 35 1128 35 1070 101 c 0,6,7
 981 196 981 196 980 399 c 0,8,9
 980 609 980 609 1078 720 c 0,10,11
 1158 808 1158 808 1270 809 c 0,12,13
 1505 809 1505 809 1505 459 c 0,0,1
1308 1445 m 1,14,-1
 482 35 l 1,15,-1
 364 35 l 1,16,-1
 1190 1445 l 1,17,-1
 1308 1445 l 1,14,-1
694 1095 m 0,18,19
 694 874 694 874 588 757 c 0,20,21
 508 672 508 672 413 671 c 0,22,23
 318 671 318 671 258 736 c 0,24,25
 169 832 169 832 169 1035 c 0,26,27
 169 1245 169 1245 266 1357 c 0,28,29
 346 1445 346 1445 459 1445 c 0,30,31
 694 1445 694 1445 694 1095 c 0,18,19
1390 321 m 0,32,33
 1390 665 1390 665 1187 665 c 0,34,35
 1095 665 1095 665 1095 507 c 0,36,37
 1095 176 1095 176 1294 178 c 0,38,39
 1390 178 1390 178 1390 321 c 0,32,33
580 958 m 0,40,41
 580 1302 580 1302 375 1302 c 0,42,43
 283 1302 283 1302 284 1144 c 0,44,45
 284 813 284 813 482 815 c 0,46,47
 580 815 580 815 580 958 c 0,40,41
EndSplineSet
EndChar

StartChar: ampersand
Encoding: 265 38 9
Width: 1855
GlyphClass: 2
Flags: W
LayerCount: 2
Fore
SplineSet
1796 310 m 1,0,1
 1704 160 1704 160 1634 101 c 0,2,3
 1550 33 1550 33 1434 33 c 0,4,5
 1232 33 1232 33 1025 245 c 1,6,7
 803 33 803 33 522 33 c 0,8,9
 320 33 320 33 209 131 c 128,-1,10
 98 229 98 229 98 411 c 256,11,12
 98 593 98 593 260 760 c 0,13,14
 378 883 378 883 556 974 c 1,15,16
 481 1174 481 1174 481 1304 c 0,17,18
 481 1467 481 1467 584.5 1577.5 c 128,-1,19
 688 1688 688 1688 849 1688 c 0,20,21
 987 1688 987 1688 1078 1615 c 0,22,23
 1176 1534 1176 1534 1176 1398 c 0,24,25
 1176 1153 1176 1153 810 983 c 1,26,27
 984 672 984 672 1118 499 c 1,28,29
 1330 759 1330 759 1330 924 c 0,30,31
 1330 1031 1330 1031 1179 1038 c 1,32,-1
 1179 1091 l 1,33,-1
 1702 1091 l 1,34,-1
 1702 1038 l 1,35,36
 1597 1025 1597 1025 1541 978 c 0,37,38
 1498 943 1498 943 1444 843 c 0,39,40
 1422 804 1422 804 1186 421 c 1,41,42
 1375 212 1375 212 1539 212 c 0,43,44
 1659 212 1659 212 1754 340 c 1,45,-1
 1796 310 l 1,0,1
1042 1408 m 0,46,47
 1042 1486 1042 1486 988.5 1545 c 128,-1,48
 935 1604 935 1604 856 1604 c 0,49,50
 676 1604 676 1604 676 1382 c 0,51,52
 676 1265 676 1265 768 1075 c 1,53,54
 879 1125 879 1125 953 1206 c 0,55,56
 1042 1302 1042 1302 1042 1408 c 0,46,47
954 317 m 1,57,58
 788 522 788 522 597 879 c 1,59,60
 463 798 463 798 402 718 c 0,61,62
 323 618 323 618 323 481 c 0,63,64
 323 362 323 362 417.5 264 c 128,-1,65
 512 166 512 166 630 166 c 0,66,67
 695 166 695 166 790 211 c 0,68,69
 881 254 881 254 954 317 c 1,57,58
EndSplineSet
EndChar

StartChar: quotesingle
Encoding: 266 39 10
Width: 739
GlyphClass: 2
Flags: W
LayerCount: 2
Fore
SplineSet
401 1438 m 1,0,-1
 529 1883 l 1,1,-1
 395 1883 l 1,2,-1
 211 1438 l 1,3,-1
 401 1438 l 1,0,-1
EndSplineSet
EndChar

StartChar: parenleft
Encoding: 267 40 11
Width: 1168
GlyphClass: 2
Flags: W
LayerCount: 2
Fore
SplineSet
968 1830 m 1,0,1
 950 1830 950 1830 769 1637 c 0,2,3
 535 1385 535 1385 395 1129 c 0,4,5
 196 761 196 761 196 413 c 0,6,7
 196 146 196 146 374 -81 c 1,8,9
 555 -258 555 -258 561 -265 c 1,10,-1
 430 -368 l 1,11,12
 278 -237 278 -237 125 -109 c 1,13,14
 -18 93 -18 93 -18 362 c 0,15,16
 -18 723 -18 723 223 1120 c 0,17,18
 398 1406 398 1406 675 1678 c 0,19,20
 886 1886 886 1886 927 1895 c 1,21,-1
 968 1830 l 1,0,1
EndSplineSet
EndChar

StartChar: parenright
Encoding: 268 41 12
Width: 1180
GlyphClass: 2
Flags: W
LayerCount: 2
Fore
SplineSet
980 1230 m 0,0,1
 980 865 980 865 737 470 c 0,2,3
 562 184 562 184 286 -84 c 0,4,5
 71 -292 71 -292 35 -303 c 1,6,-1
 -6 -234 l 1,7,8
 15 -234 15 -234 193 -44 c 0,9,10
 424 202 424 202 567 464 c 0,11,12
 766 828 766 828 766 1173 c 0,13,14
 766 1447 766 1447 588 1675 c 1,15,16
 496 1765 496 1765 401 1859 c 1,17,-1
 529 1961 l 1,18,19
 681 1830 681 1830 838 1699 c 1,20,21
 980 1497 980 1497 980 1230 c 0,0,1
EndSplineSet
EndChar

StartChar: asterisk
Encoding: 269 42 13
Width: 1272
GlyphClass: 2
Flags: W
LayerCount: 2
Fore
SplineSet
1273 1288 m 1,0,-1
 1144 1179 l 1,1,-1
 872 1368 l 1,2,-1
 911 969 l 1,3,-1
 742 1021 l 1,4,-1
 785 1365 l 1,5,-1
 462 1130 l 1,6,-1
 427 1296 l 1,7,-1
 739 1434 l 1,8,-1
 353 1576 l 1,9,-1
 496 1700 l 1,10,-1
 774 1497 l 1,11,-1
 722 1904 l 1,12,-1
 897 1830 l 1,13,-1
 860 1502 l 1,14,-1
 1182 1751 l 1,15,-1
 1207 1576 l 1,16,-1
 897 1442 l 1,17,-1
 1273 1288 l 1,0,-1
EndSplineSet
EndChar

StartChar: plus
Encoding: 270 43 14
Width: 1272
GlyphClass: 2
Flags: W
LayerCount: 2
Fore
SplineSet
1103 689 m 1,0,-1
 689 689 l 1,1,-1
 689 263 l 1,2,-1
 585 263 l 1,3,-1
 585 689 l 1,4,-1
 169 689 l 1,5,-1
 169 791 l 1,6,-1
 585 791 l 1,7,-1
 585 1215 l 1,8,-1
 689 1215 l 1,9,-1
 689 791 l 1,10,-1
 1103 791 l 1,11,-1
 1103 689 l 1,0,-1
EndSplineSet
EndChar

StartChar: comma
Encoding: 271 44 15
Width: 613
GlyphClass: 2
Flags: W
LayerCount: 2
Fore
SplineSet
514 252 m 1,0,-1
 448 9 l 2,1,2
 433 -38 433 -38 402 -108 c 128,-1,3
 371 -178 371 -178 345 -220 c 0,4,5
 298 -304 298 -304 199 -386 c 0,6,7
 169 -410 169 -410 106 -451 c 1,8,-1
 47 -386 l 1,9,10
 91 -365 91 -365 140 -327 c 0,11,12
 223 -265 223 -265 264.5 -201 c 128,-1,13
 306 -137 306 -137 327 -62 c 0,14,15
 333 -38 333 -38 342 3 c 1,16,-1
 166 3 l 1,17,-1
 223 252 l 1,18,-1
 514 252 l 1,0,-1
EndSplineSet
EndChar

StartChar: hyphen
Encoding: 272 45 16
Width: 1272
GlyphClass: 2
Flags: W
LayerCount: 2
Fore
SplineSet
1113 689 m 1,0,-1
 178 689 l 1,1,-1
 178 791 l 1,2,-1
 1113 791 l 1,3,-1
 1113 689 l 1,0,-1
EndSplineSet
EndChar

StartChar: period
Encoding: 273 46 17
Width: 635
GlyphClass: 2
Flags: W
LayerCount: 2
Fore
SplineSet
473 167 m 1,0,-1
 304 0 l 1,1,-1
 134 167 l 1,2,-1
 304 333 l 1,3,-1
 473 167 l 1,0,-1
EndSplineSet
EndChar

StartChar: slash
Encoding: 274 47 18
Width: 744
GlyphClass: 2
Flags: W
LayerCount: 2
Fore
SplineSet
722 1480 m 1,0,-1
 153 0 l 1,1,-1
 52 41 l 1,2,-1
 622 1519 l 1,3,-1
 722 1480 l 1,0,-1
EndSplineSet
EndChar

StartChar: zero
Encoding: 275 48 19
Width: 1722
GlyphClass: 2
Flags: W
LayerCount: 2
Fore
SplineSet
1067 1672 m 0,0,1
 1279 1672 1279 1672 1373 1503 c 1,2,3
 1476 1304 1476 1304 1378 906 c 0,4,5
 1277 502 1277 502 1068.5 271.5 c 128,-1,6
 860 41 860 41 605 41 c 0,7,8
 412 41 412 41 316 217 c 1,9,10
 211 419 211 419 297 766 c 0,11,12
 400 1176 400 1176 615 1424 c 128,-1,13
 830 1672 830 1672 1067 1672 c 0,0,1
747 246 m 0,14,15
 881 246 881 246 994.5 372.5 c 128,-1,16
 1108 499 1108 499 1169 743 c 0,17,18
 1257 1097 1257 1097 1182 1298 c 0,19,20
 1121 1467 1121 1467 954 1467 c 0,21,22
 805 1467 805 1467 688.5 1332.5 c 128,-1,23
 572 1198 572 1198 507 936 c 0,24,25
 423 600 423 600 498 413 c 0,26,27
 569 246 569 246 747 246 c 0,14,15
EndSplineSet
EndChar

StartChar: one
Encoding: 276 49 20
Width: 1177
GlyphClass: 2
Flags: W
LayerCount: 2
Fore
SplineSet
234 1404 m 1,0,-1
 846 1696 l 1,1,-1
 943 1604 l 1,2,-1
 560 65 l 1,3,-1
 363 21 l 1,4,-1
 393 140 l 1,5,-1
 432 296 l 1,6,-1
 473 461 l 1,7,-1
 513 620 l 1,8,-1
 548 763 l 1,9,-1
 579 888 l 1,10,-1
 606 993 l 1,11,-1
 628 1084 l 1,12,-1
 647 1158 l 1,13,-1
 662 1221 l 1,14,-1
 675 1271 l 1,15,-1
 685 1310 l 1,16,-1
 693 1345 l 1,17,-1
 713 1435 l 1,18,-1
 731 1509 l 1,19,-1
 255 1289 l 1,20,-1
 234 1404 l 1,0,-1
EndSplineSet
EndChar

StartChar: two
Encoding: 277 50 21
Width: 1477
GlyphClass: 2
Flags: W
LayerCount: 2
Fore
SplineSet
1068 77 m 1,0,-1
 112 65 l 1,1,-1
 165 187 l 1,2,3
 714 626 714 626 914 831 c 0,4,5
 1091 1018 1091 1018 1132 1179 c 0,6,7
 1166 1316 1166 1316 1077 1411 c 0,8,9
 1003 1485 1003 1485 875 1485 c 0,10,11
 720 1485 720 1485 511 1310 c 1,12,-1
 468 1339 l 1,13,-1
 612 1559 l 1,14,15
 663 1597 663 1597 761 1631 c 0,16,17
 893 1672 893 1672 1020 1672 c 0,18,19
 1169 1672 1169 1672 1279 1556 c 1,20,21
 1397 1423 1397 1423 1353 1245 c 0,22,23
 1304 1049 1304 1049 1093 821.5 c 128,-1,24
 882 594 882 594 435 255 c 1,25,-1
 1158 261 l 1,26,-1
 1068 77 l 1,0,-1
EndSplineSet
EndChar

StartChar: three
Encoding: 278 51 22
Width: 1464
GlyphClass: 2
Flags: W
LayerCount: 2
Fore
SplineSet
653 1594 m 1,0,1
 673 1604 673 1604 732 1620.5 c 128,-1,2
 791 1637 791 1637 827 1646 c 0,3,4
 933 1670 933 1670 987 1672 c 0,5,6
 1174 1672 1174 1672 1269 1586 c 128,-1,7
 1364 1500 1364 1500 1319 1322 c 0,8,9
 1300 1245 1300 1245 1230 1156 c 128,-1,10
 1160 1067 1160 1067 1051 983 c 1,11,12
 1185 936 1185 936 1247 833.5 c 128,-1,13
 1309 731 1309 731 1278 606 c 0,14,15
 1229 410 1229 410 979 225.5 c 128,-1,16
 729 41 729 41 480 41 c 0,17,18
 408 41 408 41 290 78 c 128,-1,19
 172 115 172 115 132 169 c 1,20,-1
 278 389 l 1,21,22
 354 312 354 312 459 267 c 1,23,24
 570 226 570 226 663 226 c 0,25,26
 788 226 788 226 925 319.5 c 128,-1,27
 1062 413 1062 413 1089 523 c 0,28,29
 1115 626 1115 626 1043 716 c 0,30,31
 974 796 974 796 830 831 c 1,32,33
 802 816 802 816 721 796 c 1,34,-1
 614 781 l 2,35,36
 593 781 593 781 584 793.5 c 128,-1,37
 575 806 575 806 574 828 c 1,38,39
 580 853 580 853 601 887 c 128,-1,40
 622 921 622 921 679 999 c 1,41,-1
 773 1005 l 1,42,-1
 879 1012 l 1,43,-1
 930 1009 l 1,44,45
 1007 1072 1007 1072 1061.5 1136.5 c 128,-1,46
 1116 1201 1116 1201 1134 1251 c 1,47,48
 1158 1347 1158 1347 1087 1417 c 0,49,50
 1054 1447 1054 1447 1009.5 1466 c 128,-1,51
 965 1485 965 1485 905 1485 c 0,52,53
 816 1485 816 1485 722 1452.5 c 128,-1,54
 628 1420 628 1420 552 1366 c 1,55,-1
 517 1385 l 1,56,-1
 653 1594 l 1,0,1
EndSplineSet
EndChar

StartChar: four
Encoding: 279 52 23
Width: 1543
GlyphClass: 2
Flags: W
LayerCount: 2
Fore
SplineSet
1385 1696 m 1,0,-1
 1117 657 l 1,1,-1
 1337 657 l 1,2,-1
 1250 485 l 1,3,-1
 1074 485 l 1,4,-1
 978 87 l 1,5,-1
 777 21 l 1,6,-1
 890 485 l 1,7,-1
 157 479 l 1,8,-1
 266 731 l 1,9,-1
 1134 1616 l 1,10,-1
 1385 1696 l 1,0,-1
335 657 m 1,11,-1
 927 657 l 1,12,-1
 1134 1464 l 1,13,-1
 335 657 l 1,11,-1
EndSplineSet
EndChar

StartChar: five
Encoding: 280 53 24
Width: 1590
GlyphClass: 2
Flags: W
LayerCount: 2
Fore
SplineSet
1349 1441 m 1,0,-1
 786 1441 l 1,1,-1
 636 1064 l 1,2,3
 1039 1008 1039 1008 1181 891 c 0,4,5
 1307 784 1307 784 1265 616 c 0,6,7
 1216 423 1216 423 971 232 c 128,-1,8
 726 41 726 41 506 41 c 0,9,10
 450 41 450 41 405.5 47 c 128,-1,11
 361 53 361 53 298 74 c 0,12,13
 194 109 194 109 146 158 c 1,14,-1
 272 354 l 1,15,16
 458 226 458 226 623 226 c 0,17,18
 775 226 775 226 910 316.5 c 128,-1,19
 1045 407 1045 407 1074 520 c 0,20,21
 1111 672 1111 672 978 763 c 0,22,23
 901 816 901 816 762 846.5 c 128,-1,24
 623 877 623 877 433 877 c 1,25,-1
 730 1628 l 1,26,-1
 1446 1628 l 1,27,-1
 1349 1441 l 1,0,-1
EndSplineSet
EndChar

StartChar: six
Encoding: 281 54 25
Width: 1563
GlyphClass: 2
Flags: W
LayerCount: 2
Fore
SplineSet
1321 1628 m 1,0,1
 1047 1491 1047 1491 827.5 1284.5 c 128,-1,2
 608 1078 608 1078 513 868 c 1,3,-1
 517 862 l 1,4,5
 592 924 592 924 716 989 c 0,6,7
 866 1064 866 1064 975 1064 c 0,8,9
 1133 1064 1133 1064 1231 931.5 c 128,-1,10
 1329 799 1329 799 1283 616 c 0,11,12
 1230 404 1230 404 1015.5 222.5 c 128,-1,13
 801 41 801 41 589 41 c 0,14,15
 399 41 399 41 287.5 206 c 128,-1,16
 176 371 176 371 237 616 c 0,17,18
 298 862 298 862 551 1173 c 0,19,20
 654 1301 654 1301 762.5 1409.5 c 128,-1,21
 871 1518 871 1518 996 1622 c 1,22,-1
 1325 1693 l 1,23,-1
 1321 1628 l 1,0,1
445 701 m 1,24,25
 390 477 390 477 474 351.5 c 128,-1,26
 558 226 558 226 745 226 c 0,27,28
 885 226 885 226 971 303 c 128,-1,29
 1057 380 1057 380 1090 514 c 0,30,31
 1127 663 1127 663 1043 770 c 128,-1,32
 959 877 959 877 804 877 c 0,33,34
 729 877 729 877 625 827.5 c 128,-1,35
 521 778 521 778 445 701 c 1,24,25
EndSplineSet
EndChar

StartChar: seven
Encoding: 282 55 26
Width: 1773
GlyphClass: 2
Flags: W
LayerCount: 2
Fore
SplineSet
270 21 m 1,0,-1
 225 41 l 1,1,-1
 557 461 l 1,2,-1
 1000 1043 l 1,3,4
 1222 1348 1222 1348 1280 1441 c 1,5,-1
 437 1441 l 1,6,-1
 540 1628 l 1,7,-1
 1549 1628 l 1,8,-1
 1495 1529 l 1,9,-1
 502 93 l 1,10,-1
 270 21 l 1,0,-1
EndSplineSet
EndChar

StartChar: eight
Encoding: 283 56 27
Width: 1593
GlyphClass: 2
Flags: W
LayerCount: 2
Fore
SplineSet
1034 903 m 1,0,1
 1172 834 1172 834 1219 727 c 128,-1,2
 1266 620 1266 620 1235 495 c 0,3,4
 1195 337 1195 337 1004 189 c 128,-1,5
 813 41 813 41 605 41 c 0,6,7
 405 41 405 41 290 163.5 c 128,-1,8
 175 286 175 286 220 470 c 0,9,10
 250 588 250 588 361.5 700 c 128,-1,11
 473 812 473 812 641 871 c 1,12,13
 514 945 514 945 461 1027 c 1,14,15
 405 1123 405 1123 435 1245 c 0,16,17
 474 1400 474 1400 652 1536 c 128,-1,18
 830 1672 830 1672 1005 1672 c 0,19,20
 1207 1672 1207 1672 1312 1562.5 c 128,-1,21
 1417 1453 1417 1453 1370 1263 c 0,22,23
 1343 1157 1343 1157 1262 1062.5 c 128,-1,24
 1181 968 1181 968 1034 903 c 1,0,1
1189 1208 m 0,25,26
 1222 1342 1222 1342 1128 1438 c 0,27,28
 1080 1485 1080 1485 1028.5 1510 c 128,-1,29
 977 1535 977 1535 915 1535 c 0,30,31
 811 1535 811 1535 729 1476 c 128,-1,32
 647 1417 647 1417 619 1307 c 0,33,34
 601 1233 601 1233 663 1149 c 1,35,36
 743 1053 743 1053 964 933 c 1,37,38
 1055 999 1055 999 1113 1067 c 0,39,40
 1125 1079 1125 1079 1152 1123 c 128,-1,41
 1179 1167 1179 1167 1189 1208 c 0,25,26
1034 439 m 0,42,43
 1059 543 1059 543 997 626 c 0,44,45
 922 730 922 730 716 822 c 1,46,47
 603 784 603 784 524.5 706.5 c 128,-1,48
 446 629 446 629 419 523 c 0,49,50
 390 404 390 404 478.5 291 c 128,-1,51
 567 178 567 178 683 178 c 0,52,53
 832 178 832 178 917.5 246.5 c 128,-1,54
 1003 315 1003 315 1034 439 c 0,42,43
EndSplineSet
EndChar

StartChar: nine
Encoding: 284 57 28
Width: 1713
GlyphClass: 2
Flags: W
LayerCount: 2
Fore
SplineSet
320 81 m 1,0,1
 586 211 586 211 807.5 421.5 c 128,-1,2
 1029 632 1029 632 1128 844 c 1,3,-1
 1124 850 l 1,4,5
 1049 787 1049 787 911.5 717 c 128,-1,6
 774 647 774 647 666 647 c 0,7,8
 511 647 511 647 405 778 c 1,9,10
 311 912 311 912 357 1096 c 0,11,12
 410 1307 410 1307 625.5 1489.5 c 128,-1,13
 841 1672 841 1672 1052 1672 c 0,14,15
 1242 1672 1242 1672 1353.5 1508.5 c 128,-1,16
 1465 1345 1465 1345 1403 1096 c 0,17,18
 1341 850 1341 850 1090 538 c 0,19,20
 887 286 887 286 646 93 c 1,21,-1
 317 21 l 1,22,-1
 320 81 l 1,0,1
1196 1012 m 1,23,24
 1252 1236 1252 1236 1167.5 1360.5 c 128,-1,25
 1083 1485 1083 1485 896 1485 c 0,26,27
 756 1485 756 1485 670 1408 c 128,-1,28
 584 1331 584 1331 551 1198 c 0,29,30
 514 1049 514 1049 597.5 941.5 c 128,-1,31
 681 834 681 834 837 834 c 0,32,33
 909 834 909 834 1012.5 881.5 c 128,-1,34
 1116 929 1116 929 1196 1012 c 1,23,24
EndSplineSet
EndChar

StartChar: colon
Encoding: 285 58 29
Width: 966
GlyphClass: 2
Flags: W
LayerCount: 2
Fore
SplineSet
730 1025 m 0,0,1
 714 964 714 964 662.5 925 c 128,-1,2
 611 886 611 886 551 886 c 256,3,4
 491 886 491 886 460.5 926 c 128,-1,5
 430 966 430 966 445 1025 c 0,6,7
 459 1084 459 1084 509 1125 c 128,-1,8
 559 1166 559 1166 621 1166 c 0,9,10
 680 1166 680 1166 712.5 1126 c 128,-1,11
 745 1086 745 1086 730 1025 c 0,0,1
517 173 m 0,12,13
 502 111 502 111 450 72 c 128,-1,14
 398 33 398 33 338 33 c 256,15,16
 278 33 278 33 248 74.5 c 128,-1,17
 218 116 218 116 232 173 c 0,18,19
 247 232 247 232 297 274.5 c 128,-1,20
 347 317 347 317 409 317 c 0,21,22
 468 317 468 317 500.5 276 c 128,-1,23
 533 235 533 235 517 173 c 0,12,13
EndSplineSet
EndChar

StartChar: semicolon
Encoding: 286 59 30
Width: 846
GlyphClass: 2
Flags: W
LayerCount: 2
Fore
SplineSet
669 1012 m 1,0,-1
 591 751 l 1,1,-1
 318 751 l 1,2,-1
 395 1012 l 1,3,-1
 669 1012 l 1,0,-1
514 252 m 1,4,-1
 448 9 l 2,5,6
 433 -38 433 -38 402 -108 c 128,-1,7
 371 -178 371 -178 345 -220 c 0,8,9
 298 -304 298 -304 199 -386 c 0,10,11
 169 -410 169 -410 106 -451 c 1,12,-1
 47 -386 l 1,13,14
 91 -365 91 -365 140 -327 c 0,15,16
 223 -265 223 -265 264.5 -201 c 128,-1,17
 306 -137 306 -137 327 -62 c 0,18,19
 333 -38 333 -38 342 3 c 1,20,-1
 166 3 l 1,21,-1
 223 252 l 1,22,-1
 514 252 l 1,4,-1
EndSplineSet
EndChar

StartChar: less
Encoding: 287 60 31
Width: 900
GlyphClass: 2
Flags: W
LayerCount: 2
Fore
SplineSet
708 35 m 1,0,-1
 -3 577 l 1,1,-1
 -3 799 l 1,2,-1
 697 1327 l 1,3,-1
 697 1103 l 1,4,-1
 155 679 l 1,5,-1
 708 246 l 1,6,-1
 708 35 l 1,0,-1
EndSplineSet
EndChar

StartChar: equal
Encoding: 288 61 32
Width: 1272
GlyphClass: 2
Flags: W
LayerCount: 2
Fore
SplineSet
1113 843 m 1,0,-1
 178 843 l 1,1,-1
 178 946 l 1,2,-1
 1113 946 l 1,3,-1
 1113 843 l 1,0,-1
1113 533 m 1,4,-1
 178 533 l 1,5,-1
 178 637 l 1,6,-1
 1113 637 l 1,7,-1
 1113 533 l 1,4,-1
EndSplineSet
EndChar

StartChar: greater
Encoding: 289 62 33
Width: 900
GlyphClass: 2
Flags: W
LayerCount: 2
Fore
SplineSet
900 542 m 1,0,-1
 189 0 l 1,1,-1
 189 213 l 1,2,-1
 742 645 l 1,3,-1
 189 1070 l 1,4,-1
 189 1294 l 1,5,-1
 900 766 l 1,6,-1
 900 542 l 1,0,-1
EndSplineSet
EndChar

StartChar: question
Encoding: 290 63 34
Width: 1457
GlyphClass: 2
Flags: W
LayerCount: 2
Fore
SplineSet
1251 1366 m 0,0,1
 1227 1248 1227 1248 1146 1176 c 0,2,3
 1140 1170 1140 1170 787 983 c 0,4,5
 675 924 675 924 630 849.5 c 128,-1,6
 585 775 585 775 585 695 c 0,7,8
 585 638 585 638 606 576 c 0,9,10
 616 549 616 549 629 523 c 1,11,-1
 416 523 l 1,12,13
 398 541 398 541 392 553 c 0,14,15
 368 594 368 594 368 641 c 0,16,17
 368 698 368 698 399 761.5 c 128,-1,18
 430 825 430 825 514 900 c 1,19,20
 710 1024 710 1024 909 1152 c 1,21,22
 1040 1274 1040 1274 1040 1438 c 0,23,24
 1040 1550 1040 1550 980 1628 c 0,25,26
 912 1718 912 1718 837.5 1726 c 128,-1,27
 763 1734 763 1734 728 1734 c 0,28,29
 591 1734 591 1734 497.5 1646.5 c 128,-1,30
 404 1559 404 1559 404 1450 c 0,31,32
 404 1338 404 1338 485 1292 c 1,33,34
 572 1265 572 1265 579 1260 c 1,35,36
 561 1245 561 1245 504.5 1229.5 c 128,-1,37
 448 1214 448 1214 401 1224 c 0,38,39
 199 1274 199 1274 199 1423 c 0,40,41
 199 1453 199 1453 208 1491 c 0,42,43
 243 1637 243 1637 389 1715.5 c 128,-1,44
 535 1794 535 1794 722 1794 c 0,45,46
 939 1794 939 1794 1090 1702 c 0,47,48
 1259 1599 1259 1599 1257 1435 c 0,49,50
 1257 1391 1257 1391 1251 1366 c 0,0,1
623 264 m 1,51,-1
 535 3 l 1,52,-1
 249 3 l 1,53,-1
 342 264 l 1,54,-1
 623 264 l 1,51,-1
EndSplineSet
EndChar

StartChar: at
Encoding: 291 64 35
Width: 2373
GlyphClass: 2
Flags: W
LayerCount: 2
Fore
SplineSet
2123 705 m 0,0,1
 2058 549 2058 549 1843 327 c 0,2,3
 1687 166 1687 166 1500 166 c 0,4,5
 1471 166 1471 166 1440 169 c 0,6,7
 1389 176 1389 176 1383 177 c 0,8,9
 1354 187 1354 187 1316 222 c 0,10,11
 1275 262 1275 262 1260 350 c 1,12,13
 1207 299 1207 299 1167 271 c 0,14,15
 1087 214 1087 214 1007 189 c 0,16,17
 922 163 922 163 870 163 c 0,18,19
 831 163 831 163 791 173 c 0,20,21
 698 197 698 197 668 295 c 0,22,23
 639 383 639 383 670 504 c 0,24,25
 678 538 678 538 692 572 c 0,26,27
 780 804 780 804 951 975 c 0,28,29
 1110 1133 1110 1133 1286 1186 c 0,30,31
 1342 1203 1342 1203 1400 1203 c 0,32,33
 1464 1203 1464 1203 1497 1182 c 1,34,35
 1554 1159 1554 1159 1591 1058 c 1,36,-1
 1646 1166 l 1,37,-1
 1855 1169 l 1,38,-1
 1471 415 l 2,39,40
 1451 375 1451 375 1448 362 c 0,41,42
 1438 320 1438 320 1473 300 c 0,43,44
 1511 278 1511 278 1557 278 c 0,45,46
 1641 278 1641 278 1726 343 c 0,47,48
 1890 470 1890 470 2002 676 c 0,49,50
 2067 799 2067 799 2090 892 c 0,51,52
 2113 984 2113 984 2105 1068 c 0,53,54
 2087 1256 2087 1256 1980 1396 c 0,55,56
 1864 1547 1864 1547 1684 1581 c 0,57,58
 1573 1603 1573 1603 1408 1571 c 0,59,60
 1082 1509 1082 1509 820 1297 c 0,61,62
 575 1097 575 1097 470 836 c 0,63,64
 398 659 398 659 382 594 c 0,65,66
 349 461 349 461 360 304 c 0,67,68
 377 60 377 60 540.5 -71 c 128,-1,69
 704 -202 704 -202 992 -202 c 0,70,71
 1174 -202 1174 -202 1322 -160 c 0,72,73
 1418 -132 1418 -132 1609 -46 c 1,74,-1
 1633 -144 l 1,75,-1
 1313 -262 l 1,76,-1
 1060 -304 l 1,77,-1
 888 -304 l 2,78,79
 648 -304 648 -304 438 -148 c 0,80,81
 223 12 223 12 161 252 c 0,82,83
 109 451 109 451 166 679 c 0,84,85
 188 767 188 767 225 839 c 0,86,87
 275 935 275 935 392 1078 c 0,88,89
 544 1264 544 1264 694 1368 c 0,90,91
 1025 1599 1025 1599 1349 1665 c 0,92,93
 1550 1707 1550 1707 1705 1675 c 0,94,95
 1806 1656 1806 1656 1870 1629 c 0,96,97
 1999 1575 1999 1575 2074 1480 c 0,98,99
 2202 1317 2202 1317 2213 1108 c 0,100,101
 2217 1030 2217 1030 2182 891 c 0,102,103
 2156 788 2156 788 2123 705 c 0,0,1
1496 905 m 0,104,105
 1523 1040 1523 1040 1444 1088 c 0,106,107
 1431 1094 1431 1094 1413 1094 c 0,108,109
 1307 1094 1307 1094 1148 943 c 0,110,111
 970 769 970 769 916 552 c 2,112,-1
 885 428 l 2,113,114
 847 276 847 276 972 276 c 0,115,116
 1030 276 1030 276 1114 327 c 0,117,118
 1193 374 1193 374 1235 428 c 1,119,120
 1286 485 1286 485 1370 624 c 0,121,122
 1475 798 1475 798 1496 905 c 0,104,105
EndSplineSet
EndChar

StartChar: braceleft
Encoding: 292 123 36
Width: 1146
GlyphClass: 2
Flags: W
LayerCount: 2
Fore
SplineSet
778 -307 m 1,0,-1
 774 -327 l 1,1,2
 586 -327 586 -327 516 -254 c 0,3,4
 441 -177 441 -177 441 30 c 2,5,-1
 441 411 l 2,6,7
 441 538 441 538 408 588 c 0,8,9
 370 649 370 649 249 683 c 1,10,11
 364 719 364 719 406 785 c 0,12,13
 441 840 441 840 441 954 c 2,14,-1
 441 1372 l 2,15,16
 441 1563 441 1563 527 1638 c 0,17,18
 601 1703 601 1703 774 1705 c 1,19,-1
 778 1685 l 1,20,21
 689 1656 689 1656 652 1584 c 0,22,23
 620 1521 620 1521 620 1405 c 2,24,-1
 620 990 l 2,25,26
 620 857 620 857 588 795 c 0,27,28
 549 720 549 720 438 686 c 1,29,30
 557 645 557 645 594 559 c 0,31,32
 620 499 620 499 620 360 c 2,33,-1
 620 -33 l 2,34,35
 620 -260 620 -260 778 -307 c 1,0,-1
EndSplineSet
EndChar

StartChar: bar
Encoding: 293 124 37
Width: 477
GlyphClass: 2
Flags: W
LayerCount: 2
Fore
SplineSet
320 65 m 1,0,-1
 161 65 l 1,1,-1
 161 1705 l 1,2,-1
 320 1705 l 1,3,-1
 320 65 l 1,0,-1
EndSplineSet
EndChar

StartChar: braceright
Encoding: 294 125 38
Width: 1146
GlyphClass: 2
Flags: W
LayerCount: 2
Fore
SplineSet
895 683 m 1,0,1
 774 649 774 649 737 587 c 0,2,3
 705 537 705 537 705 411 c 2,4,-1
 705 30 l 2,5,6
 705 -177 705 -177 631 -254 c 0,7,8
 560 -327 560 -327 373 -327 c 1,9,-1
 370 -307 l 1,10,11
 526 -260 526 -260 526 -33 c 2,12,-1
 526 360 l 2,13,14
 526 499 526 499 553 560 c 0,15,16
 592 645 592 645 712 686 c 1,17,18
 598 720 598 720 559 795 c 0,19,20
 526 857 526 857 526 990 c 2,21,-1
 526 1405 l 2,22,23
 526 1521 526 1521 494 1584 c 0,24,25
 458 1656 458 1656 370 1685 c 1,26,-1
 373 1705 l 1,27,28
 546 1703 546 1703 619 1638 c 0,29,30
 705 1563 705 1563 705 1372 c 2,31,-1
 705 954 l 2,32,33
 705 840 705 840 740 785 c 0,34,35
 781 719 781 719 895 683 c 1,0,1
EndSplineSet
EndChar

StartChar: asciitilde
Encoding: 295 126 39
Width: 1293
GlyphClass: 2
Flags: W
LayerCount: 2
Fore
SplineSet
1247 806 m 1,0,1
 1100 539 1100 539 912 539 c 0,2,3
 818 539 818 539 640 622 c 128,-1,4
 462 705 462 705 378 705 c 0,5,6
 296 705 296 705 230 635 c 0,7,8
 190 593 190 593 128 483 c 1,9,-1
 40 591 l 1,10,11
 113 717 113 717 175 777 c 0,12,13
 268 866 268 866 382 866 c 0,14,15
 471 866 471 866 663 782 c 128,-1,16
 855 698 855 698 912 698 c 0,17,18
 1054 698 1054 698 1166 912 c 1,19,-1
 1247 806 l 1,0,1
EndSplineSet
EndChar

StartChar: currency
Encoding: 296 164 40
Width: 1754
GlyphClass: 2
Flags: W
LayerCount: 2
Fore
SplineSet
1588 141 m 1,0,-1
 1476 35 l 1,1,-1
 1277 235 l 1,2,3
 1093 99 1093 99 906 99 c 0,4,5
 803 99 803 99 694 132 c 0,6,7
 569 169 569 169 498 233 c 1,8,-1
 296 35 l 1,9,-1
 188 141 l 1,10,-1
 388 343 l 1,11,12
 255 506 255 506 255 732 c 0,13,14
 255 946 255 946 389 1121 c 1,15,-1
 188 1318 l 1,16,-1
 296 1427 l 1,17,-1
 499 1230 l 1,18,19
 668 1363 668 1363 892 1363 c 0,20,21
 1111 1363 1111 1363 1278 1230 c 1,22,-1
 1477 1427 l 1,23,-1
 1588 1318 l 1,24,-1
 1387 1121 l 1,25,26
 1522 940 1522 940 1522 735 c 0,27,28
 1522 524 1522 524 1386 344 c 1,29,-1
 1588 141 l 1,0,-1
1368 731 m 256,30,31
 1368 928 1368 928 1226.5 1068 c 128,-1,32
 1085 1208 1085 1208 889 1208 c 0,33,34
 689 1208 689 1208 549.5 1068.5 c 128,-1,35
 410 929 410 929 410 728 c 0,36,37
 410 531 410 531 550.5 392 c 128,-1,38
 691 253 691 253 888 253 c 256,39,40
 1085 253 1085 253 1226.5 393.5 c 128,-1,41
 1368 534 1368 534 1368 731 c 256,30,31
EndSplineSet
EndChar

StartChar: section
Encoding: 297 167 41
Width: 1592
GlyphClass: 2
Flags: W
LayerCount: 2
Fore
SplineSet
1274 409 m 0,0,1
 1274 146 1274 146 1006 -25 c 1,2,3
 1151 -188 1151 -188 1151 -390 c 0,4,5
 1151 -543 1151 -543 1067 -641 c 0,6,7
 967 -758 967 -758 769 -758 c 0,8,9
 617 -758 617 -758 515.5 -660.5 c 128,-1,10
 414 -563 414 -563 414 -416 c 1,11,-1
 572 -414 l 1,12,13
 572 -490 572 -490 635 -556.5 c 128,-1,14
 698 -623 698 -623 767 -623 c 0,15,16
 875 -623 875 -623 941 -547 c 0,17,18
 1000 -479 1000 -479 1000 -390 c 0,19,20
 1000 -218 1000 -218 828 -81 c 1,21,22
 668 36 668 36 507 154 c 1,23,24
 335 314 335 314 335 544 c 0,25,26
 335 726 335 726 611 992 c 1,27,28
 520 1092 520 1092 485 1163 c 0,29,30
 438 1255 438 1255 438 1375 c 0,31,32
 438 1528 438 1528 546 1639 c 0,33,34
 669 1765 669 1765 873 1765 c 0,35,36
 1007 1765 1007 1765 1103 1681 c 0,37,38
 1207 1591 1207 1591 1207 1446 c 0,39,40
 1207 1385 1207 1385 1187 1319 c 1,41,-1
 1042 1316 l 1,42,43
 1060 1375 1060 1375 1060 1427 c 0,44,45
 1060 1620 1060 1620 837 1620 c 0,46,47
 740 1620 740 1620 664 1548 c 0,48,49
 581 1469 581 1469 581 1349 c 0,50,51
 581 1210 581 1210 761 1049 c 1,52,53
 927 908 927 908 1094 766 c 1,54,55
 1274 589 1274 589 1274 409 c 0,0,1
1125 418 m 0,56,57
 1125 584 1125 584 720 896 c 1,58,59
 628 836 628 836 551 710 c 0,60,61
 475 588 475 588 475 508 c 0,62,63
 475 365 475 365 623 238 c 0,64,65
 664 203 664 203 873 71 c 1,66,67
 1125 176 1125 176 1125 418 c 0,56,57
EndSplineSet
EndChar

StartChar: uni00AD
Encoding: 298 173 42
Width: 919
GlyphClass: 2
Flags: W
LayerCount: 2
Fore
SplineSet
772 413 m 1,0,-1
 148 413 l 1,1,-1
 148 523 l 1,2,-1
 772 523 l 1,3,-1
 772 413 l 1,0,-1
EndSplineSet
EndChar

StartChar: degree
Encoding: 299 176 43
Width: 780
GlyphClass: 2
Flags: W
LayerCount: 2
Fore
SplineSet
709 1061 m 0,0,1
 709 927 709 927 615 833.5 c 128,-1,2
 521 740 521 740 387 740 c 0,3,4
 254 740 254 740 160.5 833.5 c 128,-1,5
 67 927 67 927 67 1061 c 0,6,7
 67 1196 67 1196 160 1289 c 128,-1,8
 253 1382 253 1382 387 1382 c 0,9,10
 522 1382 522 1382 615.5 1289 c 128,-1,11
 709 1196 709 1196 709 1061 c 0,0,1
620 1062 m 0,12,13
 620 1160 620 1160 552.5 1227.5 c 128,-1,14
 485 1295 485 1295 387 1295 c 256,15,16
 289 1295 289 1295 221.5 1227.5 c 128,-1,17
 154 1160 154 1160 154 1062 c 0,18,19
 154 965 154 965 222 897 c 128,-1,20
 290 829 290 829 387 829 c 256,21,22
 484 829 484 829 552 897 c 128,-1,23
 620 965 620 965 620 1062 c 0,12,13
EndSplineSet
EndChar

StartChar: paragraph
Encoding: 300 182 44
Width: 1088
GlyphClass: 2
Flags: W
LayerCount: 2
Fore
SplineSet
1039 1106 m 1,0,-1
 901 1106 l 1,1,-1
 901 -714 l 1,2,-1
 825 -714 l 1,3,-1
 825 1106 l 1,4,-1
 630 1106 l 1,5,-1
 630 -714 l 1,6,-1
 554 -714 l 1,7,-1
 554 375 l 1,8,9
 344 375 344 375 211 463 c 0,10,11
 53 568 53 568 53 772 c 0,12,13
 53 964 53 964 202 1070 c 0,14,15
 332 1163 332 1163 523 1163 c 2,16,-1
 1039 1163 l 1,17,-1
 1039 1106 l 1,0,-1
EndSplineSet
EndChar

StartChar: periodcentered
Encoding: 301 183 45
Width: 601
GlyphClass: 2
Flags: W
LayerCount: 2
Fore
SplineSet
421 1050 m 0,0,1
 421 1002 421 1002 387 968 c 128,-1,2
 353 934 353 934 305 934 c 256,3,4
 257 934 257 934 223 968 c 128,-1,5
 189 1002 189 1002 189 1050 c 256,6,7
 189 1098 189 1098 223 1132 c 128,-1,8
 257 1166 257 1166 305 1166 c 0,9,10
 354 1166 354 1166 387.5 1132.5 c 128,-1,11
 421 1099 421 1099 421 1050 c 0,0,1
EndSplineSet
EndChar

StartChar: multiply
Encoding: 302 215 46
Width: 1243
GlyphClass: 2
Flags: W
LayerCount: 2
Fore
SplineSet
1084 342 m 1,0,-1
 1014 272 l 1,1,-1
 622 664 l 1,2,-1
 230 272 l 1,3,-1
 160 342 l 1,4,-1
 552 734 l 1,5,-1
 160 1126 l 1,6,-1
 230 1198 l 1,7,-1
 622 806 l 1,8,-1
 1014 1198 l 1,9,-1
 1084 1126 l 1,10,-1
 692 734 l 1,11,-1
 1084 342 l 1,0,-1
EndSplineSet
EndChar

StartChar: sign.adho.cb
Encoding: 303 2304 47
Width: 4
GlyphClass: 2
Flags: W
LayerCount: 2
Fore
SplineSet
-755 1690 m 1,0,-1
 -717 1905 l 1,1,-1
 -491 1905 l 1,2,-1
 -524 1690 l 1,3,-1
 -755 1690 l 1,0,-1
-1257 1812 m 0,4,5
 -1260 1824 -1260 1824 -1260 1834.5 c 128,-1,6
 -1260 1845 -1260 1845 -1260 1854 c 0,7,8
 -1260 2060 -1260 2060 -1023 2157 c 0,9,10
 -833 2234 -833 2234 -537 2234 c 0,11,12
 -313 2234 -313 2234 -161 2172 c 0,13,14
 38 2091 38 2091 38 1929 c 0,15,16
 38 1888 38 1888 23 1833 c 0,17,18
 -5 1743 -5 1743 -76 1705 c 0,19,20
 -123 1681 -123 1681 -192 1681 c 0,21,22
 -236 1684 -236 1684 -242 1684 c 1,23,24
 -214 1737 -214 1737 -189 1804 c 128,-1,25
 -164 1871 -164 1871 -164 1920 c 0,26,27
 -164 2020 -164 2020 -242 2079 c 0,28,29
 -337 2151 -337 2151 -553 2151 c 0,30,31
 -868 2151 -868 2151 -994 1985 c 0,32,33
 -1075 1879 -1075 1879 -1076 1733 c 0,34,35
 -1076 1718 -1076 1718 -1076 1708.5 c 128,-1,36
 -1076 1699 -1076 1699 -1073 1690 c 1,37,38
 -1104 1687 -1104 1687 -1135 1687 c 0,39,40
 -1183 1687 -1183 1687 -1217 1713.5 c 128,-1,41
 -1251 1740 -1251 1740 -1257 1812 c 0,4,5
EndSplineSet
EndChar

StartChar: s.candrabindu
Encoding: 304 2305 48
Width: 4
GlyphClass: 4
Flags: W
LayerCount: 2
Fore
SplineSet
-467 2225 m 1,0,-1
 -505 2011 l 1,1,-1
 -731 2011 l 1,2,-1
 -698 2225 l 1,3,-1
 -467 2225 l 1,0,-1
35 2104 m 0,4,5
 38 2091 38 2091 38 2080.5 c 128,-1,6
 38 2070 38 2070 38 2061 c 0,7,8
 38 1856 38 1856 -199 1759 c 0,9,10
 -389 1681 -389 1681 -686 1681 c 0,11,12
 -909 1681 -909 1681 -1061 1743 c 0,13,14
 -1260 1824 -1260 1824 -1260 1987 c 0,15,16
 -1260 2028 -1260 2028 -1245 2082 c 0,17,18
 -1218 2172 -1218 2172 -1146 2210 c 0,19,20
 -1099 2234 -1099 2234 -1031 2234 c 0,21,22
 -986 2231 -986 2231 -980 2231 c 1,23,24
 -1008 2178 -1008 2178 -1033 2111 c 128,-1,25
 -1058 2044 -1058 2044 -1058 1996 c 0,26,27
 -1058 1895 -1058 1895 -980 1836 c 0,28,29
 -885 1765 -885 1765 -669 1765 c 0,30,31
 -354 1765 -354 1765 -228 1930 c 0,32,33
 -147 2037 -147 2037 -146 2183 c 0,34,35
 -146 2198 -146 2198 -146 2207 c 128,-1,36
 -146 2216 -146 2216 -149 2225 c 1,37,38
 -119 2228 -119 2228 -87 2228 c 0,39,40
 -40 2228 -40 2228 -5.5 2201.5 c 128,-1,41
 29 2175 29 2175 35 2104 c 0,4,5
EndSplineSet
Ligature2: "'psts' Post Base Substitutions in Devanagari lookup 10 subtable" vs.chandrae s.anusvara
EndChar

StartChar: s.anusvara
Encoding: 305 2306 49
Width: 4
GlyphClass: 4
Flags: W
LayerCount: 2
Fore
SplineSet
-134 2035 m 1,0,-1
 -190 1787 l 1,1,-1
 -467 1787 l 1,2,-1
 -404 2035 l 1,3,-1
 -134 2035 l 1,0,-1
EndSplineSet
EndChar

StartChar: s.visarga
Encoding: 306 2307 50
Width: 491
GlyphClass: 2
Flags: W
LayerCount: 2
Fore
SplineSet
672 918 m 1,0,-1
 591 660 l 1,1,-1
 318 660 l 1,2,-1
 404 918 l 1,3,-1
 672 918 l 1,0,-1
505 258 m 1,4,-1
 424 3 l 1,5,-1
 149 3 l 1,6,-1
 234 258 l 1,7,-1
 505 258 l 1,4,-1
EndSplineSet
EndChar

StartChar: l.short.a
Encoding: 307 2308 51
Width: 2251
GlyphClass: 2
Flags: W
LayerCount: 2
Fore
SplineSet
1981 1497 m 1,0,-1
 1758 1497 l 1,1,2
 1776 1544 1776 1544 1792 1606.5 c 128,-1,3
 1808 1669 1808 1669 1808 1702 c 0,4,5
 1808 1774 1808 1774 1776 1812 c 0,6,7
 1735 1859 1735 1859 1645 1859 c 0,8,9
 1378 1859 1378 1859 1265 1958 c 0,10,11
 1188 2026 1188 2026 1188 2145 c 0,12,13
 1188 2186 1188 2186 1192.5 2208.5 c 128,-1,14
 1197 2231 1197 2231 1200 2248 c 1,15,-1
 1419 2248 l 1,16,17
 1422 2242 1422 2242 1416 2216 c 0,18,19
 1394 2139 1394 2139 1393 2101 c 0,20,21
 1393 2014 1393 2014 1443 1967 c 0,22,23
 1508 1905 1508 1905 1671 1905 c 0,24,25
 1861 1905 1861 1905 1942 1821 c 0,26,27
 2001 1759 2001 1759 2001 1643 c 0,28,29
 2001 1590 2001 1590 1992.5 1554 c 128,-1,30
 1984 1518 1984 1518 1981 1497 c 1,0,-1
1227 1198 m 0,31,32
 1227 1043 1227 1043 1143 956 c 0,33,34
 1087 900 1087 900 927 828 c 1,35,36
 1008 801 1008 801 1046 769 c 0,37,38
 1164 676 1164 676 1164 511 c 0,39,40
 1164 305 1164 305 993 181 c 0,41,42
 834 65 834 65 613 65 c 2,43,-1
 564 65 l 2,44,45
 546 68 546 68 535 68 c 0,46,47
 274 99 274 99 166 187 c 0,48,49
 76 258 76 258 74 374 c 1,50,51
 78 395 78 395 78 404 c 0,52,53
 87 476 87 476 150.5 510 c 128,-1,54
 214 544 214 544 306 544 c 1,55,56
 302 538 302 538 291 480.5 c 128,-1,57
 280 423 280 423 280 398 c 0,58,59
 280 277 280 277 364 207 c 128,-1,60
 448 137 448 137 570 137 c 0,61,62
 713 137 713 137 819 231 c 0,63,64
 941 337 941 337 959 532 c 0,65,66
 971 669 971 669 874 734 c 0,67,68
 844 755 844 755 772 775 c 1,69,-1
 404 775 l 1,70,-1
 467 874 l 1,71,-1
 754 874 l 1,72,73
 798 889 798 889 822 903 c 0,74,75
 977 989 977 989 1012 1161 c 0,76,77
 1015 1176 1015 1176 1015 1208 c 0,78,79
 1015 1321 1015 1321 928 1392.5 c 128,-1,80
 841 1464 841 1464 722 1464 c 0,81,82
 591 1464 591 1464 511 1423 c 0,83,84
 404 1369 404 1369 404 1260 c 0,85,86
 404 1219 404 1219 424.5 1194.5 c 128,-1,87
 445 1170 445 1170 489 1152 c 1,88,89
 465 1134 465 1134 448 1126 c 0,90,91
 401 1102 401 1102 371 1102 c 0,92,93
 299 1102 299 1102 250.5 1140.5 c 128,-1,94
 202 1179 202 1179 202 1260 c 0,95,96
 202 1394 202 1394 322 1463 c 128,-1,97
 442 1532 442 1532 620 1532 c 0,98,99
 851 1532 851 1532 1039 1438 c 128,-1,100
 1227 1344 1227 1344 1227 1198 c 0,31,32
2251 1407 m 1,101,-1
 1987 1407 l 1,102,-1
 1734 339 l 2,103,104
 1728 327 1728 327 1716.5 283.5 c 128,-1,105
 1705 240 1705 240 1705 193 c 256,106,107
 1705 146 1705 146 1716.5 119.5 c 128,-1,108
 1728 93 1728 93 1759.5 83.5 c 128,-1,109
 1791 74 1791 74 1800 74 c 0,110,111
 1862 74 1862 74 1933 140 c 0,112,113
 1955 161 1955 161 1993 205 c 1,114,-1
 2032 161 l 1,115,116
 2023 134 2023 134 1952 74 c 0,117,118
 1848 -9 1848 -9 1740 -9 c 0,119,120
 1678 -9 1678 -9 1634 9 c 0,121,122
 1556 36 1556 36 1526.5 100 c 128,-1,123
 1497 164 1497 164 1497 237 c 0,124,125
 1497 261 1497 261 1498.5 276.5 c 128,-1,126
 1500 292 1500 292 1503 309 c 2,127,-1
 1610 751 l 1,128,-1
 1224 751 l 1,129,-1
 1274 856 l 1,130,-1
 1640 856 l 1,131,-1
 1771 1407 l 1,132,-1
 1322 1407 l 1,133,-1
 1322 1497 l 1,134,-1
 2251 1497 l 1,135,-1
 2251 1407 l 1,101,-1
EndSplineSet
EndChar

StartChar: l.a
Encoding: 308 2309 52
Width: 2251
GlyphClass: 2
Flags: W
LayerCount: 2
Fore
SplineSet
1227 1198 m 0,0,1
 1227 1043 1227 1043 1143 956 c 0,2,3
 1087 900 1087 900 927 828 c 1,4,5
 1008 801 1008 801 1046 769 c 0,6,7
 1164 676 1164 676 1164 511 c 0,8,9
 1164 305 1164 305 993 181 c 0,10,11
 834 65 834 65 613 65 c 2,12,-1
 564 65 l 2,13,14
 546 68 546 68 535 68 c 0,15,16
 274 99 274 99 166 187 c 0,17,18
 76 258 76 258 74 374 c 1,19,20
 78 395 78 395 78 404 c 0,21,22
 87 476 87 476 150.5 510 c 128,-1,23
 214 544 214 544 306 544 c 1,24,25
 302 538 302 538 291 480.5 c 128,-1,26
 280 423 280 423 280 398 c 0,27,28
 280 277 280 277 364 207 c 128,-1,29
 448 137 448 137 570 137 c 0,30,31
 713 137 713 137 819 231 c 0,32,33
 941 337 941 337 959 532 c 0,34,35
 971 669 971 669 874 734 c 0,36,37
 844 755 844 755 772 775 c 1,38,-1
 404 775 l 1,39,-1
 467 874 l 1,40,-1
 754 874 l 1,41,42
 798 889 798 889 822 903 c 0,43,44
 977 989 977 989 1012 1161 c 0,45,46
 1015 1176 1015 1176 1015 1208 c 0,47,48
 1015 1321 1015 1321 928 1392.5 c 128,-1,49
 841 1464 841 1464 722 1464 c 0,50,51
 591 1464 591 1464 511 1423 c 0,52,53
 404 1369 404 1369 404 1260 c 0,54,55
 404 1219 404 1219 424.5 1194.5 c 128,-1,56
 445 1170 445 1170 489 1152 c 1,57,58
 465 1134 465 1134 448 1126 c 0,59,60
 401 1102 401 1102 371 1102 c 0,61,62
 299 1102 299 1102 250.5 1140.5 c 128,-1,63
 202 1179 202 1179 202 1260 c 0,64,65
 202 1394 202 1394 322 1463 c 128,-1,66
 442 1532 442 1532 620 1532 c 0,67,68
 851 1532 851 1532 1039 1438 c 128,-1,69
 1227 1344 1227 1344 1227 1198 c 0,0,1
2251 1407 m 1,70,-1
 1987 1407 l 1,71,-1
 1734 339 l 2,72,73
 1728 327 1728 327 1716.5 283.5 c 128,-1,74
 1705 240 1705 240 1705 193 c 256,75,76
 1705 146 1705 146 1716.5 119.5 c 128,-1,77
 1728 93 1728 93 1759.5 83.5 c 128,-1,78
 1791 74 1791 74 1800 74 c 0,79,80
 1862 74 1862 74 1933 140 c 0,81,82
 1955 161 1955 161 1993 205 c 1,83,-1
 2032 161 l 1,84,85
 2023 134 2023 134 1952 74 c 0,86,87
 1848 -9 1848 -9 1740 -9 c 0,88,89
 1678 -9 1678 -9 1634 9 c 0,90,91
 1556 36 1556 36 1526.5 100 c 128,-1,92
 1497 164 1497 164 1497 237 c 0,93,94
 1497 261 1497 261 1498.5 276.5 c 128,-1,95
 1500 292 1500 292 1503 309 c 2,96,-1
 1610 751 l 1,97,-1
 1224 751 l 1,98,-1
 1274 856 l 1,99,-1
 1640 856 l 1,100,-1
 1771 1407 l 1,101,-1
 1322 1407 l 1,102,-1
 1322 1497 l 1,103,-1
 2251 1497 l 1,104,-1
 2251 1407 l 1,70,-1
EndSplineSet
EndChar

StartChar: l.aa
Encoding: 309 2310 53
Width: 3025
GlyphClass: 2
Flags: W
LayerCount: 2
Fore
SplineSet
3026 1407 m 1,0,-1
 2761 1407 l 1,1,-1
 2509 339 l 2,2,3
 2506 330 2506 330 2495 282 c 128,-1,4
 2484 234 2484 234 2484 196 c 0,5,6
 2484 146 2484 146 2495 119.5 c 128,-1,7
 2506 93 2506 93 2537 83.5 c 128,-1,8
 2568 74 2568 74 2579 74 c 0,9,10
 2638 74 2638 74 2709 140 c 0,11,12
 2731 161 2731 161 2767 205 c 1,13,-1
 2811 161 l 1,14,15
 2805 146 2805 146 2764 106 c 0,16,17
 2646 -9 2646 -9 2516 -9 c 0,18,19
 2454 -9 2454 -9 2410 9 c 0,20,21
 2332 39 2332 39 2302.5 104 c 128,-1,22
 2273 169 2273 169 2273 240 c 0,23,24
 2273 261 2273 261 2274.5 276.5 c 128,-1,25
 2276 292 2276 292 2279 309 c 2,26,-1
 2550 1407 l 1,27,-1
 2220 1407 l 1,28,-1
 2220 1497 l 1,29,-1
 3026 1497 l 1,30,-1
 3026 1407 l 1,0,-1
1227 1198 m 0,31,32
 1227 1043 1227 1043 1143 956 c 0,33,34
 1087 900 1087 900 927 828 c 1,35,36
 1008 801 1008 801 1046 769 c 0,37,38
 1164 676 1164 676 1164 511 c 0,39,40
 1164 305 1164 305 993 181 c 0,41,42
 834 65 834 65 613 65 c 2,43,-1
 564 65 l 2,44,45
 546 68 546 68 535 68 c 0,46,47
 274 99 274 99 166 187 c 0,48,49
 76 258 76 258 74 374 c 1,50,51
 78 395 78 395 78 404 c 0,52,53
 87 476 87 476 150.5 510 c 128,-1,54
 214 544 214 544 306 544 c 1,55,56
 302 538 302 538 291 480.5 c 128,-1,57
 280 423 280 423 280 398 c 0,58,59
 280 277 280 277 364 207 c 128,-1,60
 448 137 448 137 570 137 c 0,61,62
 713 137 713 137 819 231 c 0,63,64
 941 337 941 337 959 532 c 0,65,66
 971 669 971 669 874 734 c 0,67,68
 844 755 844 755 772 775 c 1,69,-1
 404 775 l 1,70,-1
 467 874 l 1,71,-1
 754 874 l 1,72,73
 798 889 798 889 822 903 c 0,74,75
 977 989 977 989 1012 1161 c 0,76,77
 1015 1176 1015 1176 1015 1208 c 0,78,79
 1015 1321 1015 1321 928 1392.5 c 128,-1,80
 841 1464 841 1464 722 1464 c 0,81,82
 591 1464 591 1464 511 1423 c 0,83,84
 404 1369 404 1369 404 1260 c 0,85,86
 404 1219 404 1219 424.5 1194.5 c 128,-1,87
 445 1170 445 1170 489 1152 c 1,88,89
 465 1134 465 1134 448 1126 c 0,90,91
 401 1102 401 1102 371 1102 c 0,92,93
 299 1102 299 1102 250.5 1140.5 c 128,-1,94
 202 1179 202 1179 202 1260 c 0,95,96
 202 1394 202 1394 322 1463 c 128,-1,97
 442 1532 442 1532 620 1532 c 0,98,99
 851 1532 851 1532 1039 1438 c 128,-1,100
 1227 1344 1227 1344 1227 1198 c 0,31,32
2251 1407 m 1,101,-1
 1987 1407 l 1,102,-1
 1734 339 l 2,103,104
 1728 327 1728 327 1716.5 283.5 c 128,-1,105
 1705 240 1705 240 1705 193 c 256,106,107
 1705 146 1705 146 1716.5 119.5 c 128,-1,108
 1728 93 1728 93 1759.5 83.5 c 128,-1,109
 1791 74 1791 74 1800 74 c 0,110,111
 1862 74 1862 74 1933 140 c 0,112,113
 1955 161 1955 161 1993 205 c 1,114,-1
 2032 161 l 1,115,116
 2023 134 2023 134 1952 74 c 0,117,118
 1848 -9 1848 -9 1740 -9 c 0,119,120
 1678 -9 1678 -9 1634 9 c 0,121,122
 1556 36 1556 36 1526.5 100 c 128,-1,123
 1497 164 1497 164 1497 237 c 0,124,125
 1497 261 1497 261 1498.5 276.5 c 128,-1,126
 1500 292 1500 292 1503 309 c 2,127,-1
 1610 751 l 1,128,-1
 1224 751 l 1,129,-1
 1274 856 l 1,130,-1
 1640 856 l 1,131,-1
 1771 1407 l 1,132,-1
 1322 1407 l 1,133,-1
 1322 1497 l 1,134,-1
 2251 1497 l 1,135,-1
 2251 1407 l 1,101,-1
EndSplineSet
EndChar

StartChar: l.i
Encoding: 310 2311 54
Width: 1434
GlyphClass: 2
Flags: W
LayerCount: 2
Fore
SplineSet
1435 1407 m 1,0,-1
 1123 1407 l 1,1,-1
 1052 1087 l 1,2,-1
 707 1087 l 2,3,4
 579 1087 579 1087 514 1064 c 0,5,6
 413 1029 413 1029 404 942 c 1,7,8
 404 859 404 859 496 825 c 0,9,10
 564 801 564 801 695 799 c 0,11,12
 736 799 736 799 777.5 799 c 128,-1,13
 819 799 819 799 859 803 c 1,14,15
 1046 803 1046 803 1130 731.5 c 128,-1,16
 1214 660 1214 660 1214 535 c 0,17,18
 1211 511 1211 511 1211 499 c 0,19,20
 1193 318 1193 318 1009 237 c 0,21,22
 869 175 869 175 663 175 c 1,23,-1
 476 193 l 1,24,25
 467 184 467 184 450 132.5 c 128,-1,26
 433 81 433 81 433 38 c 0,27,28
 433 -15 433 -15 461 -49.5 c 128,-1,29
 489 -84 489 -84 546 -98.5 c 128,-1,30
 603 -113 603 -113 657 -113 c 0,31,32
 698 -113 698 -113 701 -109 c 2,33,-1
 663 -175 l 1,34,35
 644 -184 644 -184 561 -184 c 0,36,37
 514 -184 514 -184 463.5 -176.5 c 128,-1,38
 413 -169 413 -169 371 -152 c 0,39,40
 296 -125 296 -125 263.5 -76 c 128,-1,41
 231 -27 231 -27 231 41 c 0,42,43
 231 79 231 79 243 124 c 128,-1,44
 255 169 255 169 274 211 c 1,45,46
 205 236 205 236 175 255 c 0,47,48
 71 315 71 315 65 380 c 1,49,50
 65 461 65 461 130.5 511 c 128,-1,51
 196 561 196 561 286 561 c 0,52,53
 354 561 354 561 410.5 528 c 128,-1,54
 467 495 467 495 489 433 c 0,55,56
 499 406 499 406 499 368 c 0,57,58
 499 318 499 318 482 271 c 1,59,-1
 579 264 l 2,60,61
 635 258 635 258 666 258 c 0,62,63
 812 258 812 258 912 323.5 c 128,-1,64
 1012 389 1012 389 1012 517 c 0,65,66
 1012 620 1012 620 937 674 c 128,-1,67
 862 728 862 728 734 728 c 0,68,69
 704 725 704 725 689 725 c 0,70,71
 465 725 465 725 359 757 c 0,72,73
 184 810 184 810 184 956 c 0,74,75
 184 1117 184 1117 383 1158 c 0,76,77
 418 1164 418 1164 476 1167 c 2,78,-1
 853 1167 l 1,79,-1
 909 1407 l 1,80,-1
 0 1407 l 1,81,-1
 0 1497 l 1,82,-1
 1435 1497 l 1,83,-1
 1435 1407 l 1,0,-1
EndSplineSet
EndChar

StartChar: l.ii
Encoding: 311 2312 55
Width: 1434
GlyphClass: 2
Flags: W
LayerCount: 2
Fore
SplineSet
1435 1407 m 1,0,-1
 1123 1407 l 1,1,-1
 1052 1087 l 1,2,-1
 707 1087 l 2,3,4
 579 1087 579 1087 514 1064 c 0,5,6
 413 1029 413 1029 404 942 c 1,7,8
 404 859 404 859 496 825 c 0,9,10
 564 801 564 801 695 799 c 0,11,12
 736 799 736 799 777.5 799 c 128,-1,13
 819 799 819 799 859 803 c 1,14,15
 1046 803 1046 803 1130 731.5 c 128,-1,16
 1214 660 1214 660 1214 535 c 0,17,18
 1211 511 1211 511 1211 499 c 0,19,20
 1193 318 1193 318 1009 237 c 0,21,22
 869 175 869 175 663 175 c 1,23,-1
 476 193 l 1,24,25
 467 184 467 184 450 132.5 c 128,-1,26
 433 81 433 81 433 38 c 0,27,28
 433 -15 433 -15 461 -49.5 c 128,-1,29
 489 -84 489 -84 546 -98.5 c 128,-1,30
 603 -113 603 -113 657 -113 c 0,31,32
 698 -113 698 -113 701 -109 c 2,33,-1
 663 -175 l 1,34,35
 644 -184 644 -184 561 -184 c 0,36,37
 514 -184 514 -184 463.5 -176.5 c 128,-1,38
 413 -169 413 -169 371 -152 c 0,39,40
 296 -125 296 -125 263.5 -76 c 128,-1,41
 231 -27 231 -27 231 41 c 0,42,43
 231 79 231 79 243 124 c 128,-1,44
 255 169 255 169 274 211 c 1,45,46
 205 236 205 236 175 255 c 0,47,48
 71 315 71 315 65 380 c 1,49,50
 65 461 65 461 130.5 511 c 128,-1,51
 196 561 196 561 286 561 c 0,52,53
 354 561 354 561 410.5 528 c 128,-1,54
 467 495 467 495 489 433 c 0,55,56
 499 406 499 406 499 368 c 0,57,58
 499 318 499 318 482 271 c 1,59,-1
 579 264 l 2,60,61
 635 258 635 258 666 258 c 0,62,63
 812 258 812 258 912 323.5 c 128,-1,64
 1012 389 1012 389 1012 517 c 0,65,66
 1012 620 1012 620 937 674 c 128,-1,67
 862 728 862 728 734 728 c 0,68,69
 704 725 704 725 689 725 c 0,70,71
 465 725 465 725 359 757 c 0,72,73
 184 810 184 810 184 956 c 0,74,75
 184 1117 184 1117 383 1158 c 0,76,77
 418 1164 418 1164 476 1167 c 2,78,-1
 853 1167 l 1,79,-1
 909 1407 l 1,80,-1
 0 1407 l 1,81,-1
 0 1497 l 1,82,-1
 1435 1497 l 1,83,-1
 1435 1407 l 1,0,-1
1221 2189 m 1,84,-1
 1189 2095 l 1,85,86
 1161 2107 1161 2107 1105 2118 c 128,-1,87
 1049 2129 1049 2129 996 2129 c 0,88,89
 915 2129 915 2129 862 2059.5 c 128,-1,90
 809 1990 809 1990 809 1877 c 0,91,92
 809 1756 809 1756 872.5 1645.5 c 128,-1,93
 936 1535 936 1535 1012 1497 c 1,94,-1
 819 1497 l 1,95,96
 742 1556 742 1556 713 1590 c 0,97,98
 617 1711 617 1711 617 1871 c 0,99,100
 617 2064 617 2064 748 2151 c 0,101,102
 848 2216 848 2216 1009 2216 c 0,103,104
 1084 2216 1084 2216 1149 2205.5 c 128,-1,105
 1214 2195 1214 2195 1221 2189 c 1,84,-1
EndSplineSet
EndChar

StartChar: l.u
Encoding: 312 2313 56
Width: 1494
GlyphClass: 2
Flags: W
LayerCount: 2
Fore
SplineSet
1494 1407 m 1,0,-1
 1034 1407 l 1,1,2
 1161 1304 1161 1304 1161 1155 c 0,3,4
 1161 1120 1161 1120 1158 1102 c 0,5,6
 1143 983 1143 983 1069.5 908.5 c 128,-1,7
 996 834 996 834 885 796 c 1,8,9
 1018 752 1018 752 1096 666 c 0,10,11
 1189 559 1189 559 1189 407 c 0,12,13
 1189 155 1189 155 968 68 c 0,14,15
 822 9 822 9 514 9 c 0,16,17
 315 9 315 9 181 84 c 0,18,19
 26 170 26 170 24 321 c 0,20,21
 24 482 24 482 187 535 c 0,22,23
 240 550 240 550 351 558 c 1,24,25
 304 511 304 511 276.5 450 c 128,-1,26
 249 389 249 389 249 315 c 0,27,28
 249 208 249 208 350 141 c 128,-1,29
 451 74 451 74 588 74 c 0,30,31
 737 74 737 74 847 152 c 0,32,33
 974 242 974 242 974 398 c 2,34,-1
 974 442 l 2,35,36
 974 549 974 549 909 631 c 128,-1,37
 844 713 844 713 754 751 c 1,38,-1
 489 751 l 1,39,-1
 526 856 l 1,40,-1
 787 856 l 1,41,42
 809 868 809 868 834 882 c 0,43,44
 918 944 918 944 933 1096 c 0,45,46
 936 1111 936 1111 936 1143 c 0,47,48
 936 1318 936 1318 781 1407 c 1,49,-1
 0 1407 l 1,50,-1
 0 1497 l 1,51,-1
 1494 1497 l 1,52,-1
 1494 1407 l 1,0,-1
EndSplineSet
EndChar

StartChar: l.uu
Encoding: 313 2314 57
Width: 2153
GlyphClass: 2
Flags: W
LayerCount: 2
Fore
SplineSet
2154 1407 m 1,0,-1
 1034 1407 l 1,1,2
 1161 1304 1161 1304 1161 1155 c 0,3,4
 1161 1120 1161 1120 1158 1102 c 0,5,6
 1143 983 1143 983 1069.5 908.5 c 128,-1,7
 996 834 996 834 885 796 c 1,8,9
 912 790 912 790 940 787 c 128,-1,10
 968 784 968 784 996 773.5 c 128,-1,11
 1024 763 1024 763 1049.5 747 c 128,-1,12
 1075 731 1075 731 1099 710 c 1,13,14
 1183 796 1183 796 1242 841 c 0,15,16
 1423 971 1423 971 1610 971 c 0,17,18
 1788 971 1788 971 1893.5 858.5 c 128,-1,19
 1999 746 1999 746 1999 582 c 0,20,21
 1999 377 1999 377 1877 246 c 0,22,23
 1771 131 1771 131 1634 131 c 0,24,25
 1610 131 1610 131 1598 134 c 0,26,27
 1497 149 1497 149 1464 217 c 0,28,29
 1455 239 1455 239 1447 286 c 1,30,31
 1593 289 1593 289 1657 330 c 0,32,33
 1766 398 1766 398 1794 544 c 0,34,35
 1803 588 1803 588 1803 629 c 0,36,37
 1803 745 1803 745 1740.5 816.5 c 128,-1,38
 1678 888 1678 888 1587 888 c 0,39,40
 1441 888 1441 888 1280 746 c 0,41,42
 1227 699 1227 699 1149 606 c 1,43,44
 1170 553 1170 553 1179.5 507 c 128,-1,45
 1189 461 1189 461 1189 407 c 0,46,47
 1189 155 1189 155 968 68 c 0,48,49
 822 9 822 9 514 9 c 0,50,51
 315 9 315 9 181 84 c 0,52,53
 26 170 26 170 24 321 c 0,54,55
 24 482 24 482 187 535 c 0,56,57
 240 550 240 550 351 558 c 1,58,59
 304 511 304 511 276.5 450 c 128,-1,60
 249 389 249 389 249 315 c 0,61,62
 249 208 249 208 350 141 c 128,-1,63
 451 74 451 74 588 74 c 0,64,65
 737 74 737 74 847 152 c 0,66,67
 974 242 974 242 974 398 c 2,68,-1
 974 442 l 2,69,70
 974 549 974 549 909 631 c 128,-1,71
 844 713 844 713 754 751 c 1,72,-1
 489 751 l 1,73,-1
 526 856 l 1,74,-1
 787 856 l 1,75,76
 809 868 809 868 834 882 c 0,77,78
 918 944 918 944 933 1096 c 0,79,80
 936 1111 936 1111 936 1143 c 0,81,82
 936 1318 936 1318 781 1407 c 1,83,-1
 0 1407 l 1,84,-1
 0 1497 l 1,85,-1
 2154 1497 l 1,86,-1
 2154 1407 l 1,0,-1
EndSplineSet
EndChar

StartChar: l.vr
Encoding: 314 2315 58
Width: 2225
GlyphClass: 2
Flags: W
LayerCount: 2
Fore
SplineSet
2225 1407 m 1,0,-1
 1336 1407 l 1,1,-1
 1221 924 l 1,2,-1
 1515 968 l 1,3,4
 1512 977 1512 977 1512 988 c 128,-1,5
 1512 999 1512 999 1512 1002 c 0,6,7
 1512 1023 1512 1023 1515 1037 c 0,8,9
 1531 1078 1531 1078 1538 1096 c 0,10,11
 1556 1143 1556 1143 1612.5 1169 c 128,-1,12
 1669 1195 1669 1195 1737 1195 c 0,13,14
 1812 1195 1812 1195 1860 1163.5 c 128,-1,15
 1908 1132 1908 1132 1908 1067 c 256,16,17
 1908 1002 1908 1002 1842 983 c 0,18,19
 1827 980 1827 980 1765 971 c 1,20,21
 1762 956 1762 956 1762 927 c 0,22,23
 1762 856 1762 856 1815 790 c 0,24,25
 1839 760 1839 760 1887.5 745.5 c 128,-1,26
 1936 731 1936 731 1993 731 c 0,27,28
 2064 731 2064 731 2093.5 735.5 c 128,-1,29
 2123 740 2123 740 2139 751 c 1,30,-1
 2139 657 l 1,31,32
 2101 660 2101 660 2070 660 c 0,33,34
 2043 660 2043 660 2008 657 c 128,-1,35
 1973 654 1973 654 1946 644 c 0,36,37
 1853 614 1853 614 1785.5 516.5 c 128,-1,38
 1718 419 1718 419 1718 324 c 0,39,40
 1718 255 1718 255 1754.5 209.5 c 128,-1,41
 1791 164 1791 164 1868 152 c 0,42,43
 1927 143 1927 143 2003 181.5 c 128,-1,44
 2079 220 2079 220 2101 246 c 1,45,-1
 2166 152 l 1,46,47
 2154 140 2154 140 2036 95 c 128,-1,48
 1918 50 1918 50 1833 50 c 0,49,50
 1681 50 1681 50 1584 125 c 0,51,52
 1474 208 1474 208 1476 374 c 0,53,54
 1476 486 1476 486 1574 583.5 c 128,-1,55
 1672 681 1672 681 1797 681 c 0,56,57
 1821 681 1821 681 1833 678 c 1,58,59
 1696 678 1696 678 1604 775 c 0,60,61
 1563 816 1563 816 1538 874 c 1,62,-1
 1189 822 l 1,63,-1
 1072 339 l 2,64,65
 1066 327 1066 327 1054.5 282 c 128,-1,66
 1043 237 1043 237 1043 190 c 256,67,68
 1043 143 1043 143 1053.5 118 c 128,-1,69
 1064 93 1064 93 1093.5 83.5 c 128,-1,70
 1123 74 1123 74 1132 74 c 0,71,72
 1204 74 1204 74 1292 161 c 0,73,74
 1304 173 1304 173 1328 205 c 1,75,-1
 1370 161 l 1,76,77
 1360 134 1360 134 1289 74 c 0,78,79
 1186 -9 1186 -9 1078 -9 c 0,80,81
 1012 -9 1012 -9 968 9 c 0,82,83
 891 36 891 36 861 100 c 128,-1,84
 831 164 831 164 831 237 c 0,85,86
 831 261 831 261 832.5 276.5 c 128,-1,87
 834 292 834 292 838 309 c 2,88,-1
 903 558 l 1,89,90
 819 492 819 492 769 457 c 0,91,92
 611 345 611 345 508 309 c 0,93,94
 461 293 461 293 369 271 c 128,-1,95
 277 249 277 249 261 246 c 1,96,-1
 155 374 l 1,97,98
 264 386 264 386 334 401 c 128,-1,99
 404 416 404 416 507 454 c 128,-1,100
 610 492 610 492 728 564 c 0,101,102
 903 667 903 667 947 710 c 1,103,104
 860 841 860 841 687 945 c 128,-1,105
 514 1049 514 1049 330 1049 c 0,106,107
 261 1049 261 1049 158 1015 c 0,108,109
 123 1006 123 1006 65 977 c 1,110,-1
 93 1096 l 1,111,112
 152 1114 152 1114 184 1120 c 0,113,114
 280 1145 280 1145 330 1146 c 0,115,116
 541 1146 541 1146 720.5 1090 c 128,-1,117
 900 1034 900 1034 1006 950 c 1,118,-1
 1111 1407 l 1,119,-1
 0 1407 l 1,120,-1
 0 1497 l 1,121,-1
 2225 1497 l 1,122,-1
 2225 1407 l 1,0,-1
EndSplineSet
EndChar

StartChar: l.vl
Encoding: 315 2316 59
Width: 2246
GlyphClass: 2
Flags: W
LayerCount: 2
Fore
SplineSet
0 1497 m 1,0,-1
 2246 1497 l 1,1,-1
 2246 1407 l 1,2,-1
 1718 1407 l 1,3,-1
 1623 1058 l 1,4,5
 1678 1032 1678 1032 1724 992 c 0,6,7
 1732 986 1732 986 1739 980 c 0,8,9
 1797 927 1797 927 1835 859 c 0,10,11
 1880 778 1880 778 1890 688 c 0,12,13
 1900 596 1900 596 1873 505 c 128,-1,14
 1846 414 1846 414 1788 339 c 0,15,16
 1744 282 1744 282 1687 237 c 0,17,18
 1604 173 1604 173 1498 136 c 0,19,20
 1473 128 1473 128 1386 103 c 0,21,22
 1321 84 1321 84 1290 69 c 0,23,24
 1240 46 1240 46 1214 17 c 0,25,26
 1179 -21 1179 -21 1174 -61 c 0,27,28
 1169 -95 1169 -95 1184 -131 c 0,29,30
 1191 -145 1191 -145 1200 -158 c 0,31,32
 1231 -201 1231 -201 1288 -220 c 0,33,34
 1339 -237 1339 -237 1400 -228 c 0,35,36
 1453 -220 1453 -220 1509 -189 c 0,37,38
 1572 -155 1572 -155 1620 -100 c 0,39,40
 1655 -62 1655 -62 1678 -17 c 2,41,-1
 1694 19 l 1,42,-1
 1825 -43 l 1,43,44
 1816 -60 1816 -60 1798 -88 c 0,45,46
 1762 -144 1762 -144 1713 -191 c 0,47,48
 1645 -255 1645 -255 1562 -294 c 0,49,50
 1490 -328 1490 -328 1414 -337 c 0,51,52
 1331 -347 1331 -347 1253 -321 c 0,53,54
 1170 -293 1170 -293 1114 -224 c 0,55,56
 1097 -204 1097 -204 1085 -180 c 0,57,58
 1054 -122 1054 -122 1052 -55 c 0,59,60
 1053 29 1053 29 1098 100 c 0,61,62
 1138 164 1138 164 1200 211 c 0,63,64
 1249 248 1249 248 1313 282 c 0,65,66
 1328 289 1328 289 1362.5 306.5 c 128,-1,67
 1397 324 1397 324 1413 333 c 0,68,69
 1488 376 1488 376 1545 420 c 0,70,71
 1588 452 1588 452 1617 483 c 0,72,73
 1662 529 1662 529 1689 577 c 0,74,75
 1720 634 1720 634 1727 686 c 0,76,77
 1736 745 1736 745 1716 805 c 0,78,79
 1698 860 1698 860 1661 901 c 0,80,81
 1656 906 1656 906 1651 911 c 0,82,83
 1607 955 1607 955 1542 976 c 0,84,85
 1479 997 1479 997 1416 990 c 0,86,87
 1333 982 1333 982 1266 933 c 0,88,89
 1219 899 1219 899 1188 850 c 0,90,91
 1184 843 1184 843 1179 836 c 1,92,93
 1177 799 1177 799 1162 760 c 1,94,-1
 1162 760 l 1,95,96
 1138 682 1138 682 1066.5 639 c 128,-1,97
 995 596 995 596 917 595 c 0,98,99
 843 595 843 595 791.5 627 c 128,-1,100
 740 659 740 659 739 718 c 0,101,102
 738 824 738 824 865 915 c 0,103,104
 919 954 919 954 953 971.5 c 128,-1,105
 987 989 987 989 1001 984 c 1,106,-1
 1002 984 l 1,107,-1
 1001 985 l 1,108,109
 980 1012 980 1012 961 1044 c 1,110,-1
 961 1044 l 1,111,112
 905 1097 905 1097 801 1096 c 0,113,114
 608 1095 608 1095 464.5 924 c 128,-1,115
 321 753 321 753 323 528 c 0,116,117
 324 391 324 391 390 285 c 0,118,119
 472 158 472 158 612 138 c 0,120,121
 628 135 628 135 660 135 c 0,122,123
 725 135 725 135 793 163 c 0,124,125
 882 202 882 202 911 240 c 1,126,-1
 942 141 l 1,127,128
 895 116 895 116 862 104 c 0,129,130
 756 65 756 65 639 64 c 0,131,132
 583 64 583 64 517 72 c 0,133,134
 330 95 330 95 213.5 231.5 c 128,-1,135
 97 368 97 368 96 558 c 0,136,137
 94 844 94 844 314 1017 c 0,138,139
 518 1176 518 1176 814 1179 c 0,140,141
 819 1179 819 1179 824 1179 c 0,142,143
 975 1178 975 1178 1079 1106 c 1,144,145
 1121 1065 1121 1065 1144 1043 c 0,146,147
 1156 1032 1156 1032 1163 1025 c 0,148,149
 1167 1022 1167 1022 1170 1020 c 0,150,151
 1183 1029 1183 1029 1197 1038 c 0,152,153
 1295 1096 1295 1096 1408 1102 c 0,154,155
 1411 1102 1411 1102 1414 1102 c 2,156,-1
 1502 1407 l 1,157,-1
 0 1407 l 1,158,-1
 0 1497 l 1,0,-1
EndSplineSet
EndChar

StartChar: l.chandra
Encoding: 316 2317 60
Width: 1562
GlyphClass: 2
Flags: W
LayerCount: 2
Fore
SplineSet
1304 1263 m 2,0,-1
 1298 1087 l 1,1,2
 1298 787 1298 787 1043 626 c 0,3,4
 959 573 959 573 787 523 c 1,5,-1
 766 576 l 1,6,7
 869 666 869 666 971 760 c 1,8,9
 1075 909 1075 909 1099 1114 c 0,10,11
 1102 1158 1102 1158 1106.5 1197 c 128,-1,12
 1111 1236 1111 1236 1111 1290.5 c 128,-1,13
 1111 1345 1111 1345 1099 1407 c 1,14,-1
 502 1407 l 1,15,-1
 261 380 l 1,16,17
 246 342 246 342 246 296 c 0,18,19
 246 207 246 207 302 152 c 0,20,21
 383 74 383 74 567 74 c 0,22,23
 673 74 673 74 871 164 c 0,24,25
 936 191 936 191 1052 258 c 1,26,-1
 1143 122 l 1,27,28
 1125 103 1125 103 901.5 44 c 128,-1,29
 678 -15 678 -15 482 -15 c 0,30,31
 220 -15 220 -15 109 119 c 0,32,33
 35 208 35 208 35 342 c 0,34,35
 35 380 35 380 41 404 c 2,36,-1
 283 1407 l 1,37,-1
 0 1407 l 1,38,-1
 0 1497 l 1,39,-1
 1550 1497 l 1,40,-1
 1550 1407 l 1,41,-1
 1286 1407 l 1,42,43
 1304 1341 1304 1341 1304 1263 c 2,0,-1
1560 2011 m 0,44,45
 1563 1999 1563 1999 1563 1987.5 c 128,-1,46
 1563 1976 1563 1976 1563 1967 c 0,47,48
 1563 1762 1563 1762 1325 1666 c 0,49,50
 1135 1588 1135 1588 841 1587 c 0,51,52
 617 1587 617 1587 464 1649 c 0,53,54
 264 1730 264 1730 264 1892 c 0,55,56
 264 1933 264 1933 280 1990 c 0,57,58
 307 2079 307 2079 380 2117 c 0,59,60
 427 2142 427 2142 496 2142 c 0,61,62
 540 2139 540 2139 544 2139 c 1,63,64
 517 2085 517 2085 492 2018.5 c 128,-1,65
 467 1952 467 1952 467 1901 c 0,66,67
 467 1801 467 1801 544 1743 c 0,68,69
 640 1672 640 1672 856 1672 c 0,70,71
 1170 1672 1170 1672 1298 1836 c 0,72,73
 1379 1943 1379 1943 1379 2088 c 0,74,75
 1379 2104 1379 2104 1379 2113.5 c 128,-1,76
 1379 2123 1379 2123 1376 2133 c 1,77,78
 1406 2136 1406 2136 1438 2136 c 0,79,80
 1485 2136 1485 2136 1519 2109 c 128,-1,81
 1553 2082 1553 2082 1560 2011 c 0,44,45
EndSplineSet
EndChar

StartChar: l.short.e
Encoding: 317 2318 61
Width: 1550
GlyphClass: 2
Flags: W
LayerCount: 2
Fore
SplineSet
1304 1263 m 2,0,-1
 1298 1087 l 1,1,2
 1298 787 1298 787 1043 626 c 0,3,4
 959 573 959 573 787 523 c 1,5,-1
 766 576 l 1,6,7
 869 666 869 666 971 760 c 1,8,9
 1075 909 1075 909 1099 1114 c 0,10,11
 1102 1158 1102 1158 1106.5 1197 c 128,-1,12
 1111 1236 1111 1236 1111 1290.5 c 128,-1,13
 1111 1345 1111 1345 1099 1407 c 1,14,-1
 502 1407 l 1,15,-1
 261 380 l 1,16,17
 246 342 246 342 246 296 c 0,18,19
 246 207 246 207 302 152 c 0,20,21
 383 74 383 74 567 74 c 0,22,23
 673 74 673 74 871 164 c 0,24,25
 936 191 936 191 1052 258 c 1,26,-1
 1143 122 l 1,27,28
 1125 103 1125 103 901.5 44 c 128,-1,29
 678 -15 678 -15 482 -15 c 0,30,31
 220 -15 220 -15 109 119 c 0,32,33
 35 208 35 208 35 342 c 0,34,35
 35 380 35 380 41 404 c 2,36,-1
 283 1407 l 1,37,-1
 0 1407 l 1,38,-1
 0 1497 l 1,39,-1
 1550 1497 l 1,40,-1
 1550 1407 l 1,41,-1
 1286 1407 l 1,42,43
 1304 1341 1304 1341 1304 1263 c 2,0,-1
1217 1497 m 1,44,-1
 994 1497 l 1,45,46
 1012 1544 1012 1544 1028 1606.5 c 128,-1,47
 1044 1669 1044 1669 1044 1702 c 0,48,49
 1044 1774 1044 1774 1012 1812 c 0,50,51
 971 1859 971 1859 881 1859 c 0,52,53
 614 1859 614 1859 501 1958 c 0,54,55
 424 2026 424 2026 424 2145 c 0,56,57
 424 2186 424 2186 428.5 2208.5 c 128,-1,58
 433 2231 433 2231 436 2248 c 1,59,-1
 655 2248 l 1,60,61
 658 2242 658 2242 652 2216 c 0,62,63
 630 2139 630 2139 629 2101 c 0,64,65
 629 2014 629 2014 679 1967 c 0,66,67
 744 1905 744 1905 907 1905 c 0,68,69
 1097 1905 1097 1905 1178 1821 c 0,70,71
 1237 1759 1237 1759 1237 1643 c 0,72,73
 1237 1590 1237 1590 1228.5 1554 c 128,-1,74
 1220 1518 1220 1518 1217 1497 c 1,44,-1
EndSplineSet
EndChar

StartChar: l.e
Encoding: 318 2319 62
Width: 1550
GlyphClass: 2
Flags: W
LayerCount: 2
Fore
SplineSet
1304 1263 m 2,0,-1
 1298 1087 l 1,1,2
 1298 787 1298 787 1043 626 c 0,3,4
 959 573 959 573 787 523 c 1,5,-1
 766 576 l 1,6,7
 869 666 869 666 971 760 c 1,8,9
 1075 909 1075 909 1099 1114 c 0,10,11
 1102 1158 1102 1158 1106.5 1197 c 128,-1,12
 1111 1236 1111 1236 1111 1290.5 c 128,-1,13
 1111 1345 1111 1345 1099 1407 c 1,14,-1
 502 1407 l 1,15,-1
 261 380 l 1,16,17
 246 342 246 342 246 296 c 0,18,19
 246 207 246 207 302 152 c 0,20,21
 383 74 383 74 567 74 c 0,22,23
 673 74 673 74 871 164 c 0,24,25
 936 191 936 191 1052 258 c 1,26,-1
 1143 122 l 1,27,28
 1125 103 1125 103 901.5 44 c 128,-1,29
 678 -15 678 -15 482 -15 c 0,30,31
 220 -15 220 -15 109 119 c 0,32,33
 35 208 35 208 35 342 c 0,34,35
 35 380 35 380 41 404 c 2,36,-1
 283 1407 l 1,37,-1
 0 1407 l 1,38,-1
 0 1497 l 1,39,-1
 1550 1497 l 1,40,-1
 1550 1407 l 1,41,-1
 1286 1407 l 1,42,43
 1304 1341 1304 1341 1304 1263 c 2,0,-1
EndSplineSet
EndChar

StartChar: l.ai
Encoding: 319 2320 63
Width: 1550
GlyphClass: 2
Flags: W
LayerCount: 2
Fore
SplineSet
1304 1263 m 2,0,-1
 1298 1087 l 1,1,2
 1298 787 1298 787 1043 626 c 0,3,4
 959 573 959 573 787 523 c 1,5,-1
 766 576 l 1,6,7
 869 666 869 666 971 760 c 1,8,9
 1075 909 1075 909 1099 1114 c 0,10,11
 1102 1158 1102 1158 1106.5 1197 c 128,-1,12
 1111 1236 1111 1236 1111 1290.5 c 128,-1,13
 1111 1345 1111 1345 1099 1407 c 1,14,-1
 502 1407 l 1,15,-1
 261 380 l 1,16,17
 246 342 246 342 246 296 c 0,18,19
 246 207 246 207 302 152 c 0,20,21
 383 74 383 74 567 74 c 0,22,23
 673 74 673 74 871 164 c 0,24,25
 936 191 936 191 1052 258 c 1,26,-1
 1143 122 l 1,27,28
 1125 103 1125 103 901.5 44 c 128,-1,29
 678 -15 678 -15 482 -15 c 0,30,31
 220 -15 220 -15 109 119 c 0,32,33
 35 208 35 208 35 342 c 0,34,35
 35 380 35 380 41 404 c 2,36,-1
 283 1407 l 1,37,-1
 0 1407 l 1,38,-1
 0 1497 l 1,39,-1
 1550 1497 l 1,40,-1
 1550 1407 l 1,41,-1
 1286 1407 l 1,42,43
 1304 1341 1304 1341 1304 1263 c 2,0,-1
1193 1485 m 1,44,-1
 982 1485 l 1,45,46
 982 1535 982 1535 839 1818 c 0,47,48
 681 2136 681 2136 592 2136 c 0,49,50
 539 2136 539 2136 477 2123 c 128,-1,51
 415 2110 415 2110 378 2098 c 1,52,-1
 352 2151 l 1,53,54
 371 2157 371 2157 513 2186.5 c 128,-1,55
 655 2216 655 2216 714 2216 c 0,56,57
 836 2216 836 2216 1026 1853 c 0,58,59
 1086 1731 1086 1731 1193 1485 c 1,44,-1
EndSplineSet
EndChar

StartChar: l.chandrao
Encoding: 320 2321 64
Width: 2995
GlyphClass: 2
Flags: W
LayerCount: 2
Fore
SplineSet
3282 2011 m 0,0,1
 3285 1999 3285 1999 3285 1987.5 c 128,-1,2
 3285 1976 3285 1976 3285 1967 c 0,3,4
 3285 1762 3285 1762 3047 1666 c 0,5,6
 2857 1588 2857 1588 2563 1587 c 0,7,8
 2339 1587 2339 1587 2186 1649 c 0,9,10
 1986 1730 1986 1730 1986 1892 c 0,11,12
 1986 1933 1986 1933 2002 1990 c 0,13,14
 2029 2079 2029 2079 2102 2117 c 0,15,16
 2149 2142 2149 2142 2218 2142 c 0,17,18
 2262 2139 2262 2139 2266 2139 c 1,19,20
 2239 2085 2239 2085 2214 2018.5 c 128,-1,21
 2189 1952 2189 1952 2189 1901 c 0,22,23
 2189 1801 2189 1801 2266 1743 c 0,24,25
 2362 1672 2362 1672 2578 1672 c 0,26,27
 2892 1672 2892 1672 3020 1836 c 0,28,29
 3101 1943 3101 1943 3101 2088 c 0,30,31
 3101 2104 3101 2104 3101 2113.5 c 128,-1,32
 3101 2123 3101 2123 3098 2133 c 1,33,34
 3128 2136 3128 2136 3160 2136 c 0,35,36
 3207 2136 3207 2136 3241 2109 c 128,-1,37
 3275 2082 3275 2082 3282 2011 c 0,0,1
3026 1407 m 1,38,-1
 2761 1407 l 1,39,-1
 2509 339 l 2,40,41
 2506 330 2506 330 2495 282 c 128,-1,42
 2484 234 2484 234 2484 196 c 0,43,44
 2484 146 2484 146 2495 119.5 c 128,-1,45
 2506 93 2506 93 2537 83.5 c 128,-1,46
 2568 74 2568 74 2579 74 c 0,47,48
 2638 74 2638 74 2709 140 c 0,49,50
 2731 161 2731 161 2767 205 c 1,51,-1
 2811 161 l 1,52,53
 2805 146 2805 146 2764 106 c 0,54,55
 2646 -9 2646 -9 2516 -9 c 0,56,57
 2454 -9 2454 -9 2410 9 c 0,58,59
 2332 39 2332 39 2302.5 104 c 128,-1,60
 2273 169 2273 169 2273 240 c 0,61,62
 2273 261 2273 261 2274.5 276.5 c 128,-1,63
 2276 292 2276 292 2279 309 c 2,64,-1
 2550 1407 l 1,65,-1
 2220 1407 l 1,66,-1
 2220 1497 l 1,67,-1
 3026 1497 l 1,68,-1
 3026 1407 l 1,38,-1
1227 1198 m 0,69,70
 1227 1043 1227 1043 1143 956 c 0,71,72
 1087 900 1087 900 927 828 c 1,73,74
 1008 801 1008 801 1046 769 c 0,75,76
 1164 676 1164 676 1164 511 c 0,77,78
 1164 305 1164 305 993 181 c 0,79,80
 834 65 834 65 613 65 c 2,81,-1
 564 65 l 2,82,83
 546 68 546 68 535 68 c 0,84,85
 274 99 274 99 166 187 c 0,86,87
 76 258 76 258 74 374 c 1,88,89
 78 395 78 395 78 404 c 0,90,91
 87 476 87 476 150.5 510 c 128,-1,92
 214 544 214 544 306 544 c 1,93,94
 302 538 302 538 291 480.5 c 128,-1,95
 280 423 280 423 280 398 c 0,96,97
 280 277 280 277 364 207 c 128,-1,98
 448 137 448 137 570 137 c 0,99,100
 713 137 713 137 819 231 c 0,101,102
 941 337 941 337 959 532 c 0,103,104
 971 669 971 669 874 734 c 0,105,106
 844 755 844 755 772 775 c 1,107,-1
 404 775 l 1,108,-1
 467 874 l 1,109,-1
 754 874 l 1,110,111
 798 889 798 889 822 903 c 0,112,113
 977 989 977 989 1012 1161 c 0,114,115
 1015 1176 1015 1176 1015 1208 c 0,116,117
 1015 1321 1015 1321 928 1392.5 c 128,-1,118
 841 1464 841 1464 722 1464 c 0,119,120
 591 1464 591 1464 511 1423 c 0,121,122
 404 1369 404 1369 404 1260 c 0,123,124
 404 1219 404 1219 424.5 1194.5 c 128,-1,125
 445 1170 445 1170 489 1152 c 1,126,127
 465 1134 465 1134 448 1126 c 0,128,129
 401 1102 401 1102 371 1102 c 0,130,131
 299 1102 299 1102 250.5 1140.5 c 128,-1,132
 202 1179 202 1179 202 1260 c 0,133,134
 202 1394 202 1394 322 1463 c 128,-1,135
 442 1532 442 1532 620 1532 c 0,136,137
 851 1532 851 1532 1039 1438 c 128,-1,138
 1227 1344 1227 1344 1227 1198 c 0,69,70
2251 1407 m 1,139,-1
 1987 1407 l 1,140,-1
 1734 339 l 2,141,142
 1728 327 1728 327 1716.5 283.5 c 128,-1,143
 1705 240 1705 240 1705 193 c 256,144,145
 1705 146 1705 146 1716.5 119.5 c 128,-1,146
 1728 93 1728 93 1759.5 83.5 c 128,-1,147
 1791 74 1791 74 1800 74 c 0,148,149
 1862 74 1862 74 1933 140 c 0,150,151
 1955 161 1955 161 1993 205 c 1,152,-1
 2032 161 l 1,153,154
 2023 134 2023 134 1952 74 c 0,155,156
 1848 -9 1848 -9 1740 -9 c 0,157,158
 1678 -9 1678 -9 1634 9 c 0,159,160
 1556 36 1556 36 1526.5 100 c 128,-1,161
 1497 164 1497 164 1497 237 c 0,162,163
 1497 261 1497 261 1498.5 276.5 c 128,-1,164
 1500 292 1500 292 1503 309 c 2,165,-1
 1610 751 l 1,166,-1
 1224 751 l 1,167,-1
 1274 856 l 1,168,-1
 1640 856 l 1,169,-1
 1771 1407 l 1,170,-1
 1322 1407 l 1,171,-1
 1322 1497 l 1,172,-1
 2251 1497 l 1,173,-1
 2251 1407 l 1,139,-1
EndSplineSet
EndChar

StartChar: l.short.o
Encoding: 321 2322 65
Width: 3025
GlyphClass: 2
Flags: W
LayerCount: 2
Fore
SplineSet
2767 1497 m 1,0,-1
 2544 1497 l 1,1,2
 2562 1544 2562 1544 2578 1606.5 c 128,-1,3
 2594 1669 2594 1669 2594 1702 c 0,4,5
 2594 1774 2594 1774 2562 1812 c 0,6,7
 2521 1859 2521 1859 2431 1859 c 0,8,9
 2164 1859 2164 1859 2051 1958 c 0,10,11
 1974 2026 1974 2026 1974 2145 c 0,12,13
 1974 2186 1974 2186 1978.5 2208.5 c 128,-1,14
 1983 2231 1983 2231 1986 2248 c 1,15,-1
 2205 2248 l 1,16,17
 2208 2242 2208 2242 2202 2216 c 0,18,19
 2180 2139 2180 2139 2179 2101 c 0,20,21
 2179 2014 2179 2014 2229 1967 c 0,22,23
 2294 1905 2294 1905 2457 1905 c 0,24,25
 2647 1905 2647 1905 2728 1821 c 0,26,27
 2787 1759 2787 1759 2787 1643 c 0,28,29
 2787 1590 2787 1590 2778.5 1554 c 128,-1,30
 2770 1518 2770 1518 2767 1497 c 1,0,-1
3026 1407 m 1,31,-1
 2761 1407 l 1,32,-1
 2509 339 l 2,33,34
 2506 330 2506 330 2495 282 c 128,-1,35
 2484 234 2484 234 2484 196 c 0,36,37
 2484 146 2484 146 2495 119.5 c 128,-1,38
 2506 93 2506 93 2537 83.5 c 128,-1,39
 2568 74 2568 74 2579 74 c 0,40,41
 2638 74 2638 74 2709 140 c 0,42,43
 2731 161 2731 161 2767 205 c 1,44,-1
 2811 161 l 1,45,46
 2805 146 2805 146 2764 106 c 0,47,48
 2646 -9 2646 -9 2516 -9 c 0,49,50
 2454 -9 2454 -9 2410 9 c 0,51,52
 2332 39 2332 39 2302.5 104 c 128,-1,53
 2273 169 2273 169 2273 240 c 0,54,55
 2273 261 2273 261 2274.5 276.5 c 128,-1,56
 2276 292 2276 292 2279 309 c 2,57,-1
 2550 1407 l 1,58,-1
 2220 1407 l 1,59,-1
 2220 1497 l 1,60,-1
 3026 1497 l 1,61,-1
 3026 1407 l 1,31,-1
1227 1198 m 0,62,63
 1227 1043 1227 1043 1143 956 c 0,64,65
 1087 900 1087 900 927 828 c 1,66,67
 1008 801 1008 801 1046 769 c 0,68,69
 1164 676 1164 676 1164 511 c 0,70,71
 1164 305 1164 305 993 181 c 0,72,73
 834 65 834 65 613 65 c 2,74,-1
 564 65 l 2,75,76
 546 68 546 68 535 68 c 0,77,78
 274 99 274 99 166 187 c 0,79,80
 76 258 76 258 74 374 c 1,81,82
 78 395 78 395 78 404 c 0,83,84
 87 476 87 476 150.5 510 c 128,-1,85
 214 544 214 544 306 544 c 1,86,87
 302 538 302 538 291 480.5 c 128,-1,88
 280 423 280 423 280 398 c 0,89,90
 280 277 280 277 364 207 c 128,-1,91
 448 137 448 137 570 137 c 0,92,93
 713 137 713 137 819 231 c 0,94,95
 941 337 941 337 959 532 c 0,96,97
 971 669 971 669 874 734 c 0,98,99
 844 755 844 755 772 775 c 1,100,-1
 404 775 l 1,101,-1
 467 874 l 1,102,-1
 754 874 l 1,103,104
 798 889 798 889 822 903 c 0,105,106
 977 989 977 989 1012 1161 c 0,107,108
 1015 1176 1015 1176 1015 1208 c 0,109,110
 1015 1321 1015 1321 928 1392.5 c 128,-1,111
 841 1464 841 1464 722 1464 c 0,112,113
 591 1464 591 1464 511 1423 c 0,114,115
 404 1369 404 1369 404 1260 c 0,116,117
 404 1219 404 1219 424.5 1194.5 c 128,-1,118
 445 1170 445 1170 489 1152 c 1,119,120
 465 1134 465 1134 448 1126 c 0,121,122
 401 1102 401 1102 371 1102 c 0,123,124
 299 1102 299 1102 250.5 1140.5 c 128,-1,125
 202 1179 202 1179 202 1260 c 0,126,127
 202 1394 202 1394 322 1463 c 128,-1,128
 442 1532 442 1532 620 1532 c 0,129,130
 851 1532 851 1532 1039 1438 c 128,-1,131
 1227 1344 1227 1344 1227 1198 c 0,62,63
2251 1407 m 1,132,-1
 1987 1407 l 1,133,-1
 1734 339 l 2,134,135
 1728 327 1728 327 1716.5 283.5 c 128,-1,136
 1705 240 1705 240 1705 193 c 256,137,138
 1705 146 1705 146 1716.5 119.5 c 128,-1,139
 1728 93 1728 93 1759.5 83.5 c 128,-1,140
 1791 74 1791 74 1800 74 c 0,141,142
 1862 74 1862 74 1933 140 c 0,143,144
 1955 161 1955 161 1993 205 c 1,145,-1
 2032 161 l 1,146,147
 2023 134 2023 134 1952 74 c 0,148,149
 1848 -9 1848 -9 1740 -9 c 0,150,151
 1678 -9 1678 -9 1634 9 c 0,152,153
 1556 36 1556 36 1526.5 100 c 128,-1,154
 1497 164 1497 164 1497 237 c 0,155,156
 1497 261 1497 261 1498.5 276.5 c 128,-1,157
 1500 292 1500 292 1503 309 c 2,158,-1
 1610 751 l 1,159,-1
 1224 751 l 1,160,-1
 1274 856 l 1,161,-1
 1640 856 l 1,162,-1
 1771 1407 l 1,163,-1
 1322 1407 l 1,164,-1
 1322 1497 l 1,165,-1
 2251 1497 l 1,166,-1
 2251 1407 l 1,132,-1
EndSplineSet
EndChar

StartChar: l.o
Encoding: 322 2323 66
Width: 3025
GlyphClass: 2
Flags: W
LayerCount: 2
Fore
SplineSet
2753 1485 m 1,0,-1
 2542 1485 l 1,1,2
 2542 1535 2542 1535 2399 1818 c 0,3,4
 2241 2136 2241 2136 2152 2136 c 0,5,6
 2099 2136 2099 2136 2037 2123 c 128,-1,7
 1975 2110 1975 2110 1938 2098 c 1,8,-1
 1912 2151 l 1,9,10
 1931 2157 1931 2157 2073 2186.5 c 128,-1,11
 2215 2216 2215 2216 2274 2216 c 0,12,13
 2396 2216 2396 2216 2586 1853 c 0,14,15
 2646 1731 2646 1731 2753 1485 c 1,0,-1
3026 1407 m 1,16,-1
 2761 1407 l 1,17,-1
 2509 339 l 2,18,19
 2506 330 2506 330 2495 282 c 128,-1,20
 2484 234 2484 234 2484 196 c 0,21,22
 2484 146 2484 146 2495 119.5 c 128,-1,23
 2506 93 2506 93 2537 83.5 c 128,-1,24
 2568 74 2568 74 2579 74 c 0,25,26
 2638 74 2638 74 2709 140 c 0,27,28
 2731 161 2731 161 2767 205 c 1,29,-1
 2811 161 l 1,30,31
 2805 146 2805 146 2764 106 c 0,32,33
 2646 -9 2646 -9 2516 -9 c 0,34,35
 2454 -9 2454 -9 2410 9 c 0,36,37
 2332 39 2332 39 2302.5 104 c 128,-1,38
 2273 169 2273 169 2273 240 c 0,39,40
 2273 261 2273 261 2274.5 276.5 c 128,-1,41
 2276 292 2276 292 2279 309 c 2,42,-1
 2550 1407 l 1,43,-1
 2220 1407 l 1,44,-1
 2220 1497 l 1,45,-1
 3026 1497 l 1,46,-1
 3026 1407 l 1,16,-1
1227 1198 m 0,47,48
 1227 1043 1227 1043 1143 956 c 0,49,50
 1087 900 1087 900 927 828 c 1,51,52
 1008 801 1008 801 1046 769 c 0,53,54
 1164 676 1164 676 1164 511 c 0,55,56
 1164 305 1164 305 993 181 c 0,57,58
 834 65 834 65 613 65 c 2,59,-1
 564 65 l 2,60,61
 546 68 546 68 535 68 c 0,62,63
 274 99 274 99 166 187 c 0,64,65
 76 258 76 258 74 374 c 1,66,67
 78 395 78 395 78 404 c 0,68,69
 87 476 87 476 150.5 510 c 128,-1,70
 214 544 214 544 306 544 c 1,71,72
 302 538 302 538 291 480.5 c 128,-1,73
 280 423 280 423 280 398 c 0,74,75
 280 277 280 277 364 207 c 128,-1,76
 448 137 448 137 570 137 c 0,77,78
 713 137 713 137 819 231 c 0,79,80
 941 337 941 337 959 532 c 0,81,82
 971 669 971 669 874 734 c 0,83,84
 844 755 844 755 772 775 c 1,85,-1
 404 775 l 1,86,-1
 467 874 l 1,87,-1
 754 874 l 1,88,89
 798 889 798 889 822 903 c 0,90,91
 977 989 977 989 1012 1161 c 0,92,93
 1015 1176 1015 1176 1015 1208 c 0,94,95
 1015 1321 1015 1321 928 1392.5 c 128,-1,96
 841 1464 841 1464 722 1464 c 0,97,98
 591 1464 591 1464 511 1423 c 0,99,100
 404 1369 404 1369 404 1260 c 0,101,102
 404 1219 404 1219 424.5 1194.5 c 128,-1,103
 445 1170 445 1170 489 1152 c 1,104,105
 465 1134 465 1134 448 1126 c 0,106,107
 401 1102 401 1102 371 1102 c 0,108,109
 299 1102 299 1102 250.5 1140.5 c 128,-1,110
 202 1179 202 1179 202 1260 c 0,111,112
 202 1394 202 1394 322 1463 c 128,-1,113
 442 1532 442 1532 620 1532 c 0,114,115
 851 1532 851 1532 1039 1438 c 128,-1,116
 1227 1344 1227 1344 1227 1198 c 0,47,48
2251 1407 m 1,117,-1
 1987 1407 l 1,118,-1
 1734 339 l 2,119,120
 1728 327 1728 327 1716.5 283.5 c 128,-1,121
 1705 240 1705 240 1705 193 c 256,122,123
 1705 146 1705 146 1716.5 119.5 c 128,-1,124
 1728 93 1728 93 1759.5 83.5 c 128,-1,125
 1791 74 1791 74 1800 74 c 0,126,127
 1862 74 1862 74 1933 140 c 0,128,129
 1955 161 1955 161 1993 205 c 1,130,-1
 2032 161 l 1,131,132
 2023 134 2023 134 1952 74 c 0,133,134
 1848 -9 1848 -9 1740 -9 c 0,135,136
 1678 -9 1678 -9 1634 9 c 0,137,138
 1556 36 1556 36 1526.5 100 c 128,-1,139
 1497 164 1497 164 1497 237 c 0,140,141
 1497 261 1497 261 1498.5 276.5 c 128,-1,142
 1500 292 1500 292 1503 309 c 2,143,-1
 1610 751 l 1,144,-1
 1224 751 l 1,145,-1
 1274 856 l 1,146,-1
 1640 856 l 1,147,-1
 1771 1407 l 1,148,-1
 1322 1407 l 1,149,-1
 1322 1497 l 1,150,-1
 2251 1497 l 1,151,-1
 2251 1407 l 1,117,-1
EndSplineSet
EndChar

StartChar: l.au
Encoding: 323 2324 67
Width: 3025
GlyphClass: 2
Flags: W
LayerCount: 2
Fore
SplineSet
2948 1497 m 1,0,-1
 2767 1497 l 1,1,2
 2776 1532 2776 1532 2579 1839 c 0,3,4
 2367 2169 2367 2169 2314 2177.5 c 128,-1,5
 2261 2186 2261 2186 2239 2186 c 128,-1,6
 2217 2186 2217 2186 2205 2186 c 0,7,8
 2152 2186 2152 2186 2125 2181.5 c 128,-1,9
 2098 2177 2098 2177 2092 2177 c 1,10,-1
 2127 2228 l 2,11,12
 2133 2231 2133 2231 2176.5 2236.5 c 128,-1,13
 2220 2242 2220 2242 2258 2242 c 0,14,15
 2288 2242 2288 2242 2308.5 2242 c 128,-1,16
 2329 2242 2329 2242 2392 2228 c 1,17,18
 2488 2216 2488 2216 2728 1856 c 0,19,20
 2805 1737 2805 1737 2948 1497 c 1,0,-1
2478 1497 m 1,21,-1
 2320 1497 l 1,22,23
 2317 1528 2317 1528 2158 1690 c 0,24,25
 1989 1865 1989 1865 1921 1865 c 0,26,27
 1870 1865 1870 1865 1816 1853 c 0,28,29
 1797 1850 1797 1850 1738 1830 c 1,30,-1
 1750 1883 l 1,31,32
 1775 1895 1775 1895 1849 1918 c 0,33,34
 1956 1949 1956 1949 2021 1949 c 0,35,36
 2098 1949 2098 1949 2294 1725 c 0,37,38
 2360 1649 2360 1649 2478 1497 c 1,21,-1
3026 1407 m 1,39,-1
 2761 1407 l 1,40,-1
 2509 339 l 2,41,42
 2506 330 2506 330 2495 282 c 128,-1,43
 2484 234 2484 234 2484 196 c 0,44,45
 2484 146 2484 146 2495 119.5 c 128,-1,46
 2506 93 2506 93 2537 83.5 c 128,-1,47
 2568 74 2568 74 2579 74 c 0,48,49
 2638 74 2638 74 2709 140 c 0,50,51
 2731 161 2731 161 2767 205 c 1,52,-1
 2811 161 l 1,53,54
 2805 146 2805 146 2764 106 c 0,55,56
 2646 -9 2646 -9 2516 -9 c 0,57,58
 2454 -9 2454 -9 2410 9 c 0,59,60
 2332 39 2332 39 2302.5 104 c 128,-1,61
 2273 169 2273 169 2273 240 c 0,62,63
 2273 261 2273 261 2274.5 276.5 c 128,-1,64
 2276 292 2276 292 2279 309 c 2,65,-1
 2550 1407 l 1,66,-1
 2220 1407 l 1,67,-1
 2220 1497 l 1,68,-1
 3026 1497 l 1,69,-1
 3026 1407 l 1,39,-1
1227 1198 m 0,70,71
 1227 1043 1227 1043 1143 956 c 0,72,73
 1087 900 1087 900 927 828 c 1,74,75
 1008 801 1008 801 1046 769 c 0,76,77
 1164 676 1164 676 1164 511 c 0,78,79
 1164 305 1164 305 993 181 c 0,80,81
 834 65 834 65 613 65 c 2,82,-1
 564 65 l 2,83,84
 546 68 546 68 535 68 c 0,85,86
 274 99 274 99 166 187 c 0,87,88
 76 258 76 258 74 374 c 1,89,90
 78 395 78 395 78 404 c 0,91,92
 87 476 87 476 150.5 510 c 128,-1,93
 214 544 214 544 306 544 c 1,94,95
 302 538 302 538 291 480.5 c 128,-1,96
 280 423 280 423 280 398 c 0,97,98
 280 277 280 277 364 207 c 128,-1,99
 448 137 448 137 570 137 c 0,100,101
 713 137 713 137 819 231 c 0,102,103
 941 337 941 337 959 532 c 0,104,105
 971 669 971 669 874 734 c 0,106,107
 844 755 844 755 772 775 c 1,108,-1
 404 775 l 1,109,-1
 467 874 l 1,110,-1
 754 874 l 1,111,112
 798 889 798 889 822 903 c 0,113,114
 977 989 977 989 1012 1161 c 0,115,116
 1015 1176 1015 1176 1015 1208 c 0,117,118
 1015 1321 1015 1321 928 1392.5 c 128,-1,119
 841 1464 841 1464 722 1464 c 0,120,121
 591 1464 591 1464 511 1423 c 0,122,123
 404 1369 404 1369 404 1260 c 0,124,125
 404 1219 404 1219 424.5 1194.5 c 128,-1,126
 445 1170 445 1170 489 1152 c 1,127,128
 465 1134 465 1134 448 1126 c 0,129,130
 401 1102 401 1102 371 1102 c 0,131,132
 299 1102 299 1102 250.5 1140.5 c 128,-1,133
 202 1179 202 1179 202 1260 c 0,134,135
 202 1394 202 1394 322 1463 c 128,-1,136
 442 1532 442 1532 620 1532 c 0,137,138
 851 1532 851 1532 1039 1438 c 128,-1,139
 1227 1344 1227 1344 1227 1198 c 0,70,71
2251 1407 m 1,140,-1
 1987 1407 l 1,141,-1
 1734 339 l 2,142,143
 1728 327 1728 327 1716.5 283.5 c 128,-1,144
 1705 240 1705 240 1705 193 c 256,145,146
 1705 146 1705 146 1716.5 119.5 c 128,-1,147
 1728 93 1728 93 1759.5 83.5 c 128,-1,148
 1791 74 1791 74 1800 74 c 0,149,150
 1862 74 1862 74 1933 140 c 0,151,152
 1955 161 1955 161 1993 205 c 1,153,-1
 2032 161 l 1,154,155
 2023 134 2023 134 1952 74 c 0,156,157
 1848 -9 1848 -9 1740 -9 c 0,158,159
 1678 -9 1678 -9 1634 9 c 0,160,161
 1556 36 1556 36 1526.5 100 c 128,-1,162
 1497 164 1497 164 1497 237 c 0,163,164
 1497 261 1497 261 1498.5 276.5 c 128,-1,165
 1500 292 1500 292 1503 309 c 2,166,-1
 1610 751 l 1,167,-1
 1224 751 l 1,168,-1
 1274 856 l 1,169,-1
 1640 856 l 1,170,-1
 1771 1407 l 1,171,-1
 1322 1407 l 1,172,-1
 1322 1497 l 1,173,-1
 2251 1497 l 1,174,-1
 2251 1407 l 1,140,-1
EndSplineSet
EndChar

StartChar: l.ka
Encoding: 324 2325 68
Width: 2159
GlyphClass: 2
Flags: W
LayerCount: 2
Fore
SplineSet
2160 1407 m 1,0,-1
 1271 1407 l 1,1,-1
 1195 1096 l 1,2,3
 1236 1114 1236 1114 1280 1129 c 0,4,5
 1376 1160 1376 1160 1464 1161 c 0,6,7
 1678 1161 1678 1161 1831 1060 c 128,-1,8
 1984 959 1984 959 1984 784 c 0,9,10
 1981 757 1981 757 1981 743 c 0,11,12
 1962 535 1962 535 1797 430 c 0,13,14
 1663 343 1663 343 1473 342 c 2,15,-1
 1435 342 l 2,16,17
 1414 342 1414 342 1368 349.5 c 128,-1,18
 1322 357 1322 357 1268 379 c 128,-1,19
 1214 401 1214 401 1195 413 c 1,20,-1
 1221 479 l 1,21,22
 1227 476 1227 476 1260 461 c 0,23,24
 1338 426 1338 426 1388 427 c 0,25,26
 1543 427 1543 427 1643 505 c 0,27,28
 1759 594 1759 594 1759 757 c 0,29,30
 1759 903 1759 903 1678 983 c 0,31,32
 1588 1073 1588 1073 1411 1075 c 0,33,34
 1339 1075 1339 1075 1257 1046 c 0,35,36
 1198 1027 1198 1027 1176 1009 c 1,37,-1
 1012 339 l 2,38,39
 1006 327 1006 327 994.5 282 c 128,-1,40
 983 237 983 237 983 190 c 256,41,42
 983 143 983 143 994.5 118 c 128,-1,43
 1006 93 1006 93 1035 83.5 c 128,-1,44
 1064 74 1064 74 1075 74 c 0,45,46
 1146 74 1146 74 1233 161 c 0,47,48
 1245 173 1245 173 1271 205 c 1,49,-1
 1310 161 l 1,50,51
 1304 146 1304 146 1263 106 c 0,52,53
 1145 -9 1145 -9 1015 -9 c 0,54,55
 953 -9 953 -9 909 9 c 0,56,57
 831 36 831 36 801.5 100 c 128,-1,58
 772 164 772 164 772 237 c 0,59,60
 772 261 772 261 773.5 276.5 c 128,-1,61
 775 292 775 292 778 309 c 2,62,-1
 800 404 l 1,63,64
 737 380 737 380 701 371 c 0,65,66
 576 333 576 333 496 333 c 0,67,68
 309 333 309 333 187 410 c 0,69,70
 38 506 38 506 38 701 c 0,71,72
 38 742 38 742 41 763 c 0,73,74
 65 959 65 959 211 1064 c 0,75,76
 342 1157 342 1157 535 1158 c 0,77,78
 556 1158 556 1158 582 1158 c 1,79,80
 613 1152 613 1152 660 1147.5 c 128,-1,81
 707 1143 707 1143 763 1119.5 c 128,-1,82
 819 1096 819 1096 825 1093 c 1,83,-1
 787 1021 l 1,84,85
 772 1031 772 1031 760 1040 c 0,86,87
 698 1075 698 1075 641 1075 c 0,88,89
 489 1075 489 1075 378.5 973 c 128,-1,90
 268 871 268 871 268 725 c 0,91,92
 268 588 268 588 344 497.5 c 128,-1,93
 420 407 420 407 555 407 c 0,94,95
 638 407 638 407 728 451 c 0,96,97
 796 482 796 482 825 517 c 1,98,-1
 1046 1407 l 1,99,-1
 0 1407 l 1,100,-1
 0 1497 l 1,101,-1
 2160 1497 l 1,102,-1
 2160 1407 l 1,0,-1
EndSplineSet
EndChar

StartChar: l.kh
Encoding: 325 2326 69
Width: 2658
GlyphClass: 2
Flags: W
LayerCount: 2
Fore
SplineSet
2658 1497 m 1,0,-1
 2658 1407 l 1,1,-1
 2394 1407 l 1,2,-1
 2142 339 l 2,3,4
 2139 330 2139 330 2128 282 c 128,-1,5
 2117 234 2117 234 2117 196 c 0,6,7
 2117 146 2117 146 2128 119.5 c 128,-1,8
 2139 93 2139 93 2170 83.5 c 128,-1,9
 2201 74 2201 74 2210 74 c 0,10,11
 2269 74 2269 74 2341 140 c 0,12,13
 2362 161 2362 161 2400 205 c 1,14,-1
 2444 161 l 1,15,16
 2438 146 2438 146 2397 106 c 0,17,18
 2278 -9 2278 -9 2148 -9 c 0,19,20
 2085 -9 2085 -9 2041 9 c 0,21,22
 1964 39 1964 39 1934.5 104 c 128,-1,23
 1905 169 1905 169 1905 240 c 0,24,25
 1905 261 1905 261 1906.5 276.5 c 128,-1,26
 1908 292 1908 292 1911 309 c 2,27,-1
 2183 1407 l 1,28,-1
 879 1407 l 1,29,30
 917 1360 917 1360 930 1328 c 0,31,32
 983 1228 983 1228 983 1123 c 0,33,34
 983 1105 983 1105 983 1087 c 1,35,36
 977 1062 977 1062 977 1049 c 0,37,38
 942 844 942 844 710 737 c 0,39,40
 632 702 632 702 482 672 c 1,41,42
 500 622 500 622 517.5 569.5 c 128,-1,43
 535 517 535 517 544 473 c 0,44,45
 582 312 582 312 632 223 c 0,46,47
 713 77 713 77 844 62 c 0,48,49
 859 59 859 59 891 59 c 0,50,51
 1059 59 1059 59 1202 208 c 0,52,53
 1312 321 1312 321 1316 380 c 1,54,55
 1278 421 1278 421 1263 454 c 0,56,57
 1210 561 1210 561 1211 704 c 0,58,59
 1211 906 1211 906 1363 1042.5 c 128,-1,60
 1515 1179 1515 1179 1728 1179 c 0,61,62
 1853 1179 1853 1179 1949 1149 c 0,63,64
 1979 1140 1979 1140 2023 1114 c 1,65,-1
 1993 1015 l 1,66,67
 1974 1034 1974 1034 1940 1052 c 0,68,69
 1877 1087 1877 1087 1809 1087 c 0,70,71
 1640 1087 1640 1087 1540.5 970 c 128,-1,72
 1441 853 1441 853 1441 685 c 0,73,74
 1441 527 1441 527 1530 437.5 c 128,-1,75
 1619 348 1619 348 1759 348 c 0,76,77
 1830 348 1830 348 1874 407 c 1,78,79
 1892 438 1892 438 1911 473 c 1,80,-1
 1911 348 l 1,81,82
 1873 310 1873 310 1836 274 c 1,83,84
 1777 239 1777 239 1699 240 c 0,85,86
 1596 240 1596 240 1512 264 c 0,87,88
 1474 277 1474 277 1429 299 c 1,89,90
 1328 147 1328 147 1316 137 c 0,91,92
 1155 -15 1155 -15 879 -15 c 0,93,94
 851 -15 851 -15 822 -15 c 0,95,96
 778 -9 778 -9 757 -9 c 0,97,98
 549 12 549 12 436 196 c 0,99,100
 380 289 380 289 237 685 c 0,101,102
 210 763 210 763 161 806 c 1,103,104
 111 833 111 833 65 862 c 1,105,106
 106 877 106 877 131 885 c 0,107,108
 205 906 205 906 255 906 c 0,109,110
 342 906 342 906 398 831 c 0,111,112
 420 801 420 801 442 737 c 1,113,114
 573 781 573 781 606 803 c 0,115,116
 768 906 768 906 769 1102 c 0,117,118
 769 1221 769 1221 713 1325 c 0,119,120
 695 1360 695 1360 657 1407 c 1,121,-1
 0 1407 l 1,122,-1
 0 1497 l 1,123,-1
 2658 1497 l 1,0,-1
EndSplineSet
EndChar

StartChar: l.ga
Encoding: 326 2327 70
Width: 2035
GlyphClass: 2
Flags: W
LayerCount: 2
Fore
SplineSet
2035 1497 m 1,0,-1
 2035 1407 l 1,1,-1
 1771 1407 l 1,2,-1
 1518 339 l 2,3,4
 1515 330 1515 330 1504.5 282 c 128,-1,5
 1494 234 1494 234 1494 196 c 0,6,7
 1494 146 1494 146 1504.5 119.5 c 128,-1,8
 1515 93 1515 93 1546.5 83.5 c 128,-1,9
 1578 74 1578 74 1587 74 c 0,10,11
 1646 74 1646 74 1718 140 c 0,12,13
 1739 161 1739 161 1777 205 c 1,14,-1
 1821 161 l 1,15,16
 1815 146 1815 146 1774 106 c 0,17,18
 1655 -9 1655 -9 1526 -9 c 0,19,20
 1464 -9 1464 -9 1420 9 c 0,21,22
 1342 39 1342 39 1312.5 104 c 128,-1,23
 1283 169 1283 169 1283 240 c 0,24,25
 1283 261 1283 261 1284.5 276.5 c 128,-1,26
 1286 292 1286 292 1289 309 c 2,27,-1
 1560 1407 l 1,28,-1
 953 1407 l 1,29,30
 1009 1324 1009 1324 1037 1266 c 0,31,32
 1123 1085 1123 1085 1123 915 c 2,33,-1
 1123 877 l 2,34,35
 1123 859 1123 859 1117 816 c 0,36,37
 1090 611 1090 611 932.5 491 c 128,-1,38
 775 371 775 371 544 371 c 0,39,40
 500 371 500 371 476 374 c 0,41,42
 307 389 307 389 196 467 c 0,43,44
 65 556 65 556 65 692 c 2,45,-1
 65 719 l 1,46,47
 84 874 84 874 183.5 955.5 c 128,-1,48
 283 1037 283 1037 424 1037 c 0,49,50
 468 1037 468 1037 514.5 1027.5 c 128,-1,51
 561 1018 561 1018 629 989 c 0,52,53
 651 980 651 980 695 962 c 1,54,-1
 663 882 l 1,55,56
 638 897 638 897 623 903 c 0,57,58
 576 924 576 924 541 924 c 0,59,60
 432 924 432 924 360.5 858.5 c 128,-1,61
 289 793 289 793 289 692 c 0,62,63
 289 585 289 585 356.5 523 c 128,-1,64
 424 461 424 461 535 451 c 1,65,66
 704 451 704 451 803.5 576 c 128,-1,67
 903 701 903 701 903 874 c 2,68,-1
 903 909 l 2,69,70
 903 1043 903 1043 819 1239 c 0,71,72
 792 1301 792 1301 734 1407 c 1,73,-1
 0 1407 l 1,74,-1
 0 1497 l 1,75,-1
 2035 1497 l 1,0,-1
EndSplineSet
EndChar

StartChar: l.gha
Encoding: 327 2328 71
Width: 1725
GlyphClass: 2
Flags: W
LayerCount: 2
Fore
SplineSet
1725 1497 m 1,0,-1
 1725 1407 l 1,1,-1
 1461 1407 l 1,2,-1
 1208 339 l 2,3,4
 1205 330 1205 330 1194 282 c 128,-1,5
 1183 234 1183 234 1183 196 c 0,6,7
 1183 146 1183 146 1194 119.5 c 128,-1,8
 1205 93 1205 93 1236.5 83.5 c 128,-1,9
 1268 74 1268 74 1277 74 c 0,10,11
 1336 74 1336 74 1408 140 c 0,12,13
 1429 161 1429 161 1467 205 c 1,14,-1
 1509 161 l 1,15,16
 1503 146 1503 146 1464 106 c 0,17,18
 1345 -9 1345 -9 1214 -9 c 0,19,20
 1152 -9 1152 -9 1108 9 c 0,21,22
 1031 39 1031 39 1001 104 c 128,-1,23
 971 169 971 169 971 240 c 0,24,25
 971 261 971 261 972.5 276.5 c 128,-1,26
 974 292 974 292 977 309 c 2,27,-1
 1248 1407 l 1,28,-1
 648 1407 l 1,29,30
 555 1398 555 1398 494 1334.5 c 128,-1,31
 433 1271 433 1271 433 1183 c 0,32,33
 436 1161 436 1161 436 1152 c 0,34,35
 448 1052 448 1052 529 994 c 128,-1,36
 610 936 610 936 716 936 c 2,37,-1
 885 936 l 1,38,-1
 853 844 l 1,39,-1
 722 844 l 2,40,41
 585 844 585 844 482 781 c 0,42,43
 357 707 357 707 359 576 c 0,44,45
 359 457 359 457 445.5 402.5 c 128,-1,46
 532 348 532 348 695 348 c 1,47,48
 819 360 819 360 906 404 c 0,49,50
 950 426 950 426 977 454 c 1,51,-1
 977 309 l 1,52,53
 900 264 900 264 821.5 242 c 128,-1,54
 743 220 743 220 648 220 c 0,55,56
 427 220 427 220 286 299 c 0,57,58
 125 389 125 389 125 558 c 0,59,60
 125 716 125 716 243 809 c 0,61,62
 374 912 374 912 514 912 c 1,63,64
 421 933 421 933 374 956 c 0,65,66
 231 1027 231 1027 217 1155 c 1,67,68
 217 1333 217 1333 365 1407 c 1,69,-1
 0 1407 l 1,70,-1
 0 1497 l 1,71,-1
 1725 1497 l 1,0,-1
EndSplineSet
EndChar

StartChar: l.nga
Encoding: 328 2329 72
Width: 2017
GlyphClass: 2
Flags: W
LayerCount: 2
Fore
SplineSet
1753 980 m 1,0,-1
 1675 740 l 1,1,-1
 1420 740 l 1,2,-1
 1494 980 l 1,3,-1
 1753 980 l 1,0,-1
2017 1407 m 1,4,-1
 1382 1407 l 1,5,-1
 1286 1002 l 1,6,-1
 1137 1002 l 1,7,8
 1087 1040 1087 1040 1010 1071 c 128,-1,9
 933 1102 933 1102 853 1102 c 0,10,11
 722 1102 722 1102 621 1057 c 128,-1,12
 520 1012 520 1012 520 906 c 0,13,14
 520 781 520 781 669 734 c 0,15,16
 769 704 769 704 965 704 c 0,17,18
 1208 704 1208 704 1324.5 613.5 c 128,-1,19
 1441 523 1441 523 1441 348 c 0,20,21
 1441 111 1441 111 1173 33 c 0,22,23
 1005 -17 1005 -17 648 -15 c 0,24,25
 430 -15 430 -15 277 41 c 0,26,27
 68 119 68 119 68 271 c 0,28,29
 68 295 68 295 71 309 c 0,30,31
 87 412 87 412 141.5 447 c 128,-1,32
 196 482 196 482 274 482 c 0,33,34
 304 482 304 482 331.5 477.5 c 128,-1,35
 359 473 359 473 377 470 c 1,36,37
 347 442 347 442 333 423 c 0,38,39
 289 363 289 363 289 299 c 0,40,41
 289 184 289 184 392.5 117 c 128,-1,42
 496 50 496 50 716 50 c 0,43,44
 912 50 912 50 1049 115 c 0,45,46
 1214 193 1214 193 1214 339 c 0,47,48
 1214 488 1214 488 1130 557 c 128,-1,49
 1046 626 1046 626 825 626 c 0,50,51
 526 626 526 626 389 713 c 0,52,53
 280 784 280 784 280 912 c 0,54,55
 280 1058 280 1058 398.5 1129.5 c 128,-1,56
 517 1201 517 1201 704 1201 c 0,57,58
 763 1201 763 1201 833 1193.5 c 128,-1,59
 903 1186 903 1186 1006 1161 c 0,60,61
 1044 1152 1044 1152 1099 1132 c 1,62,-1
 1164 1407 l 1,63,-1
 0 1407 l 1,64,-1
 0 1497 l 1,65,-1
 2017 1497 l 1,66,-1
 2017 1407 l 1,4,-1
EndSplineSet
EndChar

StartChar: l.ca
Encoding: 329 2330 73
Width: 1910
GlyphClass: 2
Flags: W
LayerCount: 2
Fore
SplineSet
1245 582 m 2,0,-1
 1195 368 l 1,1,2
 1111 327 1111 327 1058 309 c 0,3,4
 883 246 883 246 740 246 c 0,5,6
 529 246 529 246 383 336 c 0,7,8
 222 436 222 436 220 603 c 0,9,10
 223 625 223 625 223 638 c 0,11,12
 242 819 242 819 413 939 c 0,13,14
 470 980 470 980 585 1027 c 1,15,-1
 30 1027 l 1,16,-1
 100 1140 l 1,17,-1
 1105 1140 l 1,18,-1
 1052 1027 l 1,19,-1
 847 1027 l 1,20,21
 728 971 728 971 669 927 c 0,22,23
 488 796 488 796 467 651 c 0,24,25
 464 632 464 632 464 594 c 0,26,27
 464 470 464 470 552.5 404.5 c 128,-1,28
 641 339 641 339 772 339 c 0,29,30
 927 339 927 339 1096 451 c 0,31,32
 1233 541 1233 541 1245 582 c 2,0,-1
1911 1497 m 1,33,-1
 1911 1407 l 1,34,-1
 1646 1407 l 1,35,-1
 1395 339 l 2,36,37
 1392 330 1392 330 1381 282 c 128,-1,38
 1370 234 1370 234 1370 196 c 0,39,40
 1370 146 1370 146 1380.5 119.5 c 128,-1,41
 1391 93 1391 93 1422 83.5 c 128,-1,42
 1453 74 1453 74 1464 74 c 0,43,44
 1523 74 1523 74 1594 140 c 0,45,46
 1616 161 1616 161 1652 205 c 1,47,-1
 1696 161 l 1,48,49
 1690 146 1690 146 1649 106 c 0,50,51
 1531 -9 1531 -9 1401 -9 c 0,52,53
 1339 -9 1339 -9 1295 9 c 0,54,55
 1218 39 1218 39 1188 104 c 128,-1,56
 1158 169 1158 169 1158 240 c 0,57,58
 1158 261 1158 261 1159.5 276.5 c 128,-1,59
 1161 292 1161 292 1164 309 c 2,60,-1
 1435 1407 l 1,61,-1
 0 1407 l 1,62,-1
 0 1497 l 1,63,-1
 1911 1497 l 1,33,-1
EndSplineSet
EndChar

StartChar: l.cha
Encoding: 330 2331 74
Width: 2032
GlyphClass: 2
Flags: W
LayerCount: 2
Fore
SplineSet
2032 1407 m 1,0,-1
 1640 1407 l 1,1,-1
 1598 1155 l 1,2,3
 1675 1117 1675 1117 1712 1081 c 0,4,5
 1827 965 1827 965 1827 757 c 0,6,7
 1827 398 1827 398 1482 211 c 0,8,9
 1196 56 1196 56 766 56 c 0,10,11
 514 56 514 56 336 134 c 0,12,13
 125 226 125 226 100 407 c 0,14,15
 97 432 97 432 96 445 c 0,16,17
 96 579 96 579 191 686 c 128,-1,18
 286 793 286 793 436 828 c 1,19,20
 336 841 336 841 266 897 c 128,-1,21
 196 953 196 953 196 1037 c 0,22,23
 196 1192 196 1192 348 1313 c 0,24,25
 473 1417 473 1417 514 1407 c 1,26,-1
 0 1407 l 1,27,-1
 0 1497 l 1,28,-1
 2032 1497 l 1,29,-1
 2032 1407 l 1,0,-1
1604 757 m 0,30,31
 1604 926 1604 926 1578 996 c 0,32,33
 1540 1102 1540 1102 1441 1102 c 0,34,35
 1360 1102 1360 1102 1302.5 1026 c 128,-1,36
 1245 950 1245 950 1245 834 c 0,37,38
 1245 775 1245 775 1307 728 c 0,39,40
 1325 713 1325 713 1370 692 c 1,41,42
 1354 676 1354 676 1308.5 661.5 c 128,-1,43
 1263 647 1263 647 1233 651 c 0,44,45
 1155 657 1155 657 1103.5 710 c 128,-1,46
 1052 763 1052 763 1052 862 c 0,47,48
 1052 1005 1052 1005 1155 1090 c 0,49,50
 1289 1199 1289 1199 1388 1173 c 1,51,-1
 1435 1407 l 1,52,-1
 740 1407 l 1,53,54
 699 1420 699 1420 576 1348 c 0,55,56
 418 1255 418 1255 416 1102 c 0,57,58
 416 1009 416 1009 491.5 945.5 c 128,-1,59
 567 882 567 882 648 882 c 2,60,-1
 879 882 l 1,61,-1
 838 775 l 1,62,-1
 722 775 l 1,63,64
 585 748 585 748 520 716 c 0,65,66
 318 620 318 620 318 433 c 0,67,68
 318 287 318 287 461 199 c 0,69,70
 591 122 591 122 766 122 c 0,71,72
 1093 122 1093 122 1316 255 c 0,73,74
 1604 427 1604 427 1604 757 c 0,30,31
EndSplineSet
EndChar

StartChar: l.ja
Encoding: 331 2332 75
Width: 2035
GlyphClass: 2
Flags: W
LayerCount: 2
Fore
SplineSet
1420 1081 m 1,0,-1
 1420 983 l 1,1,-1
 1072 983 l 1,2,3
 1119 936 1119 936 1144.5 876 c 128,-1,4
 1170 816 1170 816 1170 731 c 0,5,6
 1170 678 1170 678 1164 651 c 0,7,8
 1129 430 1129 430 959 324 c 0,9,10
 825 243 825 243 629 243 c 0,11,12
 567 243 567 243 514 252 c 0,13,14
 315 277 315 277 208 362 c 0,15,16
 81 462 81 462 81 647 c 0,17,18
 81 689 81 689 87 755.5 c 128,-1,19
 93 822 93 822 155 921 c 0,20,21
 185 971 185 971 223 1009 c 1,22,-1
 461 1009 l 1,23,24
 423 979 423 979 365 850 c 0,25,26
 318 749 318 749 310 698 c 128,-1,27
 302 647 302 647 302 609 c 0,28,29
 302 503 302 503 363 421 c 128,-1,30
 424 339 424 339 526 327 c 0,31,32
 547 324 547 324 585 324 c 0,33,34
 740 324 740 324 843.5 423.5 c 128,-1,35
 947 523 947 523 947 692 c 0,36,37
 947 813 947 813 885 909 c 0,38,39
 866 939 866 939 819 983 c 1,40,-1
 701 983 l 1,41,-1
 734 1081 l 1,42,-1
 1420 1081 l 1,0,-1
2035 1497 m 1,43,-1
 2035 1407 l 1,44,-1
 1771 1407 l 1,45,-1
 1518 339 l 2,46,47
 1515 330 1515 330 1504.5 282 c 128,-1,48
 1494 234 1494 234 1494 196 c 0,49,50
 1494 146 1494 146 1504.5 119.5 c 128,-1,51
 1515 93 1515 93 1546.5 83.5 c 128,-1,52
 1578 74 1578 74 1587 74 c 0,53,54
 1646 74 1646 74 1718 140 c 0,55,56
 1739 161 1739 161 1777 205 c 1,57,-1
 1821 161 l 1,58,59
 1815 146 1815 146 1774 106 c 0,60,61
 1655 -9 1655 -9 1526 -9 c 0,62,63
 1464 -9 1464 -9 1420 9 c 0,64,65
 1342 39 1342 39 1312.5 104 c 128,-1,66
 1283 169 1283 169 1283 240 c 0,67,68
 1283 261 1283 261 1284.5 276.5 c 128,-1,69
 1286 292 1286 292 1289 309 c 2,70,-1
 1560 1407 l 1,71,-1
 0 1407 l 1,72,-1
 0 1497 l 1,73,-1
 2035 1497 l 1,43,-1
EndSplineSet
EndChar

StartChar: l.jha
Encoding: 332 2333 76
Width: 2082
GlyphClass: 2
Flags: W
LayerCount: 2
Fore
SplineSet
1467 822 m 1,0,-1
 1467 716 l 1,1,-1
 1214 716 l 1,2,-1
 1251 822 l 1,3,-1
 1467 822 l 1,0,-1
2082 1497 m 1,4,-1
 2082 1407 l 1,5,-1
 1818 1407 l 1,6,-1
 1566 339 l 2,7,8
 1563 330 1563 330 1552 282 c 128,-1,9
 1541 234 1541 234 1541 196 c 0,10,11
 1541 146 1541 146 1552 119.5 c 128,-1,12
 1563 93 1563 93 1594 83.5 c 128,-1,13
 1625 74 1625 74 1634 74 c 0,14,15
 1693 74 1693 74 1765 140 c 0,16,17
 1786 161 1786 161 1824 205 c 1,18,-1
 1868 161 l 1,19,20
 1862 146 1862 146 1821 106 c 0,21,22
 1702 -9 1702 -9 1572 -9 c 0,23,24
 1509 -9 1509 -9 1467 9 c 0,25,26
 1389 39 1389 39 1358.5 104 c 128,-1,27
 1328 169 1328 169 1328 240 c 0,28,29
 1328 261 1328 261 1330.5 276.5 c 128,-1,30
 1333 292 1333 292 1336 309 c 2,31,-1
 1607 1407 l 1,32,-1
 1123 1407 l 1,33,-1
 1058 1114 l 1,34,-1
 713 1114 l 2,35,36
 585 1114 585 1114 520 1093 c 0,37,38
 420 1058 420 1058 410 971 c 1,39,40
 410 891 410 891 499 856 c 0,41,42
 564 831 564 831 695 831 c 0,43,44
 739 831 739 831 780.5 831 c 128,-1,45
 822 831 822 831 865 834 c 0,46,47
 1046 834 1046 834 1132 763 c 128,-1,48
 1218 692 1218 692 1218 573 c 0,49,50
 1218 546 1218 546 1214 529 c 0,51,52
 1199 363 1199 363 1043 277 c 0,53,54
 909 202 909 202 728 202 c 0,55,56
 687 202 687 202 669 205 c 2,57,-1
 482 220 l 1,58,59
 473 211 473 211 456 163 c 128,-1,60
 439 115 439 115 439 68 c 0,61,62
 439 15 439 15 467 -21 c 0,63,64
 502 -59 502 -59 573 -59 c 0,65,66
 626 -59 626 -59 683 -41.5 c 128,-1,67
 740 -24 740 -24 748 -15 c 1,68,-1
 728 -97 l 1,69,70
 722 -103 722 -103 641.5 -121.5 c 128,-1,71
 561 -140 561 -140 492 -140 c 0,72,73
 430 -140 430 -140 377 -122 c 0,74,75
 302 -94 302 -94 269.5 -45.5 c 128,-1,76
 237 3 237 3 237 68 c 0,77,78
 237 109 237 109 249 152.5 c 128,-1,79
 261 196 261 196 280 240 c 1,80,81
 211 264 211 264 181 283 c 0,82,83
 78 342 78 342 71 407 c 1,84,85
 71 491 71 491 136.5 539.5 c 128,-1,86
 202 588 202 588 293 588 c 0,87,88
 365 588 365 588 417.5 558.5 c 128,-1,89
 470 529 470 529 496 464 c 0,90,91
 505 436 505 436 505 398 c 0,92,93
 505 368 505 368 500.5 341.5 c 128,-1,94
 496 315 496 315 489 299 c 1,95,-1
 585 292 l 2,96,97
 641 286 641 286 666 286 c 0,98,99
 812 286 812 286 909 348 c 0,100,101
 1018 419 1018 419 1018 544 c 0,102,103
 1018 651 1018 651 943 705.5 c 128,-1,104
 868 760 868 760 740 760 c 0,105,106
 710 757 710 757 695 757 c 0,107,108
 657 754 657 754 630 752.5 c 128,-1,109
 603 751 603 751 585 751 c 0,110,111
 416 751 416 751 318 796 c 0,112,113
 190 856 190 856 190 983 c 0,114,115
 190 1120 190 1120 336 1183 c 0,116,117
 383 1201 383 1201 482 1217 c 1,118,-1
 865 1217 l 1,119,-1
 909 1407 l 1,120,-1
 0 1407 l 1,121,-1
 0 1497 l 1,122,-1
 2082 1497 l 1,4,-1
EndSplineSet
EndChar

StartChar: l.nya
Encoding: 333 2334 77
Width: 1927
GlyphClass: 2
Flags: W
LayerCount: 2
Fore
SplineSet
1310 769 m 1,0,-1
 1310 660 l 1,1,-1
 1093 660 l 1,2,3
 1009 461 1009 461 859.5 373.5 c 128,-1,4
 710 286 710 286 454 286 c 0,5,6
 271 286 271 286 144.5 359.5 c 128,-1,7
 18 433 18 433 18 544 c 0,8,9
 18 654 18 654 83.5 704 c 128,-1,10
 149 754 149 754 249 754 c 0,11,12
 293 754 293 754 330 743 c 1,13,14
 318 731 318 731 289.5 681.5 c 128,-1,15
 261 632 261 632 261 597 c 0,16,17
 258 573 258 573 258 561 c 0,18,19
 258 471 258 471 306 419.5 c 128,-1,20
 354 368 354 368 461 368 c 1,21,22
 597 356 597 356 729.5 469 c 128,-1,23
 862 582 862 582 885 743 c 0,24,25
 888 758 888 758 888 790 c 0,26,27
 888 918 888 918 806.5 989.5 c 128,-1,28
 725 1061 725 1061 579 1061 c 0,29,30
 505 1061 505 1061 395 1018 c 0,31,32
 377 1012 377 1012 345 996 c 1,33,-1
 306 1055 l 1,34,35
 377 1102 377 1102 473.5 1134.5 c 128,-1,36
 570 1167 570 1167 669 1167 c 0,37,38
 1037 1167 1037 1167 1105 903 c 1,39,40
 1117 772 1117 772 1117 769 c 2,41,-1
 1310 769 l 1,0,-1
1927 1497 m 1,42,-1
 1927 1407 l 1,43,-1
 1663 1407 l 1,44,-1
 1411 339 l 2,45,46
 1408 330 1408 330 1396.5 282 c 128,-1,47
 1385 234 1385 234 1385 196 c 0,48,49
 1385 146 1385 146 1396.5 119.5 c 128,-1,50
 1408 93 1408 93 1439 83.5 c 128,-1,51
 1470 74 1470 74 1479 74 c 0,52,53
 1538 74 1538 74 1610 140 c 0,54,55
 1631 161 1631 161 1669 205 c 1,56,-1
 1712 161 l 1,57,58
 1705 146 1705 146 1666 106 c 0,59,60
 1547 -9 1547 -9 1417 -9 c 0,61,62
 1354 -9 1354 -9 1310 9 c 0,63,64
 1233 39 1233 39 1203 104 c 128,-1,65
 1173 169 1173 169 1173 240 c 0,66,67
 1173 261 1173 261 1174.5 276.5 c 128,-1,68
 1176 292 1176 292 1180 309 c 2,69,-1
 1450 1407 l 1,70,-1
 0 1407 l 1,71,-1
 0 1497 l 1,72,-1
 1927 1497 l 1,42,-1
EndSplineSet
EndChar

StartChar: l.tta
Encoding: 334 2335 78
Width: 1615
GlyphClass: 2
Flags: W
LayerCount: 2
Fore
SplineSet
1616 1407 m 1,0,-1
 1221 1407 l 1,1,-1
 1111 950 l 1,2,3
 1070 965 1070 965 970.5 977 c 128,-1,4
 871 989 871 989 766 989 c 0,5,6
 576 989 576 989 437.5 876 c 128,-1,7
 299 763 299 763 280 576 c 0,8,9
 277 558 277 558 277 536 c 128,-1,10
 277 514 277 514 277 505 c 0,11,12
 277 339 277 339 367.5 242.5 c 128,-1,13
 458 146 458 146 603 146 c 0,14,15
 800 146 800 146 918.5 241 c 128,-1,16
 1037 336 1037 336 1064 470 c 1,17,-1
 1304 348 l 1,18,19
 1233 271 1233 271 1164 193 c 1,20,21
 977 50 977 50 686 50 c 2,22,-1
 635 50 l 2,23,24
 614 50 614 50 594 50 c 0,25,26
 564 56 564 56 547 56 c 0,27,28
 342 81 342 81 205 193 c 0,29,30
 40 327 40 327 41 538 c 0,31,32
 41 812 41 812 234 956 c 0,33,34
 412 1087 412 1087 713 1087 c 0,35,36
 790 1087 790 1087 836 1084 c 128,-1,37
 882 1081 882 1081 921 1075 c 1,38,-1
 1006 1407 l 1,39,-1
 0 1407 l 1,40,-1
 0 1497 l 1,41,-1
 1616 1497 l 1,42,-1
 1616 1407 l 1,0,-1
EndSplineSet
EndChar

StartChar: l.ttha
Encoding: 335 2336 79
Width: 1615
GlyphClass: 2
Flags: W
LayerCount: 2
Fore
SplineSet
1616 1407 m 1,0,-1
 1221 1407 l 1,1,-1
 1111 950 l 1,2,3
 1070 965 1070 965 970.5 977 c 128,-1,4
 871 989 871 989 766 989 c 0,5,6
 576 989 576 989 437.5 876 c 128,-1,7
 299 763 299 763 280 576 c 0,8,9
 277 558 277 558 277 536 c 128,-1,10
 277 514 277 514 277 505 c 0,11,12
 277 350 277 350 362.5 259.5 c 128,-1,13
 448 169 448 169 594 140 c 0,14,15
 648 131 648 131 695 131 c 0,16,17
 869 131 869 131 980 223 c 0,18,19
 1111 333 1111 333 1111 532 c 0,20,21
 1111 635 1111 635 1052 725 c 0,22,23
 1031 763 1031 763 980 809 c 1,24,-1
 1183 900 l 1,25,26
 1227 862 1227 862 1268.5 799.5 c 128,-1,27
 1310 737 1310 737 1323 687.5 c 128,-1,28
 1336 638 1336 638 1336 573 c 0,29,30
 1336 353 1336 353 1161 201.5 c 128,-1,31
 986 50 986 50 675 50 c 0,32,33
 634 50 634 50 597 50 c 1,34,35
 562 56 562 56 547 56 c 0,36,37
 342 81 342 81 205 193 c 0,38,39
 40 327 40 327 41 538 c 0,40,41
 41 812 41 812 234 956 c 0,42,43
 412 1087 412 1087 713 1087 c 0,44,45
 790 1087 790 1087 836 1084 c 128,-1,46
 882 1081 882 1081 921 1075 c 1,47,-1
 1006 1407 l 1,48,-1
 0 1407 l 1,49,-1
 0 1497 l 1,50,-1
 1616 1497 l 1,51,-1
 1616 1407 l 1,0,-1
EndSplineSet
EndChar

StartChar: l.dda
Encoding: 336 2337 80
Width: 1734
GlyphClass: 2
Flags: W
LayerCount: 2
Fore
SplineSet
1734 1407 m 1,0,-1
 1382 1407 l 1,1,-1
 1280 956 l 1,2,-1
 1129 956 l 1,3,4
 1082 994 1082 994 1006 1024.5 c 128,-1,5
 930 1055 930 1055 847 1055 c 0,6,7
 713 1055 713 1055 626 1015 c 0,8,9
 514 962 514 962 514 856 c 0,10,11
 514 731 514 731 660 685 c 0,12,13
 766 651 766 651 953 651 c 0,14,15
 1208 651 1208 651 1318.5 585.5 c 128,-1,16
 1429 520 1429 520 1429 354 c 0,17,18
 1429 77 1429 77 1040 33 c 0,19,20
 930 21 930 21 648 21 c 0,21,22
 293 21 293 21 152 193 c 1,23,24
 111 286 111 286 71 380 c 1,25,-1
 306 427 l 1,26,27
 324 334 324 334 348 286 c 0,28,29
 429 137 429 137 617 103 c 0,30,31
 717 88 717 88 787 87 c 0,32,33
 974 87 974 87 1089.5 152 c 128,-1,34
 1205 217 1205 217 1205 342 c 0,35,36
 1205 476 1205 476 1122.5 523 c 128,-1,37
 1040 570 1040 570 813 570 c 0,38,39
 585 570 585 570 454 623 c 0,40,41
 274 698 274 698 274 862 c 0,42,43
 274 1008 274 1008 394 1081.5 c 128,-1,44
 514 1155 514 1155 701 1155 c 0,45,46
 760 1155 760 1155 833 1147.5 c 128,-1,47
 906 1140 906 1140 1002 1114 c 0,48,49
 1037 1105 1037 1105 1093 1087 c 1,50,-1
 1164 1407 l 1,51,-1
 0 1407 l 1,52,-1
 0 1497 l 1,53,-1
 1734 1497 l 1,54,-1
 1734 1407 l 1,0,-1
EndSplineSet
EndChar

StartChar: l.ddha
Encoding: 337 2338 81
Width: 1615
GlyphClass: 2
Flags: W
LayerCount: 2
Fore
SplineSet
1616 1407 m 1,0,-1
 1221 1407 l 1,1,-1
 1111 950 l 1,2,3
 1070 965 1070 965 970.5 977 c 128,-1,4
 871 989 871 989 766 989 c 0,5,6
 576 989 576 989 437.5 876 c 128,-1,7
 299 763 299 763 280 576 c 0,8,9
 277 558 277 558 277 517 c 0,10,11
 277 348 277 348 388 241 c 128,-1,12
 499 134 499 134 654 134 c 0,13,14
 927 134 927 134 1074 223 c 128,-1,15
 1221 312 1221 312 1221 433 c 1,16,17
 1227 511 1227 511 1167.5 554 c 128,-1,18
 1108 597 1108 597 1021 597 c 0,19,20
 932 597 932 597 866 548 c 128,-1,21
 800 499 800 499 800 404 c 0,22,23
 800 336 800 336 853 292 c 0,24,25
 871 277 871 277 921 252 c 1,26,-1
 859 199 l 1,27,28
 793 214 793 214 740 246 c 0,29,30
 634 309 634 309 635 413 c 0,31,32
 635 426 635 426 641 464 c 0,33,34
 663 567 663 567 775.5 624 c 128,-1,35
 888 681 888 681 1028 681 c 0,36,37
 1183 681 1183 681 1293.5 617 c 128,-1,38
 1404 553 1404 553 1404 439 c 0,39,40
 1404 258 1404 258 1271 155 c 0,41,42
 1122 39 1122 39 816 41 c 0,43,44
 727 41 727 41 623 50 c 0,45,46
 409 74 409 74 243 190 c 0,47,48
 41 333 41 333 41 538 c 0,49,50
 41 812 41 812 234 956 c 0,51,52
 412 1087 412 1087 713 1087 c 0,53,54
 790 1087 790 1087 836 1084 c 128,-1,55
 882 1081 882 1081 921 1075 c 1,56,-1
 1006 1407 l 1,57,-1
 0 1407 l 1,58,-1
 0 1497 l 1,59,-1
 1616 1497 l 1,60,-1
 1616 1407 l 1,0,-1
EndSplineSet
EndChar

StartChar: l.nna
Encoding: 338 2339 82
Width: 1942
GlyphClass: 2
Flags: W
LayerCount: 2
Fore
SplineSet
1046 1407 m 1,0,-1
 541 1407 l 1,1,-1
 416 856 l 2,2,3
 410 834 410 834 407 812 c 128,-1,4
 404 790 404 790 404 760 c 0,5,6
 404 682 404 682 434 626 c 128,-1,7
 464 570 464 570 541 570 c 0,8,9
 572 567 572 567 585 567 c 0,10,11
 754 567 754 567 850 719 c 0,12,13
 874 760 874 760 915 882 c 1,14,-1
 1046 1407 l 1,0,-1
1943 1497 m 1,15,-1
 1943 1407 l 1,16,-1
 1678 1407 l 1,17,-1
 1426 339 l 2,18,19
 1423 330 1423 330 1412 282 c 128,-1,20
 1401 234 1401 234 1401 196 c 0,21,22
 1401 146 1401 146 1412 119.5 c 128,-1,23
 1423 93 1423 93 1454 83.5 c 128,-1,24
 1485 74 1485 74 1494 74 c 0,25,26
 1553 74 1553 74 1625 140 c 0,27,28
 1646 161 1646 161 1684 205 c 1,29,-1
 1728 161 l 1,30,31
 1722 146 1722 146 1681 106 c 0,32,33
 1563 -9 1563 -9 1432 -9 c 0,34,35
 1370 -9 1370 -9 1325 9 c 0,36,37
 1248 39 1248 39 1218.5 104 c 128,-1,38
 1189 169 1189 169 1189 240 c 0,39,40
 1189 261 1189 261 1190.5 276.5 c 128,-1,41
 1192 292 1192 292 1195 309 c 2,42,-1
 1467 1407 l 1,43,-1
 1263 1407 l 1,44,-1
 1137 868 l 1,45,46
 1084 713 1084 713 936 609 c 0,47,48
 765 491 765 491 514 492 c 1,49,50
 324 508 324 508 240 606 c 0,51,52
 181 678 181 678 181 784 c 0,53,54
 181 825 181 825 190 862 c 0,55,56
 190 868 190 868 196 882 c 2,57,-1
 330 1407 l 1,58,-1
 0 1407 l 1,59,-1
 0 1497 l 1,60,-1
 1943 1497 l 1,15,-1
EndSplineSet
EndChar

StartChar: l.ta
Encoding: 339 2340 83
Width: 1708
GlyphClass: 2
Flags: W
LayerCount: 2
Fore
SplineSet
1093 1093 m 2,0,-1
 1093 906 l 1,1,2
 1081 921 1081 921 1061 933 c 0,3,4
 990 986 990 986 927.5 992.5 c 128,-1,5
 865 999 865 999 837 999 c 128,-1,6
 809 999 809 999 793 999 c 0,7,8
 570 999 570 999 439 888 c 0,9,10
 327 792 327 792 283 606 c 0,11,12
 264 532 264 532 264 464 c 0,13,14
 264 327 264 327 329.5 233.5 c 128,-1,15
 395 140 395 140 514 115 c 0,16,17
 558 109 558 109 582 109 c 0,18,19
 648 109 648 109 705.5 124.5 c 128,-1,20
 763 140 763 140 781 152 c 1,21,-1
 754 62 l 1,22,23
 742 56 742 56 671 41.5 c 128,-1,24
 600 27 600 27 547 27 c 0,25,26
 292 27 292 27 158 169 c 0,27,28
 43 290 43 290 44 485 c 0,29,30
 44 538 44 538 53 594 c 0,31,32
 97 859 97 859 293 989 c 0,33,34
 462 1102 462 1102 725 1102 c 0,35,36
 803 1102 803 1102 851.5 1096 c 128,-1,37
 900 1090 900 1090 940 1087 c 128,-1,38
 980 1084 980 1084 1009 1084 c 0,39,40
 1044 1084 1044 1084 1067 1088.5 c 128,-1,41
 1090 1093 1090 1093 1093 1093 c 2,0,-1
1708 1497 m 1,42,-1
 1708 1407 l 1,43,-1
 1444 1407 l 1,44,-1
 1192 339 l 2,45,46
 1189 330 1189 330 1178 282 c 128,-1,47
 1167 234 1167 234 1167 196 c 0,48,49
 1167 146 1167 146 1178 119.5 c 128,-1,50
 1189 93 1189 93 1220 83.5 c 128,-1,51
 1251 74 1251 74 1260 74 c 0,52,53
 1319 74 1319 74 1391 140 c 0,54,55
 1412 161 1412 161 1450 205 c 1,56,-1
 1494 161 l 1,57,58
 1488 146 1488 146 1447 106 c 0,59,60
 1328 -9 1328 -9 1198 -9 c 0,61,62
 1135 -9 1135 -9 1093 9 c 0,63,64
 1015 39 1015 39 985.5 104 c 128,-1,65
 956 169 956 169 956 240 c 0,66,67
 956 261 956 261 957.5 276.5 c 128,-1,68
 959 292 959 292 962 309 c 2,69,-1
 1233 1407 l 1,70,-1
 0 1407 l 1,71,-1
 0 1497 l 1,72,-1
 1708 1497 l 1,42,-1
EndSplineSet
EndChar

StartChar: l.tha
Encoding: 340 2341 84
Width: 1802
GlyphClass: 2
Flags: W
LayerCount: 2
Fore
SplineSet
1126 582 m 1,0,-1
 1055 416 l 1,1,2
 980 351 980 351 924 321 c 0,3,4
 746 220 746 220 535 220 c 0,5,6
 318 220 318 220 179.5 310.5 c 128,-1,7
 41 401 41 401 6 582 c 0,8,9
 0 620 0 620 0 641 c 0,10,11
 0 716 0 716 24 806 c 0,12,13
 30 836 30 836 53 888 c 1,14,15
 88 875 88 875 174.5 862.5 c 128,-1,16
 261 850 261 850 324 850 c 0,17,18
 523 850 523 850 623 942 c 1,19,20
 689 1043 689 1043 695 1049 c 1,21,22
 682 1046 682 1046 639.5 1040 c 128,-1,23
 597 1034 597 1034 541 1034 c 0,24,25
 467 1034 467 1034 410 1049 c 0,26,27
 140 1123 140 1123 158 1319 c 0,28,29
 173 1441 173 1441 287 1512.5 c 128,-1,30
 401 1584 401 1584 555 1584 c 0,31,32
 730 1584 730 1584 852 1495.5 c 128,-1,33
 974 1407 974 1407 974 1236 c 0,34,35
 974 1027 974 1027 844 906 c 0,36,37
 728 799 728 799 535 763 c 0,38,39
 508 757 508 757 454.5 754 c 128,-1,40
 401 751 401 751 380 751 c 0,41,42
 287 751 287 751 274 757 c 1,43,44
 258 742 258 742 244.5 690 c 128,-1,45
 231 638 231 638 231 597 c 0,46,47
 231 582 231 582 237 544 c 0,48,49
 261 429 261 429 389 380 c 0,50,51
 489 339 489 339 654 339 c 0,52,53
 812 339 812 339 933.5 407.5 c 128,-1,54
 1055 476 1055 476 1126 582 c 1,0,-1
766 1325 m 0,55,56
 754 1421 754 1421 705.5 1466.5 c 128,-1,57
 657 1512 657 1512 585 1512 c 0,58,59
 505 1512 505 1512 441 1455 c 128,-1,60
 377 1398 377 1398 377 1301 c 0,61,62
 377 1192 377 1192 476 1143 c 0,63,64
 550 1105 550 1105 654 1105 c 0,65,66
 713 1105 713 1105 725 1122.5 c 128,-1,67
 737 1140 737 1140 743 1158 c 0,68,69
 768 1221 768 1221 769 1286 c 0,70,71
 766 1310 766 1310 766 1325 c 0,55,56
1803 1388 m 1,72,-1
 1538 1388 l 1,73,-1
 1286 327 l 2,74,75
 1283 318 1283 318 1271.5 269 c 128,-1,76
 1260 220 1260 220 1260 184 c 0,77,78
 1260 134 1260 134 1271.5 107.5 c 128,-1,79
 1283 81 1283 81 1314 71.5 c 128,-1,80
 1345 62 1345 62 1354 62 c 0,81,82
 1414 62 1414 62 1485 128 c 0,83,84
 1506 149 1506 149 1544 193 c 1,85,-1
 1587 149 l 1,86,87
 1581 134 1581 134 1541 93 c 0,88,89
 1423 -23 1423 -23 1292 -21 c 0,90,91
 1230 -21 1230 -21 1186 -3 c 0,92,93
 1108 27 1108 27 1078.5 91 c 128,-1,94
 1049 155 1049 155 1049 226 c 0,95,96
 1049 248 1049 248 1050.5 264 c 128,-1,97
 1052 280 1052 280 1055 296 c 2,98,-1
 1325 1394 l 1,99,-1
 996 1394 l 1,100,-1
 996 1485 l 1,101,-1
 1803 1485 l 1,102,-1
 1803 1388 l 1,72,-1
EndSplineSet
EndChar

StartChar: l.da
Encoding: 341 2342 85
Width: 1556
GlyphClass: 2
Flags: W
LayerCount: 2
Fore
SplineSet
1556 1407 m 1,0,-1
 1292 1407 l 1,1,-1
 1205 1043 l 1,2,-1
 740 1043 l 2,3,4
 582 1043 582 1043 463.5 955.5 c 128,-1,5
 345 868 345 868 324 719 c 0,6,7
 321 701 321 701 321 660 c 0,8,9
 321 523 321 523 414.5 426.5 c 128,-1,10
 508 330 508 330 635 330 c 0,11,12
 666 330 666 330 682 333 c 2,13,-1
 760 354 l 1,14,15
 757 372 757 372 754 404 c 128,-1,16
 751 436 751 436 751 451 c 0,17,18
 751 486 751 486 757 540 c 128,-1,19
 763 594 763 594 833 641.5 c 128,-1,20
 903 689 903 689 996 689 c 0,21,22
 1096 689 1096 689 1173.5 640 c 128,-1,23
 1251 591 1251 591 1251 511 c 0,24,25
 1251 404 1251 404 1143 339 c 0,26,27
 1066 292 1066 292 1012 292 c 1,28,29
 1006 280 1006 280 999.5 247 c 128,-1,30
 993 214 993 214 993 205 c 0,31,32
 993 140 993 140 1043 77.5 c 128,-1,33
 1093 15 1093 15 1163 -3 c 128,-1,34
 1233 -21 1233 -21 1263 -15 c 1,35,-1
 1227 -87 l 1,36,37
 1170 -87 1170 -87 1137 -81 c 0,38,39
 1031 -62 1031 -62 946.5 -7.5 c 128,-1,40
 862 47 862 47 829 102.5 c 128,-1,41
 796 158 796 158 781 258 c 1,42,43
 725 228 725 228 626 226 c 0,44,45
 427 226 427 226 271 327 c 0,46,47
 78 451 78 451 78 672 c 0,48,49
 78 868 78 868 210 1007 c 128,-1,50
 342 1146 342 1146 535 1146 c 2,51,-1
 1012 1146 l 1,52,-1
 1078 1407 l 1,53,-1
 0 1407 l 1,54,-1
 0 1497 l 1,55,-1
 1556 1497 l 1,56,-1
 1556 1407 l 1,0,-1
EndSplineSet
EndChar

StartChar: l.dha
Encoding: 342 2343 86
Width: 1925
GlyphClass: 2
Flags: W
LayerCount: 2
Fore
SplineSet
1926 1407 m 1,0,-1
 1661 1407 l 1,1,-1
 1409 339 l 2,2,3
 1406 330 1406 330 1395 282 c 128,-1,4
 1384 234 1384 234 1384 196 c 0,5,6
 1384 146 1384 146 1395 119.5 c 128,-1,7
 1406 93 1406 93 1437 83.5 c 128,-1,8
 1468 74 1468 74 1479 74 c 0,9,10
 1538 74 1538 74 1609 140 c 0,11,12
 1631 161 1631 161 1667 205 c 1,13,-1
 1711 161 l 1,14,15
 1705 146 1705 146 1664 106 c 0,16,17
 1546 -9 1546 -9 1416 -9 c 0,18,19
 1354 -9 1354 -9 1310 9 c 0,20,21
 1232 39 1232 39 1202.5 104 c 128,-1,22
 1173 169 1173 169 1173 240 c 0,23,24
 1173 261 1173 261 1174.5 276.5 c 128,-1,25
 1176 292 1176 292 1179 309 c 2,26,-1
 1450 1407 l 1,27,-1
 1120 1407 l 1,28,-1
 1120 1497 l 1,29,-1
 1926 1497 l 1,30,-1
 1926 1407 l 1,0,-1
1211 473 m 1,31,-1
 1164 321 l 1,32,33
 1111 277 1111 277 921 226 c 0,34,35
 766 185 766 185 641 187 c 0,36,37
 410 187 410 187 268 271 c 0,38,39
 106 363 106 363 106 544 c 0,40,41
 106 696 106 696 207.5 792 c 128,-1,42
 309 888 309 888 430 888 c 1,43,44
 350 912 350 912 309 939 c 0,45,46
 184 1026 184 1026 184 1192 c 0,47,48
 184 1350 184 1350 317.5 1448.5 c 128,-1,49
 451 1547 451 1547 635 1547 c 0,50,51
 775 1547 775 1547 877.5 1498.5 c 128,-1,52
 980 1450 980 1450 1006 1339 c 0,53,54
 1012 1301 1012 1301 1012 1286 c 0,55,56
 1012 1196 1012 1196 941.5 1146 c 128,-1,57
 871 1096 871 1096 778 1096 c 0,58,59
 728 1096 728 1096 698 1126 c 1,60,61
 670 1164 670 1164 663 1173 c 1,62,63
 710 1173 710 1173 739.5 1185.5 c 128,-1,64
 769 1198 769 1198 794 1239 c 128,-1,65
 819 1280 819 1280 819 1316 c 0,66,67
 819 1382 819 1382 773.5 1424.5 c 128,-1,68
 728 1467 728 1467 648 1467 c 0,69,70
 532 1467 532 1467 468 1391.5 c 128,-1,71
 404 1316 404 1316 404 1208 c 0,72,73
 404 1090 404 1090 482 1009 c 0,74,75
 572 913 572 913 734 912 c 2,76,-1
 903 912 l 1,77,-1
 859 803 l 1,78,-1
 740 803 l 2,79,80
 572 803 572 803 470 743 c 0,81,82
 342 669 342 669 342 517 c 0,83,84
 342 413 342 413 454 345 c 0,85,86
 555 286 555 286 689 286 c 0,87,88
 816 286 816 286 962 342 c 0,89,90
 1152 413 1152 413 1211 473 c 1,31,-1
EndSplineSet
EndChar

StartChar: l.na
Encoding: 343 2344 87
Width: 1849
GlyphClass: 2
Flags: W
LayerCount: 2
Fore
SplineSet
1233 1081 m 1,0,-1
 1233 950 l 1,1,2
 1192 991 1192 991 1049 1036 c 128,-1,3
 906 1081 906 1081 781 1081 c 0,4,5
 561 1081 561 1081 402 956 c 128,-1,6
 243 831 243 831 243 657 c 0,7,8
 243 535 243 535 320.5 469.5 c 128,-1,9
 398 404 398 404 502 404 c 0,10,11
 591 404 591 404 658 443 c 128,-1,12
 725 482 725 482 754 564 c 0,13,14
 769 605 769 605 769 657 c 0,15,16
 769 719 769 719 740 784 c 0,17,18
 702 871 702 871 669 894 c 1,19,20
 687 900 687 900 709 903 c 128,-1,21
 731 906 731 906 769 906 c 0,22,23
 856 906 856 906 912 862 c 0,24,25
 986 803 986 803 986 666 c 0,26,27
 986 500 986 500 828 407 c 0,28,29
 692 327 692 327 496 327 c 0,30,31
 293 327 293 327 161 416 c 0,32,33
 18 517 18 517 18 685 c 0,34,35
 18 923 18 923 274 1052 c 0,36,37
 488 1161 488 1161 772 1161 c 0,38,39
 965 1161 965 1161 1117 1120 c 0,40,41
 1167 1108 1167 1108 1233 1081 c 1,0,-1
1850 1497 m 1,42,-1
 1850 1407 l 1,43,-1
 1584 1407 l 1,44,-1
 1333 339 l 2,45,46
 1330 330 1330 330 1318.5 282 c 128,-1,47
 1307 234 1307 234 1307 196 c 0,48,49
 1307 146 1307 146 1317.5 119.5 c 128,-1,50
 1328 93 1328 93 1359.5 83.5 c 128,-1,51
 1391 74 1391 74 1401 74 c 0,52,53
 1461 74 1461 74 1532 140 c 0,54,55
 1553 161 1553 161 1591 205 c 1,56,-1
 1634 161 l 1,57,58
 1628 146 1628 146 1587 106 c 0,59,60
 1468 -9 1468 -9 1339 -9 c 0,61,62
 1277 -9 1277 -9 1233 9 c 0,63,64
 1155 39 1155 39 1125.5 104 c 128,-1,65
 1096 169 1096 169 1096 240 c 0,66,67
 1096 261 1096 261 1097.5 276.5 c 128,-1,68
 1099 292 1099 292 1102 309 c 2,69,-1
 1373 1407 l 1,70,-1
 0 1407 l 1,71,-1
 0 1497 l 1,72,-1
 1850 1497 l 1,42,-1
EndSplineSet
EndChar

StartChar: l.nnna
Encoding: 344 2345 88
Width: 1849
GlyphClass: 2
Flags: W
LayerCount: 2
Fore
SplineSet
620 117 m 1,0,-1
 526 -150 l 1,1,-1
 216 -150 l 1,2,-1
 311 117 l 1,3,-1
 620 117 l 1,0,-1
1233 1081 m 1,4,-1
 1233 950 l 1,5,6
 1192 991 1192 991 1049 1036 c 128,-1,7
 906 1081 906 1081 781 1081 c 0,8,9
 561 1081 561 1081 402 956 c 128,-1,10
 243 831 243 831 243 657 c 0,11,12
 243 535 243 535 320.5 469.5 c 128,-1,13
 398 404 398 404 502 404 c 0,14,15
 591 404 591 404 658 443 c 128,-1,16
 725 482 725 482 754 564 c 0,17,18
 769 605 769 605 769 657 c 0,19,20
 769 719 769 719 740 784 c 0,21,22
 702 871 702 871 669 894 c 1,23,24
 687 900 687 900 709 903 c 128,-1,25
 731 906 731 906 769 906 c 0,26,27
 856 906 856 906 912 862 c 0,28,29
 986 803 986 803 986 666 c 0,30,31
 986 500 986 500 828 407 c 0,32,33
 692 327 692 327 496 327 c 0,34,35
 293 327 293 327 161 416 c 0,36,37
 18 517 18 517 18 685 c 0,38,39
 18 923 18 923 274 1052 c 0,40,41
 488 1161 488 1161 772 1161 c 0,42,43
 965 1161 965 1161 1117 1120 c 0,44,45
 1167 1108 1167 1108 1233 1081 c 1,4,-1
1850 1497 m 1,46,-1
 1850 1407 l 1,47,-1
 1584 1407 l 1,48,-1
 1333 339 l 2,49,50
 1330 330 1330 330 1318.5 282 c 128,-1,51
 1307 234 1307 234 1307 196 c 0,52,53
 1307 146 1307 146 1317.5 119.5 c 128,-1,54
 1328 93 1328 93 1359.5 83.5 c 128,-1,55
 1391 74 1391 74 1401 74 c 0,56,57
 1461 74 1461 74 1532 140 c 0,58,59
 1553 161 1553 161 1591 205 c 1,60,-1
 1634 161 l 1,61,62
 1628 146 1628 146 1587 106 c 0,63,64
 1468 -9 1468 -9 1339 -9 c 0,65,66
 1277 -9 1277 -9 1233 9 c 0,67,68
 1155 39 1155 39 1125.5 104 c 128,-1,69
 1096 169 1096 169 1096 240 c 0,70,71
 1096 261 1096 261 1097.5 276.5 c 128,-1,72
 1099 292 1099 292 1102 309 c 2,73,-1
 1373 1407 l 1,74,-1
 0 1407 l 1,75,-1
 0 1497 l 1,76,-1
 1850 1497 l 1,46,-1
EndSplineSet
Ligature2: "'nukt' Nukta Forms in Devanagari lookup 0 subtable" l.na s.nukta
EndChar

StartChar: l.pa
Encoding: 345 2346 89
Width: 1444
GlyphClass: 2
Flags: W
LayerCount: 2
Fore
SplineSet
1444 1497 m 1,0,-1
 1444 1407 l 1,1,-1
 1180 1407 l 1,2,-1
 927 339 l 2,3,4
 924 330 924 330 913.5 282 c 128,-1,5
 903 234 903 234 903 196 c 0,6,7
 903 146 903 146 913.5 119.5 c 128,-1,8
 924 93 924 93 955 83.5 c 128,-1,9
 986 74 986 74 996 74 c 0,10,11
 1055 74 1055 74 1126 140 c 0,12,13
 1148 161 1148 161 1186 205 c 1,14,-1
 1230 161 l 1,15,16
 1224 146 1224 146 1183 106 c 0,17,18
 1064 -9 1064 -9 933 -9 c 0,19,20
 871 -9 871 -9 828 9 c 0,21,22
 751 39 751 39 721.5 104 c 128,-1,23
 692 169 692 169 692 240 c 0,24,25
 692 261 692 261 693.5 276.5 c 128,-1,26
 695 292 695 292 698 309 c 2,27,-1
 968 1407 l 1,28,-1
 470 1407 l 1,29,-1
 333 871 l 2,30,31
 330 844 330 844 330 825 c 0,32,33
 330 701 330 701 390.5 640 c 128,-1,34
 451 579 451 579 558 579 c 1,35,36
 644 570 644 570 710 620 c 1,37,38
 763 673 763 673 766 675 c 2,39,-1
 766 579 l 1,40,41
 716 544 716 544 675 526 c 0,42,43
 572 476 572 476 485 482 c 1,44,45
 261 482 261 482 172 623 c 0,46,47
 112 713 112 713 112 850 c 0,48,49
 112 868 112 868 112 881 c 128,-1,50
 112 894 112 894 116 897 c 2,51,-1
 255 1407 l 1,52,-1
 0 1407 l 1,53,-1
 0 1497 l 1,54,-1
 1444 1497 l 1,0,-1
EndSplineSet
EndChar

StartChar: l.pha
Encoding: 346 2347 90
Width: 2045
GlyphClass: 2
Flags: W
LayerCount: 2
Fore
SplineSet
2046 1407 m 1,0,-1
 1152 1407 l 1,1,-1
 1090 1120 l 1,2,3
 1120 1138 1120 1138 1210.5 1158.5 c 128,-1,4
 1301 1179 1301 1179 1363 1179 c 0,5,6
 1572 1179 1572 1179 1721.5 1070.5 c 128,-1,7
 1871 962 1871 962 1871 784 c 0,8,9
 1868 760 1868 760 1868 743 c 0,10,11
 1847 532 1847 532 1681 416 c 0,12,13
 1541 321 1541 321 1354 321 c 2,14,-1
 1319 321 l 2,15,16
 1301 321 1301 321 1256 328.5 c 128,-1,17
 1211 336 1211 336 1152 356.5 c 128,-1,18
 1093 377 1093 377 1064 392 c 1,19,-1
 1105 479 l 1,20,21
 1140 457 1140 457 1191 442 c 128,-1,22
 1242 427 1242 427 1277 427 c 0,23,24
 1411 427 1411 427 1509 505 c 0,25,26
 1628 597 1628 597 1628 757 c 0,27,28
 1631 781 1631 781 1631 790 c 0,29,30
 1631 921 1631 921 1553 993 c 0,31,32
 1467 1073 1467 1073 1298 1075 c 0,33,34
 1227 1075 1227 1075 1157 1049.5 c 128,-1,35
 1087 1024 1087 1024 1064 1009 c 1,36,-1
 897 339 l 2,37,38
 891 327 891 327 879.5 283.5 c 128,-1,39
 868 240 868 240 868 193 c 256,40,41
 868 146 868 146 879.5 119.5 c 128,-1,42
 891 93 891 93 922 83.5 c 128,-1,43
 953 74 953 74 962 74 c 0,44,45
 1021 74 1021 74 1093 140 c 0,46,47
 1114 161 1114 161 1152 205 c 1,48,-1
 1195 161 l 1,49,50
 1186 134 1186 134 1114 74 c 0,51,52
 1011 -9 1011 -9 903 -9 c 0,53,54
 838 -9 838 -9 793 9 c 0,55,56
 716 39 716 39 686.5 104 c 128,-1,57
 657 169 657 169 657 240 c 0,58,59
 657 261 657 261 658.5 276.5 c 128,-1,60
 660 292 660 292 663 309 c 2,61,-1
 731 567 l 1,62,63
 710 555 710 555 603 518.5 c 128,-1,64
 496 482 496 482 407 482 c 0,65,66
 184 482 184 482 93 620 c 0,67,68
 33 710 33 710 35 844 c 0,69,70
 35 862 35 862 35 875 c 128,-1,71
 35 888 35 888 38 897 c 2,72,-1
 166 1407 l 1,73,-1
 0 1407 l 1,74,-1
 0 1497 l 1,75,-1
 2046 1497 l 1,76,-1
 2046 1407 l 1,0,-1
933 1407 m 1,77,-1
 383 1407 l 1,78,-1
 252 871 l 2,79,80
 249 847 249 847 249 834 c 0,81,82
 249 701 249 701 310 640 c 128,-1,83
 371 579 371 579 479 579 c 1,84,85
 550 573 550 573 636 604 c 128,-1,86
 722 635 722 635 763 675 c 1,87,-1
 933 1407 l 1,77,-1
EndSplineSet
EndChar

StartChar: l.ba
Encoding: 347 2348 91
Width: 1600
GlyphClass: 2
Flags: W
LayerCount: 2
Fore
SplineSet
903 567 m 1,0,-1
 885 368 l 1,1,2
 857 353 857 353 831 336 c 0,3,4
 713 277 713 277 567 277 c 0,5,6
 365 277 365 277 234 371 c 0,7,8
 85 477 85 477 84 672 c 0,9,10
 84 939 84 939 244 1081.5 c 128,-1,11
 404 1224 404 1224 648 1224 c 0,12,13
 740 1224 740 1224 809.5 1208 c 128,-1,14
 879 1192 879 1192 921 1161 c 1,15,-1
 885 1093 l 1,16,17
 847 1108 847 1108 828 1114 c 0,18,19
 757 1138 757 1138 722 1140 c 0,20,21
 654 1140 654 1140 576 1114 c 0,22,23
 541 1102 541 1102 496 1081 c 1,24,-1
 903 567 l 1,0,-1
891 451 m 1,25,-1
 436 1037 l 1,26,27
 377 986 377 986 346 919.5 c 128,-1,28
 315 853 315 853 306 751 c 1,29,30
 306 617 306 617 368 517 c 0,31,32
 442 398 442 398 591 368 c 0,33,34
 610 365 610 365 627 363.5 c 128,-1,35
 644 362 644 362 663 362 c 0,36,37
 763 362 763 362 847 416 c 0,38,39
 850 421 850 421 891 451 c 1,25,-1
1601 1497 m 1,40,-1
 1601 1407 l 1,41,-1
 1336 1407 l 1,42,-1
 1084 339 l 2,43,44
 1081 330 1081 330 1069.5 282 c 128,-1,45
 1058 234 1058 234 1058 196 c 0,46,47
 1058 146 1058 146 1069.5 119.5 c 128,-1,48
 1081 93 1081 93 1112 83.5 c 128,-1,49
 1143 74 1143 74 1152 74 c 0,50,51
 1211 74 1211 74 1283 140 c 0,52,53
 1304 161 1304 161 1342 205 c 1,54,-1
 1385 161 l 1,55,56
 1379 146 1379 146 1339 106 c 0,57,58
 1221 -9 1221 -9 1090 -9 c 0,59,60
 1028 -9 1028 -9 983 9 c 0,61,62
 906 39 906 39 876.5 104 c 128,-1,63
 847 169 847 169 847 240 c 0,64,65
 847 261 847 261 848.5 276.5 c 128,-1,66
 850 292 850 292 853 309 c 2,67,-1
 1123 1407 l 1,68,-1
 0 1407 l 1,69,-1
 0 1497 l 1,70,-1
 1601 1497 l 1,40,-1
EndSplineSet
EndChar

StartChar: l.bha
Encoding: 348 2349 92
Width: 1995
GlyphClass: 2
Flags: W
LayerCount: 2
Fore
SplineSet
1996 1407 m 1,0,-1
 1731 1407 l 1,1,-1
 1479 339 l 2,2,3
 1476 330 1476 330 1465 282 c 128,-1,4
 1454 234 1454 234 1454 196 c 0,5,6
 1454 146 1454 146 1465 119.5 c 128,-1,7
 1476 93 1476 93 1507 83.5 c 128,-1,8
 1538 74 1538 74 1549 74 c 0,9,10
 1608 74 1608 74 1679 140 c 0,11,12
 1701 161 1701 161 1737 205 c 1,13,-1
 1781 161 l 1,14,15
 1775 146 1775 146 1734 106 c 0,16,17
 1616 -9 1616 -9 1486 -9 c 0,18,19
 1424 -9 1424 -9 1380 9 c 0,20,21
 1302 39 1302 39 1272.5 104 c 128,-1,22
 1243 169 1243 169 1243 240 c 0,23,24
 1243 261 1243 261 1244.5 276.5 c 128,-1,25
 1246 292 1246 292 1249 309 c 2,26,-1
 1520 1407 l 1,27,-1
 1190 1407 l 1,28,-1
 1190 1497 l 1,29,-1
 1996 1497 l 1,30,-1
 1996 1407 l 1,0,-1
1382 912 m 1,31,-1
 1363 822 l 1,32,-1
 897 822 l 1,33,-1
 825 529 l 1,34,35
 801 451 801 451 699 384.5 c 128,-1,36
 597 318 597 318 470 318 c 0,37,38
 426 318 426 318 401 321 c 0,39,40
 236 339 236 339 155 392 c 0,41,42
 46 461 46 461 47 606 c 0,43,44
 47 743 47 743 159 827.5 c 128,-1,45
 271 912 271 912 424 912 c 2,46,-1
 701 912 l 1,47,-1
 825 1407 l 2,48,49
 838 1458 838 1458 796 1485 c 128,-1,50
 754 1512 754 1512 675 1512 c 0,51,52
 582 1512 582 1512 503 1464.5 c 128,-1,53
 424 1417 424 1417 410 1325 c 0,54,55
 398 1230 398 1230 473 1186 c 0,56,57
 529 1155 529 1155 632 1155 c 0,58,59
 754 1155 754 1155 772 1173 c 1,60,-1
 748 1096 l 1,61,62
 713 1090 713 1090 652 1085.5 c 128,-1,63
 591 1081 591 1081 541 1081 c 0,64,65
 423 1081 423 1081 324 1135 c 0,66,67
 199 1204 199 1204 208 1313 c 1,68,69
 208 1435 208 1435 306 1500 c 0,70,71
 424 1578 424 1578 701 1578 c 0,72,73
 853 1578 853 1578 937 1511 c 128,-1,74
 1021 1444 1021 1444 1021 1339 c 0,75,76
 1021 1309 1021 1309 1012 1274 c 2,77,-1
 921 912 l 1,78,-1
 1382 912 l 1,31,-1
675 822 m 1,79,-1
 555 822 l 2,80,81
 439 822 439 822 355 761.5 c 128,-1,82
 271 701 271 701 249 594 c 0,83,84
 246 585 246 585 246 561 c 0,85,86
 246 489 246 489 292.5 434.5 c 128,-1,87
 339 380 339 380 430 380 c 0,88,89
 534 380 534 380 579 464 c 1,90,91
 610 553 610 553 610 558 c 2,92,-1
 675 822 l 1,79,-1
EndSplineSet
EndChar

StartChar: l.ma
Encoding: 349 2350 93
Width: 1895
GlyphClass: 2
Flags: W
LayerCount: 2
Fore
SplineSet
623 841 m 1,0,-1
 502 841 l 2,1,2
 395 841 395 841 319 780 c 128,-1,3
 243 719 243 719 217 613 c 0,4,5
 214 600 214 600 214 573 c 0,6,7
 214 502 214 502 251.5 450 c 128,-1,8
 289 398 289 398 377 398 c 0,9,10
 477 398 477 398 523 482 c 1,11,12
 553 571 553 571 555 576 c 2,13,-1
 623 841 l 1,0,-1
1895 1497 m 1,14,-1
 1895 1407 l 1,15,-1
 1631 1407 l 1,16,-1
 1379 339 l 2,17,18
 1376 330 1376 330 1365 282 c 128,-1,19
 1354 234 1354 234 1354 196 c 0,20,21
 1354 146 1354 146 1365 119.5 c 128,-1,22
 1376 93 1376 93 1407 83.5 c 128,-1,23
 1438 74 1438 74 1447 74 c 0,24,25
 1506 74 1506 74 1578 140 c 0,26,27
 1599 161 1599 161 1637 205 c 1,28,-1
 1681 161 l 1,29,30
 1675 146 1675 146 1634 106 c 0,31,32
 1515 -9 1515 -9 1385 -9 c 0,33,34
 1322 -9 1322 -9 1280 9 c 0,35,36
 1202 39 1202 39 1172.5 104 c 128,-1,37
 1143 169 1143 169 1143 240 c 0,38,39
 1143 261 1143 261 1144.5 276.5 c 128,-1,40
 1146 292 1146 292 1149 309 c 2,41,-1
 1420 1407 l 1,42,-1
 980 1407 l 1,43,-1
 865 930 l 1,44,-1
 1280 930 l 1,45,-1
 1280 841 l 1,46,-1
 841 841 l 1,47,-1
 772 544 l 1,48,49
 748 467 748 467 647.5 401.5 c 128,-1,50
 547 336 547 336 420 336 c 0,51,52
 369 336 369 336 345 339 c 0,53,54
 190 354 190 354 122 407 c 0,55,56
 32 476 32 476 30 626 c 0,57,58
 30 754 30 754 132 842 c 128,-1,59
 234 930 234 930 371 930 c 2,60,-1
 648 930 l 1,61,-1
 766 1407 l 1,62,-1
 0 1407 l 1,63,-1
 0 1497 l 1,64,-1
 1895 1497 l 1,14,-1
EndSplineSet
EndChar

StartChar: l.ya
Encoding: 350 2351 94
Width: 1740
GlyphClass: 2
Flags: W
LayerCount: 2
Fore
SplineSet
1740 1497 m 1,0,-1
 1740 1407 l 1,1,-1
 1476 1407 l 1,2,-1
 1224 339 l 2,3,4
 1221 330 1221 330 1209.5 282 c 128,-1,5
 1198 234 1198 234 1198 196 c 0,6,7
 1198 146 1198 146 1209.5 119.5 c 128,-1,8
 1221 93 1221 93 1252 83.5 c 128,-1,9
 1283 74 1283 74 1292 74 c 0,10,11
 1351 74 1351 74 1423 140 c 0,12,13
 1444 161 1444 161 1482 205 c 1,14,-1
 1526 161 l 1,15,16
 1520 146 1520 146 1479 106 c 0,17,18
 1360 -9 1360 -9 1230 -9 c 0,19,20
 1167 -9 1167 -9 1123 9 c 0,21,22
 1046 39 1046 39 1016 104 c 128,-1,23
 986 169 986 169 986 240 c 0,24,25
 986 261 986 261 988 276.5 c 128,-1,26
 990 292 990 292 993 309 c 2,27,-1
 1263 1407 l 1,28,-1
 734 1407 l 1,29,30
 755 1389 755 1389 798 1286 c 128,-1,31
 841 1183 841 1183 841 1096 c 0,32,33
 841 935 841 935 707 862 c 0,34,35
 611 809 611 809 451 809 c 0,36,37
 392 809 392 809 345.5 815.5 c 128,-1,38
 299 822 299 822 289 828 c 1,39,40
 286 819 286 819 286 775 c 0,41,42
 286 734 286 734 297.5 680 c 128,-1,43
 309 626 309 626 337 564 c 128,-1,44
 365 502 365 502 441 450 c 128,-1,45
 517 398 517 398 629 398 c 0,46,47
 778 398 778 398 882 441.5 c 128,-1,48
 986 485 986 485 1052 564 c 1,49,-1
 993 398 l 1,50,51
 952 357 952 357 846 328 c 128,-1,52
 740 299 740 299 603 299 c 0,53,54
 298 299 298 299 172 451 c 0,55,56
 76 567 76 567 74 784 c 0,57,58
 74 850 74 850 80.5 896 c 128,-1,59
 87 942 87 942 90 971 c 1,60,61
 131 944 131 944 165 929.5 c 128,-1,62
 199 915 199 915 236.5 909 c 128,-1,63
 274 903 274 903 318 903 c 0,64,65
 439 903 439 903 526 956 c 0,66,67
 629 1018 629 1018 629 1132 c 0,68,69
 629 1210 629 1210 591 1289 c 0,70,71
 541 1395 541 1395 502 1407 c 1,72,-1
 0 1407 l 1,73,-1
 0 1497 l 1,74,-1
 1740 1497 l 1,0,-1
EndSplineSet
EndChar

StartChar: l.ra
Encoding: 351 2352 95
Width: 1322
GlyphClass: 2
Flags: W
LayerCount: 2
Fore
SplineSet
1322 1407 m 1,0,-1
 879 1407 l 1,1,2
 917 1360 917 1360 930 1328 c 0,3,4
 983 1228 983 1228 983 1123 c 0,5,6
 983 1105 983 1105 983 1087 c 1,7,8
 977 1062 977 1062 977 1049 c 0,9,10
 942 844 942 844 710 737 c 0,11,12
 632 702 632 702 482 672 c 1,13,14
 497 622 497 622 517.5 562 c 128,-1,15
 538 502 538 502 544 473 c 0,16,17
 565 348 565 348 588 226 c 1,18,19
 626 87 626 87 716 87 c 0,20,21
 793 87 793 87 888 152 c 0,22,23
 918 173 918 173 965 220 c 1,24,-1
 1072 103 l 1,25,26
 1021 79 1021 79 974 53 c 1,27,28
 859 6 859 6 731 6 c 2,29,-1
 686 6 l 2,30,31
 664 9 664 9 654 9 c 0,32,33
 433 30 433 30 351 299 c 0,34,35
 236 682 236 682 237 685 c 0,36,37
 210 763 210 763 161 806 c 1,38,39
 111 833 111 833 65 862 c 1,40,41
 106 877 106 877 131 885 c 0,42,43
 205 906 205 906 255 906 c 0,44,45
 342 906 342 906 398 831 c 0,46,47
 420 801 420 801 442 737 c 1,48,49
 573 781 573 781 606 803 c 0,50,51
 768 906 768 906 769 1102 c 0,52,53
 769 1221 769 1221 713 1325 c 0,54,55
 695 1360 695 1360 657 1407 c 1,56,-1
 0 1407 l 1,57,-1
 0 1497 l 1,58,-1
 1322 1497 l 1,59,-1
 1322 1407 l 1,0,-1
EndSplineSet
EndChar

StartChar: l.rra
Encoding: 352 2353 96
Width: 1322
GlyphClass: 2
Flags: W
LayerCount: 2
Fore
SplineSet
240 267 m 1,0,-1
 146 0 l 1,1,-1
 -164 0 l 1,2,-1
 -69 267 l 1,3,-1
 240 267 l 1,0,-1
1322 1407 m 1,4,-1
 879 1407 l 1,5,6
 917 1360 917 1360 930 1328 c 0,7,8
 983 1228 983 1228 983 1123 c 0,9,10
 983 1105 983 1105 983 1087 c 1,11,12
 977 1062 977 1062 977 1049 c 0,13,14
 942 844 942 844 710 737 c 0,15,16
 632 702 632 702 482 672 c 1,17,18
 497 622 497 622 517.5 562 c 128,-1,19
 538 502 538 502 544 473 c 0,20,21
 565 348 565 348 588 226 c 1,22,23
 626 87 626 87 716 87 c 0,24,25
 793 87 793 87 888 152 c 0,26,27
 918 173 918 173 965 220 c 1,28,-1
 1072 103 l 1,29,30
 1021 79 1021 79 974 53 c 1,31,32
 859 6 859 6 731 6 c 2,33,-1
 686 6 l 2,34,35
 664 9 664 9 654 9 c 0,36,37
 433 30 433 30 351 299 c 0,38,39
 236 682 236 682 237 685 c 0,40,41
 210 763 210 763 161 806 c 1,42,43
 111 833 111 833 65 862 c 1,44,45
 106 877 106 877 131 885 c 0,46,47
 205 906 205 906 255 906 c 0,48,49
 342 906 342 906 398 831 c 0,50,51
 420 801 420 801 442 737 c 1,52,53
 573 781 573 781 606 803 c 0,54,55
 768 906 768 906 769 1102 c 0,56,57
 769 1221 769 1221 713 1325 c 0,58,59
 695 1360 695 1360 657 1407 c 1,60,-1
 0 1407 l 1,61,-1
 0 1497 l 1,62,-1
 1322 1497 l 1,63,-1
 1322 1407 l 1,4,-1
EndSplineSet
EndChar

StartChar: l.la
Encoding: 353 2354 97
Width: 2067
GlyphClass: 2
Flags: W
LayerCount: 2
Fore
SplineSet
1450 1049 m 1,0,-1
 1450 962 l 1,1,2
 1444 965 1444 965 1395 965 c 0,3,4
 1354 965 1354 965 1329 962 c 128,-1,5
 1304 959 1304 959 1259 941.5 c 128,-1,6
 1214 924 1214 924 1183 906 c 1,7,8
 1180 871 1180 871 1176.5 833.5 c 128,-1,9
 1173 796 1173 796 1158 757 c 0,10,11
 1134 679 1134 679 1062 636.5 c 128,-1,12
 990 594 990 594 912 594 c 0,13,14
 838 594 838 594 786 627 c 128,-1,15
 734 660 734 660 734 719 c 0,16,17
 734 825 734 825 862 915 c 0,18,19
 971 993 971 993 999 983 c 1,20,21
 977 1011 977 1011 959 1043 c 1,22,23
 903 1096 903 1096 800 1096 c 0,24,25
 606 1096 606 1096 462 926.5 c 128,-1,26
 318 757 318 757 318 532 c 0,27,28
 318 395 318 395 383 289 c 0,29,30
 464 161 464 161 603 140 c 0,31,32
 619 137 619 137 651 137 c 0,33,34
 716 137 716 137 784 164 c 0,35,36
 874 202 874 202 903 240 c 1,37,-1
 933 140 l 1,38,39
 886 115 886 115 853 103 c 0,40,41
 746 65 746 65 629 65 c 0,42,43
 573 65 573 65 508 74 c 0,44,45
 321 99 321 99 205.5 236.5 c 128,-1,46
 90 374 90 374 90 564 c 0,47,48
 90 850 90 850 312 1021 c 0,49,50
 517 1179 517 1179 813 1179 c 0,51,52
 971 1179 971 1179 1078 1105 c 1,53,54
 1161 1021 1161 1021 1170 1015 c 1,55,56
 1198 1024 1198 1024 1221 1031 c 0,57,58
 1274 1046 1274 1046 1303.5 1050.5 c 128,-1,59
 1333 1055 1333 1055 1359 1055 c 128,-1,60
 1385 1055 1385 1055 1395 1055 c 0,61,62
 1420 1055 1420 1055 1430.5 1053.5 c 128,-1,63
 1441 1052 1441 1052 1450 1049 c 1,0,-1
2067 1497 m 1,64,-1
 2067 1407 l 1,65,-1
 1803 1407 l 1,66,-1
 1550 339 l 2,67,68
 1547 330 1547 330 1536.5 282 c 128,-1,69
 1526 234 1526 234 1526 196 c 0,70,71
 1526 146 1526 146 1536.5 119.5 c 128,-1,72
 1547 93 1547 93 1578.5 83.5 c 128,-1,73
 1610 74 1610 74 1619 74 c 0,74,75
 1678 74 1678 74 1750 140 c 0,76,77
 1771 161 1771 161 1809 205 c 1,78,-1
 1853 161 l 1,79,80
 1847 146 1847 146 1806 106 c 0,81,82
 1687 -9 1687 -9 1556 -9 c 0,83,84
 1494 -9 1494 -9 1450 9 c 0,85,86
 1373 39 1373 39 1343 104 c 128,-1,87
 1313 169 1313 169 1313 240 c 0,88,89
 1313 261 1313 261 1314.5 276.5 c 128,-1,90
 1316 292 1316 292 1319 309 c 2,91,-1
 1591 1407 l 1,92,-1
 0 1407 l 1,93,-1
 0 1497 l 1,94,-1
 2067 1497 l 1,64,-1
EndSplineSet
EndChar

StartChar: l.lla
Encoding: 354 2355 98
Width: 2126
GlyphClass: 2
Flags: W
LayerCount: 2
Fore
SplineSet
2126 1407 m 1,0,-1
 1598 1407 l 1,1,-1
 1544 1161 l 1,2,3
 1725 1131 1725 1131 1841.5 1014 c 128,-1,4
 1958 897 1958 897 1958 719 c 0,5,6
 1958 457 1958 457 1743 312 c 0,7,8
 1563 187 1563 187 1316 187 c 0,9,10
 1198 187 1198 187 1129 220 c 1,11,12
 1073 255 1073 255 1040 277 c 1,13,-1
 1099 339 l 1,14,15
 1192 271 1192 271 1292 271 c 0,16,17
 1476 271 1476 271 1595.5 414.5 c 128,-1,18
 1715 558 1715 558 1715 751 c 0,19,20
 1715 894 1715 894 1657 989 c 0,21,22
 1588 1102 1588 1102 1464 1102 c 0,23,24
 1371 1102 1371 1102 1297.5 999.5 c 128,-1,25
 1224 897 1224 897 1158 698 c 0,26,27
 1062 404 1062 404 950 298.5 c 128,-1,28
 838 193 838 193 623 193 c 0,29,30
 392 193 392 193 246 320.5 c 128,-1,31
 100 448 100 448 100 651 c 0,32,33
 100 871 100 871 263.5 1022 c 128,-1,34
 427 1173 427 1173 657 1173 c 0,35,36
 812 1173 812 1173 953 1055 c 1,37,-1
 915 989 l 1,38,39
 819 1064 819 1064 710 1064 c 0,40,41
 672 1064 672 1064 654 1061 c 0,42,43
 505 1043 505 1043 425 923 c 128,-1,44
 345 803 345 803 345 626 c 0,45,46
 345 474 345 474 403 372.5 c 128,-1,47
 461 271 461 271 579 271 c 0,48,49
 698 271 698 271 800 404 c 0,50,51
 886 520 886 520 931.5 677 c 128,-1,52
 977 834 977 834 1036.5 941.5 c 128,-1,53
 1096 1049 1096 1049 1164 1108 c 0,54,55
 1202 1143 1202 1143 1244 1150.5 c 128,-1,56
 1286 1158 1286 1158 1322 1161 c 1,57,-1
 1382 1407 l 1,58,-1
 0 1407 l 1,59,-1
 0 1497 l 1,60,-1
 2126 1497 l 1,61,-1
 2126 1407 l 1,0,-1
EndSplineSet
EndChar

StartChar: l.llla
Encoding: 355 2356 99
Width: 2126
GlyphClass: 2
Flags: W
LayerCount: 2
Fore
SplineSet
1140 117 m 1,0,-1
 1046 -150 l 1,1,-1
 736 -150 l 1,2,-1
 831 117 l 1,3,-1
 1140 117 l 1,0,-1
2126 1407 m 1,4,-1
 1598 1407 l 1,5,-1
 1544 1161 l 1,6,7
 1725 1131 1725 1131 1841.5 1014 c 128,-1,8
 1958 897 1958 897 1958 719 c 0,9,10
 1958 457 1958 457 1743 312 c 0,11,12
 1563 187 1563 187 1316 187 c 0,13,14
 1198 187 1198 187 1129 220 c 1,15,16
 1073 255 1073 255 1040 277 c 1,17,-1
 1099 339 l 1,18,19
 1192 271 1192 271 1292 271 c 0,20,21
 1476 271 1476 271 1595.5 414.5 c 128,-1,22
 1715 558 1715 558 1715 751 c 0,23,24
 1715 894 1715 894 1657 989 c 0,25,26
 1588 1102 1588 1102 1464 1102 c 0,27,28
 1371 1102 1371 1102 1297.5 999.5 c 128,-1,29
 1224 897 1224 897 1158 698 c 0,30,31
 1062 404 1062 404 950 298.5 c 128,-1,32
 838 193 838 193 623 193 c 0,33,34
 392 193 392 193 246 320.5 c 128,-1,35
 100 448 100 448 100 651 c 0,36,37
 100 871 100 871 263.5 1022 c 128,-1,38
 427 1173 427 1173 657 1173 c 0,39,40
 812 1173 812 1173 953 1055 c 1,41,-1
 915 989 l 1,42,43
 819 1064 819 1064 710 1064 c 0,44,45
 672 1064 672 1064 654 1061 c 0,46,47
 505 1043 505 1043 425 923 c 128,-1,48
 345 803 345 803 345 626 c 0,49,50
 345 474 345 474 403 372.5 c 128,-1,51
 461 271 461 271 579 271 c 0,52,53
 698 271 698 271 800 404 c 0,54,55
 886 520 886 520 931.5 677 c 128,-1,56
 977 834 977 834 1036.5 941.5 c 128,-1,57
 1096 1049 1096 1049 1164 1108 c 0,58,59
 1202 1143 1202 1143 1244 1150.5 c 128,-1,60
 1286 1158 1286 1158 1322 1161 c 1,61,-1
 1382 1407 l 1,62,-1
 0 1407 l 1,63,-1
 0 1497 l 1,64,-1
 2126 1497 l 1,65,-1
 2126 1407 l 1,4,-1
EndSplineSet
Ligature2: "'nukt' Nukta Forms in Devanagari lookup 0 subtable" l.lla s.nukta
EndChar

StartChar: l.va
Encoding: 356 2357 100
Width: 1521
GlyphClass: 2
Flags: W
LayerCount: 2
Fore
SplineSet
775 436 m 2,0,-1
 775 339 l 1,1,2
 748 315 748 315 719 289 c 1,3,4
 638 245 638 245 470 246 c 1,5,6
 286 261 286 261 158 374.5 c 128,-1,7
 30 488 30 488 30 644 c 2,8,-1
 30 672 l 2,9,10
 30 942 30 942 246 1064 c 0,11,12
 404 1154 404 1154 657 1155 c 0,13,14
 749 1155 749 1155 841 1126 c 0,15,16
 885 1108 885 1108 927 1093 c 1,17,-1
 891 1021 l 1,18,19
 866 1040 866 1040 807 1057.5 c 128,-1,20
 748 1075 748 1075 707 1075 c 0,21,22
 511 1075 511 1075 380 965.5 c 128,-1,23
 249 856 249 856 249 685 c 0,24,25
 249 543 249 543 331 452.5 c 128,-1,26
 413 362 413 362 591 362 c 0,27,28
 716 362 716 362 754 395 c 1,29,30
 772 433 772 433 775 436 c 2,0,-1
1522 1497 m 1,31,-1
 1522 1407 l 1,32,-1
 1257 1407 l 1,33,-1
 1006 339 l 2,34,35
 1003 330 1003 330 991.5 282 c 128,-1,36
 980 234 980 234 980 196 c 0,37,38
 980 146 980 146 991 119.5 c 128,-1,39
 1002 93 1002 93 1033 83.5 c 128,-1,40
 1064 74 1064 74 1075 74 c 0,41,42
 1134 74 1134 74 1205 140 c 0,43,44
 1227 161 1227 161 1263 205 c 1,45,-1
 1307 161 l 1,46,47
 1301 146 1301 146 1260 106 c 0,48,49
 1142 -9 1142 -9 1012 -9 c 0,50,51
 950 -9 950 -9 906 9 c 0,52,53
 828 39 828 39 798.5 104 c 128,-1,54
 769 169 769 169 769 240 c 0,55,56
 769 261 769 261 770.5 276.5 c 128,-1,57
 772 292 772 292 775 309 c 2,58,-1
 1046 1407 l 1,59,-1
 0 1407 l 1,60,-1
 0 1497 l 1,61,-1
 1522 1497 l 1,31,-1
EndSplineSet
EndChar

StartChar: l.sha
Encoding: 357 2358 101
Width: 2005
GlyphClass: 2
Flags: W
LayerCount: 2
Fore
SplineSet
2006 1407 m 1,0,-1
 1741 1407 l 1,1,-1
 1489 339 l 2,2,3
 1486 330 1486 330 1475 282 c 128,-1,4
 1464 234 1464 234 1464 196 c 0,5,6
 1464 146 1464 146 1475 119.5 c 128,-1,7
 1486 93 1486 93 1517 83.5 c 128,-1,8
 1548 74 1548 74 1559 74 c 0,9,10
 1618 74 1618 74 1689 140 c 0,11,12
 1711 161 1711 161 1747 205 c 1,13,-1
 1791 161 l 1,14,15
 1785 146 1785 146 1744 106 c 0,16,17
 1626 -9 1626 -9 1496 -9 c 0,18,19
 1434 -9 1434 -9 1390 9 c 0,20,21
 1312 39 1312 39 1282.5 104 c 128,-1,22
 1253 169 1253 169 1253 240 c 0,23,24
 1253 261 1253 261 1254.5 276.5 c 128,-1,25
 1256 292 1256 292 1259 309 c 2,26,-1
 1530 1407 l 1,27,-1
 1200 1407 l 1,28,-1
 1200 1497 l 1,29,-1
 2006 1497 l 1,30,-1
 2006 1407 l 1,0,-1
1111 1093 m 0,31,32
 1090 869 1090 869 790 719 c 0,33,34
 690 669 690 669 496 613 c 1,35,36
 496 603 496 603 514 558 c 0,37,38
 576 389 576 389 591 339 c 0,39,40
 635 196 635 196 677 144.5 c 128,-1,41
 719 93 719 93 787 93 c 0,42,43
 834 93 834 93 906 137 c 0,44,45
 927 149 927 149 968 181 c 1,46,-1
 993 128 l 1,47,48
 936 84 936 84 900 62 c 0,49,50
 784 -3 784 -3 675 -3 c 0,51,52
 509 -3 509 -3 420 187 c 1,53,54
 339 383 339 383 261 582 c 1,55,56
 214 672 214 672 119 725 c 1,57,58
 65 746 65 746 12 769 c 1,59,60
 53 787 53 787 74 793 c 0,61,62
 152 821 152 821 190 822 c 0,63,64
 306 822 306 822 386 746 c 0,65,66
 424 711 424 711 454 660 c 1,67,68
 508 641 508 641 682 766 c 0,69,70
 903 921 903 921 903 1161 c 0,71,72
 903 1310 903 1310 828.5 1396 c 128,-1,73
 754 1482 754 1482 657 1482 c 0,74,75
 573 1482 573 1482 513.5 1416.5 c 128,-1,76
 454 1351 454 1351 454 1224 c 0,77,78
 454 1149 454 1149 512 1091.5 c 128,-1,79
 570 1034 570 1034 646 1011.5 c 128,-1,80
 722 989 722 989 772 996 c 1,81,-1
 740 942 l 1,82,83
 693 912 693 912 485 971 c 0,84,85
 236 1043 236 1043 237 1236 c 0,86,87
 237 1397 237 1397 374 1479 c 0,88,89
 489 1547 489 1547 669 1547 c 0,90,91
 883 1547 883 1547 998.5 1437.5 c 128,-1,92
 1114 1328 1114 1328 1114 1152 c 0,93,94
 1114 1111 1114 1111 1111 1093 c 0,31,32
EndSplineSet
EndChar

StartChar: l.ssa
Encoding: 358 2359 102
Width: 1527
GlyphClass: 2
Flags: W
LayerCount: 2
Fore
SplineSet
1528 1407 m 1,0,-1
 1263 1407 l 1,1,-1
 1011 339 l 2,2,3
 1008 330 1008 330 997 282 c 128,-1,4
 986 234 986 234 986 196 c 0,5,6
 986 146 986 146 997 119.5 c 128,-1,7
 1008 93 1008 93 1039 83.5 c 128,-1,8
 1070 74 1070 74 1081 74 c 0,9,10
 1140 74 1140 74 1211 140 c 0,11,12
 1233 161 1233 161 1269 205 c 1,13,-1
 1313 161 l 1,14,15
 1307 146 1307 146 1266 106 c 0,16,17
 1148 -9 1148 -9 1018 -9 c 0,18,19
 956 -9 956 -9 912 9 c 0,20,21
 834 39 834 39 804.5 104 c 128,-1,22
 775 169 775 169 775 240 c 0,23,24
 775 261 775 261 776.5 276.5 c 128,-1,25
 778 292 778 292 781 309 c 2,26,-1
 1052 1407 l 1,27,-1
 722 1407 l 1,28,-1
 722 1497 l 1,29,-1
 1528 1497 l 1,30,-1
 1528 1407 l 1,0,-1
865 657 m 1,31,-1
 819 492 l 1,32,33
 801 474 801 474 704 439 c 0,34,35
 573 392 573 392 448 392 c 0,36,37
 225 392 225 392 131 529 c 0,38,39
 65 625 65 625 65 769 c 0,40,41
 65 796 65 796 66.5 815 c 128,-1,42
 68 834 68 834 71 850 c 2,43,-1
 214 1407 l 1,44,-1
 0 1407 l 1,45,-1
 0 1497 l 1,46,-1
 722 1497 l 1,47,-1
 722 1407 l 1,48,-1
 502 1407 l 1,49,-1
 865 657 l 1,31,-1
806 597 m 1,50,-1
 424 1373 l 1,51,-1
 280 828 l 2,52,53
 277 810 277 810 274 780.5 c 128,-1,54
 271 751 271 751 271 737 c 0,55,56
 271 628 271 628 306 567 c 0,57,58
 359 471 359 471 476 470 c 0,59,60
 503 467 503 467 517 467 c 0,61,62
 632 467 632 467 731 532 c 0,63,64
 762 553 762 553 806 597 c 1,50,-1
EndSplineSet
EndChar

StartChar: l.sa
Encoding: 359 2360 103
Width: 1989
GlyphClass: 2
Flags: W
LayerCount: 2
Fore
SplineSet
1373 787 m 1,0,-1
 1373 672 l 1,1,-1
 1009 672 l 1,2,-1
 1081 787 l 1,3,-1
 1373 787 l 1,0,-1
1990 1497 m 1,4,-1
 1990 1407 l 1,5,-1
 1725 1407 l 1,6,-1
 1473 339 l 2,7,8
 1470 330 1470 330 1458.5 282 c 128,-1,9
 1447 234 1447 234 1447 196 c 0,10,11
 1447 146 1447 146 1458.5 119.5 c 128,-1,12
 1470 93 1470 93 1501 83.5 c 128,-1,13
 1532 74 1532 74 1541 74 c 0,14,15
 1601 74 1601 74 1672 140 c 0,16,17
 1693 161 1693 161 1731 205 c 1,18,-1
 1774 161 l 1,19,20
 1768 146 1768 146 1728 106 c 0,21,22
 1610 -9 1610 -9 1479 -9 c 0,23,24
 1417 -9 1417 -9 1373 9 c 0,25,26
 1295 39 1295 39 1265.5 104 c 128,-1,27
 1236 169 1236 169 1236 240 c 0,28,29
 1236 261 1236 261 1237.5 276.5 c 128,-1,30
 1239 292 1239 292 1242 309 c 2,31,-1
 1512 1407 l 1,32,-1
 879 1407 l 1,33,34
 917 1360 917 1360 930 1328 c 0,35,36
 983 1228 983 1228 983 1123 c 0,37,38
 983 1105 983 1105 983 1087 c 1,39,40
 977 1062 977 1062 977 1049 c 0,41,42
 942 844 942 844 710 737 c 0,43,44
 632 702 632 702 482 672 c 1,45,46
 497 622 497 622 517.5 562 c 128,-1,47
 538 502 538 502 544 473 c 0,48,49
 565 301 565 301 585 220 c 0,50,51
 620 74 620 74 710 74 c 0,52,53
 784 74 784 74 894 134 c 0,54,55
 929 152 929 152 986 193 c 1,56,-1
 1072 103 l 1,57,58
 1021 79 1021 79 974 53 c 1,59,60
 859 6 859 6 731 6 c 2,61,-1
 686 6 l 2,62,63
 664 9 664 9 654 9 c 0,64,65
 433 30 433 30 351 299 c 0,66,67
 236 682 236 682 237 685 c 0,68,69
 210 763 210 763 161 806 c 1,70,71
 111 833 111 833 65 862 c 1,72,73
 106 877 106 877 131 885 c 0,74,75
 205 906 205 906 255 906 c 0,76,77
 342 906 342 906 398 831 c 0,78,79
 420 801 420 801 442 737 c 1,80,81
 573 781 573 781 606 803 c 0,82,83
 768 906 768 906 769 1102 c 0,84,85
 769 1221 769 1221 713 1325 c 0,86,87
 695 1360 695 1360 657 1407 c 1,88,-1
 0 1407 l 1,89,-1
 0 1497 l 1,90,-1
 1990 1497 l 1,4,-1
EndSplineSet
EndChar

StartChar: l.ha
Encoding: 360 2361 104
Width: 1586
GlyphClass: 2
Flags: W
LayerCount: 2
Fore
SplineSet
1587 1407 m 1,0,-1
 1233 1407 l 1,1,-1
 1143 1049 l 1,2,3
 1087 1073 1087 1073 1049 1087 c 0,4,5
 930 1131 930 1131 852.5 1140 c 128,-1,6
 775 1149 775 1149 698 1149 c 0,7,8
 570 1149 570 1149 487 1109.5 c 128,-1,9
 404 1070 404 1070 404 977 c 0,10,11
 404 891 404 891 499 853 c 0,12,13
 564 828 564 828 698 828 c 0,14,15
 736 828 736 828 800.5 831 c 128,-1,16
 865 834 865 834 885 834 c 0,17,18
 1056 834 1056 834 1173 778 c 0,19,20
 1316 710 1316 710 1328 582 c 1,21,22
 1328 473 1328 473 1279 420.5 c 128,-1,23
 1230 368 1230 368 1129 348 c 0,24,25
 1085 342 1085 342 1072 342 c 0,26,27
 1018 342 1018 342 978.5 365.5 c 128,-1,28
 939 389 939 389 933 392 c 1,29,30
 958 392 958 392 1003.5 409.5 c 128,-1,31
 1049 427 1049 427 1090.5 464.5 c 128,-1,32
 1132 502 1132 502 1132 567 c 0,33,34
 1132 644 1132 644 1064 698 c 0,35,36
 980 763 980 763 825 763 c 0,37,38
 648 763 648 763 505 695 c 0,39,40
 290 591 290 591 289 368 c 0,41,42
 289 225 289 225 424 125 c 0,43,44
 546 35 546 35 695 33 c 0,45,46
 825 33 825 33 937 66 c 128,-1,47
 1049 99 1049 99 1090 140 c 1,48,-1
 1123 62 l 1,49,50
 1049 27 1049 27 990 12 c 0,51,52
 809 -38 809 -38 585 -38 c 0,53,54
 380 -38 380 -38 237 53 c 0,55,56
 76 153 76 153 59 333 c 1,57,58
 59 547 59 547 231 681 c 0,59,60
 287 725 287 725 404 775 c 1,61,62
 333 796 333 796 299 816 c 0,63,64
 190 879 190 879 190 971 c 0,65,66
 190 1120 190 1120 342 1179 c 0,67,68
 454 1224 454 1224 654 1224 c 0,69,70
 734 1224 734 1224 840.5 1211 c 128,-1,71
 947 1198 947 1198 965 1192 c 1,72,-1
 1018 1407 l 1,73,-1
 0 1407 l 1,74,-1
 0 1497 l 1,75,-1
 1587 1497 l 1,76,-1
 1587 1407 l 1,0,-1
EndSplineSet
EndChar

StartChar: uni093A
Encoding: 361 2362 105
Width: 0
GlyphClass: 2
Flags: W
LayerCount: 2
Fore
SplineSet
-304 1460 m 1,0,-1
 -304 1899 l 1,1,-1
 -132 1899 l 1,2,-1
 -132 1480 l 1,3,-1
 -178 1480 l 1,4,-1
 -304 1460 l 1,0,-1
EndSplineSet
EndChar

StartChar: uni093B
Encoding: 362 2363 106
Width: 775
GlyphClass: 2
Flags: W
LayerCount: 2
Fore
SplineSet
806 1407 m 1,0,-1
 541 1407 l 1,1,-1
 289 339 l 2,2,3
 286 330 286 330 275 282 c 128,-1,4
 264 234 264 234 264 196 c 0,5,6
 264 146 264 146 275 119.5 c 128,-1,7
 286 93 286 93 317 83.5 c 128,-1,8
 348 74 348 74 359 74 c 0,9,10
 418 74 418 74 489 140 c 0,11,12
 511 161 511 161 547 205 c 1,13,-1
 591 161 l 1,14,15
 585 146 585 146 544 106 c 0,16,17
 426 -9 426 -9 296 -9 c 0,18,19
 234 -9 234 -9 190 9 c 0,20,21
 112 39 112 39 82.5 104 c 128,-1,22
 53 169 53 169 53 240 c 0,23,24
 53 261 53 261 54.5 276.5 c 128,-1,25
 56 292 56 292 59 309 c 2,26,-1
 330 1407 l 1,27,-1
 0 1407 l 1,28,-1
 0 1497 l 1,29,-1
 806 1497 l 1,30,-1
 806 1407 l 1,0,-1
568 1497 m 1,31,-1
 350 1497 l 1,32,33
 441 1859 441 1859 460 1933 c 1,34,-1
 671 1933 l 1,35,36
 671 1933 671 1933 568 1497 c 1,31,-1
EndSplineSet
EndChar

StartChar: s.nukta
Encoding: 363 2364 107
Width: 0
GlyphClass: 4
Flags: W
LayerCount: 2
Fore
SplineSet
-695 -240 m 1,0,-1
 -879 -424 l 1,1,-1
 -1065 -236 l 1,2,-1
 -881 -53 l 1,3,-1
 -695 -240 l 1,0,-1
EndSplineSet
EndChar

StartChar: s.avagraha
Encoding: 364 2365 108
Width: 921
GlyphClass: 2
Flags: W
LayerCount: 2
Fore
SplineSet
1251 451 m 0,0,1
 1251 220 1251 220 1040 103 c 0,2,3
 862 3 862 3 594 3 c 0,4,5
 383 3 383 3 217 93 c 0,6,7
 30 196 30 196 30 348 c 0,8,9
 30 451 30 451 68 515 c 128,-1,10
 106 579 106 579 202 606 c 0,11,12
 226 613 226 613 240 613 c 0,13,14
 293 613 293 613 342 573 c 1,15,16
 354 558 354 558 371 544 c 1,17,18
 312 520 312 520 267.5 465 c 128,-1,19
 223 410 223 410 223 345 c 0,20,21
 223 226 223 226 339 146 c 0,22,23
 439 74 439 74 555 74 c 0,24,25
 716 74 716 74 853 152 c 0,26,27
 1034 255 1034 255 1034 445 c 0,28,29
 1037 464 1037 464 1037 502 c 0,30,31
 1037 644 1037 644 958 733 c 128,-1,32
 879 822 879 822 713 874 c 0,33,34
 482 942 482 942 401 989 c 0,35,36
 217 1093 217 1093 217 1254 c 0,37,38
 217 1366 217 1366 318.5 1431.5 c 128,-1,39
 420 1497 420 1497 547 1497 c 2,40,-1
 1251 1497 l 1,41,-1
 1211 1407 l 1,42,-1
 800 1407 l 2,43,44
 616 1407 616 1407 547 1382 c 0,45,46
 423 1338 423 1338 424 1192 c 0,47,48
 424 1091 424 1091 588 999 c 0,49,50
 710 930 710 930 939 862 c 0,51,52
 1091 818 1091 818 1171 720.5 c 128,-1,53
 1251 623 1251 623 1251 451 c 0,0,1
EndSplineSet
EndChar

StartChar: vs.aa
Encoding: 365 2366 109
Width: 805
GlyphClass: 4
Flags: W
LayerCount: 2
Fore
SplineSet
806 1407 m 1,0,-1
 541 1407 l 1,1,-1
 289 339 l 2,2,3
 286 330 286 330 275 282 c 128,-1,4
 264 234 264 234 264 196 c 0,5,6
 264 146 264 146 275 119.5 c 128,-1,7
 286 93 286 93 317 83.5 c 128,-1,8
 348 74 348 74 359 74 c 0,9,10
 418 74 418 74 489 140 c 0,11,12
 511 161 511 161 547 205 c 1,13,-1
 591 161 l 1,14,15
 585 146 585 146 544 106 c 0,16,17
 426 -9 426 -9 296 -9 c 0,18,19
 234 -9 234 -9 190 9 c 0,20,21
 112 39 112 39 82.5 104 c 128,-1,22
 53 169 53 169 53 240 c 0,23,24
 53 261 53 261 54.5 276.5 c 128,-1,25
 56 292 56 292 59 309 c 2,26,-1
 330 1407 l 1,27,-1
 0 1407 l 1,28,-1
 0 1497 l 1,29,-1
 806 1497 l 1,30,-1
 806 1407 l 1,0,-1
EndSplineSet
EndChar

StartChar: vs.i
Encoding: 366 2367 110
Width: 782
GlyphClass: 4
Flags: W
LayerCount: 2
Fore
SplineSet
1836 1718 m 1,0,1
 1815 1667 1815 1667 1797 1622 c 1,2,3
 1734 1535 1734 1535 1610 1535 c 0,4,5
 1426 1535 1426 1535 1239 1852 c 128,-1,6
 1052 2169 1052 2169 897 2169 c 0,7,8
 719 2169 719 2169 613.5 2072.5 c 128,-1,9
 508 1976 508 1976 508 1791 c 0,10,11
 508 1756 508 1756 514 1695 c 128,-1,12
 520 1634 520 1634 529 1570 c 128,-1,13
 538 1506 538 1506 547 1497 c 1,14,-1
 806 1497 l 1,15,-1
 806 1407 l 1,16,-1
 541 1407 l 1,17,-1
 289 339 l 2,18,19
 286 330 286 330 275 282 c 128,-1,20
 264 234 264 234 264 196 c 0,21,22
 264 146 264 146 275 119.5 c 128,-1,23
 286 93 286 93 317 83.5 c 128,-1,24
 348 74 348 74 359 74 c 0,25,26
 418 74 418 74 489 140 c 0,27,28
 511 161 511 161 547 205 c 1,29,-1
 591 161 l 1,30,31
 585 146 585 146 544 106 c 0,32,33
 426 -9 426 -9 296 -9 c 0,34,35
 234 -9 234 -9 190 9 c 0,36,37
 112 39 112 39 82.5 104 c 128,-1,38
 53 169 53 169 53 240 c 0,39,40
 53 261 53 261 54.5 276.5 c 128,-1,41
 56 292 56 292 59 309 c 2,42,-1
 330 1407 l 1,43,-1
 0 1407 l 1,44,-1
 0 1497 l 1,45,-1
 330 1497 l 1,46,47
 312 1515 312 1515 299 1611.5 c 128,-1,48
 286 1708 286 1708 286 1783 c 0,49,50
 286 2003 286 2003 431 2122.5 c 128,-1,51
 576 2242 576 2242 813 2242 c 0,52,53
 1069 2242 1069 2242 1236 2101 c 0,54,55
 1307 2041 1307 2041 1461 1833 c 0,56,57
 1573 1681 1573 1681 1675 1666 c 0,58,59
 1731 1657 1731 1657 1784 1684 c 0,60,61
 1809 1699 1809 1699 1836 1718 c 1,0,1
EndSplineSet
EndChar

StartChar: vs.ii
Encoding: 367 2368 111
Width: 805
GlyphClass: 4
Flags: W
LayerCount: 2
Fore
SplineSet
806 1407 m 1,0,-1
 541 1407 l 1,1,-1
 289 339 l 2,2,3
 286 330 286 330 275 282 c 128,-1,4
 264 234 264 234 264 196 c 0,5,6
 264 146 264 146 275 119.5 c 128,-1,7
 286 93 286 93 317 83.5 c 128,-1,8
 348 74 348 74 359 74 c 0,9,10
 418 74 418 74 489 140 c 0,11,12
 511 161 511 161 547 205 c 1,13,-1
 591 161 l 1,14,15
 585 146 585 146 544 106 c 0,16,17
 426 -9 426 -9 296 -9 c 0,18,19
 234 -9 234 -9 190 9 c 0,20,21
 112 39 112 39 82.5 104 c 128,-1,22
 53 169 53 169 53 240 c 0,23,24
 53 261 53 261 54.5 276.5 c 128,-1,25
 56 292 56 292 59 309 c 2,26,-1
 330 1407 l 1,27,-1
 0 1407 l 1,28,-1
 0 1497 l 1,29,-1
 351 1497 l 1,30,31
 360 1509 360 1509 380.5 1618.5 c 128,-1,32
 401 1728 401 1728 408.5 1798 c 128,-1,33
 416 1868 416 1868 416 1895 c 0,34,35
 416 2014 416 2014 367 2091.5 c 128,-1,36
 318 2169 318 2169 258.5 2177.5 c 128,-1,37
 199 2186 199 2186 166 2186 c 0,38,39
 -18 2186 -18 2186 -168 2069 c 128,-1,40
 -318 1952 -318 1952 -318 1783 c 0,41,42
 -318 1768 -318 1768 -312 1727.5 c 128,-1,43
 -306 1687 -306 1687 -246 1634 c 0,44,45
 -228 1619 -228 1619 -190 1590 c 1,46,47
 -208 1587 -208 1587 -239.5 1584 c 128,-1,48
 -271 1581 -271 1581 -289 1581 c 0,49,50
 -385 1581 -385 1581 -445 1619 c 0,51,52
 -529 1672 -529 1672 -529 1791 c 0,53,54
 -529 2014 -529 2014 -302 2139 c 0,55,56
 -106 2248 -106 2248 158 2248 c 0,57,58
 458 2248 458 2248 550 2142 c 0,59,60
 634 2046 634 2046 635 1839 c 0,61,62
 635 1759 635 1759 623 1681 c 0,63,64
 599 1532 599 1532 579 1497 c 1,65,-1
 806 1497 l 1,66,-1
 806 1407 l 1,0,-1
EndSplineSet
EndChar

StartChar: vs.u
Encoding: 368 2369 112
Width: 2
GlyphClass: 4
Flags: W
LayerCount: 2
Fore
SplineSet
-438 -484 m 1,0,1
 -621 -515 -621 -515 -642 -522 c 0,2,3
 -677 -535 -677 -535 -865 -535 c 2,4,-1
 -890 -535 l 2,5,6
 -987 -535 -987 -535 -1059 -520 c 0,7,8
 -1129 -507 -1129 -507 -1188 -476 c 0,9,10
 -1234 -451 -1234 -451 -1273 -421 c 256,11,12
 -1312 -391 -1312 -391 -1337 -357 c 0,13,14
 -1353 -335 -1353 -335 -1365 -308.5 c 128,-1,15
 -1377 -282 -1377 -282 -1384 -252 c 2,16,-1
 -1397 -187 l 1,17,-1
 -1192 -180 l 1,18,-1
 -1188 -198 l 1,19,-1
 -1178 -254 l 2,20,21
 -1171 -271 -1171 -271 -1165 -292 c 0,22,23
 -1160 -307 -1160 -307 -1144 -332 c 0,24,25
 -1130 -354 -1130 -354 -1111 -375 c 0,26,27
 -1100 -387 -1100 -387 -1061 -416 c 0,28,29
 -1031 -438 -1031 -438 -985 -452 c 0,30,31
 -910 -476 -910 -476 -872 -476 c 2,32,-1
 -860 -476 l 1,33,-1
 -846 -479 l 1,34,-1
 -828 -479 l 1,35,-1
 -812 -479 l 2,36,37
 -738 -479 -738 -479 -680 -464 c 0,38,39
 -613 -448 -613 -448 -563 -423 c 0,40,41
 -509 -395 -509 -395 -469 -352 c 0,42,43
 -411 -288 -411 -288 -401 -249 c 2,44,-1
 -388 -196 l 1,45,-1
 -382 -137 l 2,46,47
 -380 -112 -380 -112 -387 -89 c 0,48,49
 -396 -61 -396 -61 -408 -44 c 0,50,51
 -421 -26 -421 -26 -457 -12 c 0,52,53
 -496 4 -496 4 -537 7 c 0,54,55
 -549 8 -549 8 -576 6 c 0,56,57
 -593 4 -593 4 -606 1 c 0,58,59
 -620 -1 -620 -1 -630.5 -7.5 c 128,-1,60
 -641 -14 -641 -14 -650 -22 c 0,61,62
 -667 -35 -667 -35 -679 -54 c 0,63,64
 -700 -86 -700 -86 -704 -97 c 2,65,-1
 -721 -159 l 1,66,-1
 -724 -198 l 1,67,-1
 -940 -170 l 1,68,-1
 -927 -122 l 2,69,70
 -917 -88 -917 -88 -915 -84 c 0,71,72
 -906 -66 -906 -66 -890 -49 c 0,73,74
 -873 -33 -873 -33 -845 -12 c 0,75,76
 -804 19 -804 19 -775 34 c 0,77,78
 -741 52 -741 52 -674 62 c 0,79,80
 -617 71 -617 71 -549 71 c 0,81,82
 -478 71 -478 71 -416 55 c 0,83,84
 -349 38 -349 38 -301 12 c 0,85,86
 -250 -16 -250 -16 -222 -66 c 0,87,88
 -189 -124 -189 -124 -196 -180 c 2,89,-1
 -200 -215 l 1,90,91
 -196 -231 -196 -231 -199 -237 c 0,92,93
 -202 -245 -202 -245 -203 -249 c 0,94,95
 -222 -345 -222 -345 -279 -400 c 0,96,97
 -338 -458 -338 -458 -435 -484 c 1,98,-1
 -438 -484 l 1,0,1
EndSplineSet
EndChar

StartChar: vs.uu
Encoding: 369 2370 113
Width: 2
GlyphClass: 4
Flags: W
LayerCount: 2
Fore
SplineSet
-167 -627 m 1,0,-1
 -163 -616 l 1,1,-1
 -170 -495 l 2,2,3
 -167 -484 -167 -484 -168.5 -468.5 c 128,-1,4
 -170 -453 -170 -453 -174 -439 c 0,5,6
 -177 -426 -177 -426 -179 -413 c 0,7,8
 -181 -398 -181 -398 -184 -391 c 2,9,-1
 -221 -301 l 1,10,11
 -234 -248 -234 -248 -263 -198 c 0,12,13
 -284 -163 -284 -163 -335 -100 c 0,14,15
 -372 -55 -372 -55 -432 -24 c 0,16,17
 -488 4 -488 4 -571 20 c 2,18,-1
 -587 23 l 1,19,-1
 -604 23 l 1,20,-1
 -615 23 l 1,21,-1
 -631 23 l 2,22,23
 -682 23 -682 23 -726 8 c 0,24,25
 -774 -9 -774 -9 -809 -36 c 128,-1,26
 -844 -63 -844 -63 -870 -110 c 0,27,28
 -898 -161 -898 -161 -907 -215 c 2,29,-1
 -913 -253 l 1,30,-1
 -913 -287 l 2,31,32
 -913 -315 -913 -315 -902 -358 c 0,33,34
 -895 -386 -895 -386 -876 -408 c 0,35,36
 -854 -434 -854 -434 -840 -444 c 0,37,38
 -816 -463 -816 -463 -799 -467 c 2,39,-1
 -790 -469 l 1,40,-1
 -779 -469 l 2,41,42
 -742 -469 -742 -469 -718.5 -458.5 c 128,-1,43
 -695 -448 -695 -448 -677 -424 c 0,44,45
 -668 -413 -668 -413 -659.5 -393.5 c 128,-1,46
 -651 -374 -651 -374 -645 -346 c 1,47,-1
 -645 -330 l 1,48,-1
 -645 -312 l 1,49,-1
 -647 -277 l 2,50,51
 -645 -266 -645 -266 -646 -258 c 0,52,53
 -646 -256 -646 -256 -651 -245 c 2,54,-1
 -661 -223 l 1,55,-1
 -665 -212 l 1,56,-1
 -476 -271 l 1,57,-1
 -472 -279 l 1,58,-1
 -472 -290 l 1,59,-1
 -472 -309 l 2,60,61
 -472 -370 -472 -370 -488 -409 c 0,62,63
 -506 -453 -506 -453 -550 -480 c 1,64,65
 -590 -512 -590 -512 -639 -525.5 c 128,-1,66
 -688 -539 -688 -539 -742 -539 c 1,67,-1
 -779 -536 l 1,68,-1
 -816 -534 l 1,69,70
 -862 -525 -862 -525 -912 -507 c 0,71,72
 -953 -492 -953 -492 -1004 -458 c 0,73,74
 -1050 -428 -1050 -428 -1070 -383 c 0,75,76
 -1092 -335 -1092 -335 -1092 -271 c 1,77,-1
 -1095 -248 l 1,78,-1
 -1092 -226 l 2,79,80
 -1079 -129 -1079 -129 -1034 -60 c 0,81,82
 -989 11 -989 11 -920 35 c 0,83,84
 -893 44 -893 44 -850 54 c 0,85,86
 -805 66 -805 66 -772 68 c 2,87,-1
 -584 82 l 1,88,89
 -480 71 -480 71 -399 44.5 c 128,-1,90
 -318 18 -318 18 -262 -30 c 0,91,92
 -204 -78 -204 -78 -159 -132 c 0,93,94
 -108 -193 -108 -193 -80 -245 c 0,95,96
 -56 -290 -56 -290 -34 -356 c 0,97,98
 -9 -430 -9 -430 -2 -467 c 2,99,-1
 17 -573 l 1,100,-1
 -167 -627 l 1,101,-1
 -167 -627 l 1,0,-1
EndSplineSet
EndChar

StartChar: vs.vr
Encoding: 370 2371 114
Width: 4
GlyphClass: 4
Flags: W
LayerCount: 2
Fore
SplineSet
-327 -409 m 1,0,1
 -380 -453 -380 -453 -488 -489 c 0,2,3
 -597 -525 -597 -525 -684 -525 c 0,4,5
 -912 -525 -912 -525 -1033 -442 c 0,6,7
 -1155 -359 -1155 -359 -1155 -225 c 0,8,9
 -1155 -210 -1155 -210 -1152 -189 c 0,10,11
 -1129 -24 -1129 -24 -980 49 c 0,12,13
 -865 105 -865 105 -700 105 c 0,14,15
 -625 105 -625 105 -535 96 c 0,16,17
 -519 94 -519 94 -504 85 c 1,18,-1
 -454 -17 l 1,19,20
 -476 -5 -476 -5 -541 7 c 0,21,22
 -606 20 -606 20 -694 20 c 0,23,24
 -798 20 -798 20 -871 -46 c 0,25,26
 -945 -111 -945 -111 -945 -222 c 0,27,28
 -945 -328 -945 -328 -852 -382 c 0,29,30
 -775 -427 -775 -427 -647 -427 c 0,31,32
 -518 -427 -518 -427 -445 -382 c 0,33,34
 -415 -363 -415 -363 -368 -316 c 1,35,-1
 -327 -409 l 1,0,1
EndSplineSet
EndChar

StartChar: vs.vrr
Encoding: 371 2372 115
Width: 4
GlyphClass: 4
Flags: W
LayerCount: 2
Fore
SplineSet
-591 23 m 1,0,-1
 -580 24 l 1,1,2
 -530 24 -530 24 -488 30 c 0,3,4
 -445 36 -445 36 -444 41 c 2,5,-1
 -475 -44 l 1,6,7
 -494 -41 -494 -41 -540 -47 c 0,8,9
 -597 -54 -597 -54 -637 -66 c 0,10,11
 -734 -93 -734 -93 -804 -164 c 0,12,13
 -870 -231 -870 -231 -871 -303 c 0,14,15
 -870 -388 -870 -388 -720 -452 c 0,16,17
 -705 -458 -705 -458 -664 -458 c 0,18,19
 -598 -458 -598 -458 -532 -433 c 0,20,21
 -456 -404 -456 -404 -456 -392 c 2,22,-1
 -456 -523 l 1,23,24
 -490 -523 -490 -523 -573 -550 c 0,25,26
 -655 -576 -655 -576 -703 -636 c 0,27,28
 -752 -695 -752 -695 -752 -766 c 0,29,30
 -752 -891 -752 -891 -621 -921 c 0,31,32
 -597 -927 -597 -927 -580 -927 c 0,33,34
 -530 -927 -530 -927 -479 -900 c 0,35,36
 -407 -862 -407 -862 -384 -826 c 1,37,-1
 -319 -921 l 1,38,39
 -378 -951 -378 -951 -431 -971 c 0,40,41
 -565 -1022 -565 -1022 -655 -1022 c 0,42,43
 -798 -1022 -798 -1022 -881 -973 c 0,44,45
 -958 -927 -958 -927 -963 -835 c 0,46,47
 -971 -697 -971 -697 -860 -601 c 0,48,49
 -770 -523 -770 -523 -726 -523 c 1,50,51
 -769 -542 -769 -542 -913 -493 c 0,52,53
 -1088 -433 -1088 -433 -1088 -318 c 0,54,55
 -1088 -152 -1088 -152 -933 -78 c 0,56,57
 -724 23 -724 23 -591 23 c 1,0,-1
EndSplineSet
EndChar

StartChar: vs.chandrae
Encoding: 372 2373 116
Width: 4
GlyphClass: 4
Flags: W
LayerCount: 2
Fore
SplineSet
35 2104 m 0,0,1
 38 2091 38 2091 38 2080.5 c 128,-1,2
 38 2070 38 2070 38 2061 c 0,3,4
 38 1856 38 1856 -199 1759 c 0,5,6
 -389 1681 -389 1681 -686 1681 c 0,7,8
 -909 1681 -909 1681 -1061 1743 c 0,9,10
 -1260 1824 -1260 1824 -1260 1987 c 0,11,12
 -1260 2028 -1260 2028 -1245 2082 c 0,13,14
 -1218 2172 -1218 2172 -1146 2210 c 0,15,16
 -1099 2234 -1099 2234 -1031 2234 c 0,17,18
 -986 2231 -986 2231 -980 2231 c 1,19,20
 -1008 2178 -1008 2178 -1033 2111 c 128,-1,21
 -1058 2044 -1058 2044 -1058 1996 c 0,22,23
 -1058 1895 -1058 1895 -980 1836 c 0,24,25
 -885 1765 -885 1765 -669 1765 c 0,26,27
 -354 1765 -354 1765 -228 1930 c 0,28,29
 -147 2037 -147 2037 -146 2183 c 0,30,31
 -146 2198 -146 2198 -146 2207 c 128,-1,32
 -146 2216 -146 2216 -149 2225 c 1,33,34
 -119 2228 -119 2228 -87 2228 c 0,35,36
 -40 2228 -40 2228 -5.5 2201.5 c 128,-1,37
 29 2175 29 2175 35 2104 c 0,0,1
EndSplineSet
EndChar

StartChar: vs.short.e
Encoding: 373 2374 117
Width: 4
GlyphClass: 4
Flags: W
LayerCount: 2
Fore
SplineSet
-243 1497 m 1,0,-1
 -467 1497 l 1,1,2
 -448 1544 -448 1544 -432 1606.5 c 128,-1,3
 -416 1669 -416 1669 -416 1702 c 0,4,5
 -416 1774 -416 1774 -448 1812 c 0,6,7
 -489 1859 -489 1859 -579 1859 c 0,8,9
 -847 1859 -847 1859 -959 1958 c 0,10,11
 -1037 2026 -1037 2026 -1037 2145 c 0,12,13
 -1037 2186 -1037 2186 -1032.5 2208.5 c 128,-1,14
 -1028 2231 -1028 2231 -1024 2248 c 1,15,-1
 -806 2248 l 1,16,17
 -803 2242 -803 2242 -809 2216 c 0,18,19
 -830 2139 -830 2139 -831 2101 c 0,20,21
 -831 2014 -831 2014 -781 1967 c 0,22,23
 -716 1905 -716 1905 -555 1905 c 0,24,25
 -365 1905 -365 1905 -283 1821 c 0,26,27
 -223 1759 -223 1759 -223 1643 c 0,28,29
 -223 1602 -223 1602 -230 1567 c 128,-1,30
 -237 1532 -237 1532 -243 1497 c 1,0,-1
EndSplineSet
EndChar

StartChar: vs.e
Encoding: 374 2375 118
Width: 4
GlyphClass: 4
Flags: W
LayerCount: 2
Fore
SplineSet
-237 1485 m 1,0,-1
 -448 1485 l 1,1,2
 -448 1535 -448 1535 -591 1818 c 0,3,4
 -749 2136 -749 2136 -838 2136 c 0,5,6
 -891 2136 -891 2136 -953 2123 c 128,-1,7
 -1015 2110 -1015 2110 -1052 2098 c 1,8,-1
 -1078 2151 l 1,9,10
 -1059 2157 -1059 2157 -917 2186.5 c 128,-1,11
 -775 2216 -775 2216 -716 2216 c 0,12,13
 -594 2216 -594 2216 -404 1853 c 0,14,15
 -344 1731 -344 1731 -237 1485 c 1,0,-1
EndSplineSet
EndChar

StartChar: vs.ai
Encoding: 375 2376 119
Width: 4
GlyphClass: 4
Flags: W
LayerCount: 2
Fore
SplineSet
-184 1497 m 1,0,-1
 -365 1497 l 1,1,2
 -356 1532 -356 1532 -555 1839 c 0,3,4
 -766 2169 -766 2169 -818.5 2177.5 c 128,-1,5
 -871 2186 -871 2186 -893 2186 c 128,-1,6
 -915 2186 -915 2186 -927 2186 c 0,7,8
 -980 2186 -980 2186 -1007 2181.5 c 128,-1,9
 -1034 2177 -1034 2177 -1040 2177 c 1,10,-1
 -1006 2228 l 2,11,12
 -1000 2231 -1000 2231 -956 2236.5 c 128,-1,13
 -912 2242 -912 2242 -874 2242 c 0,14,15
 -844 2242 -844 2242 -823.5 2242 c 128,-1,16
 -803 2242 -803 2242 -740 2228 c 1,17,18
 -644 2216 -644 2216 -404 1856 c 0,19,20
 -327 1737 -327 1737 -184 1497 c 1,0,-1
-654 1497 m 1,21,-1
 -813 1497 l 1,22,23
 -816 1528 -816 1528 -974 1690 c 0,24,25
 -1143 1865 -1143 1865 -1211 1865 c 0,26,27
 -1262 1865 -1262 1865 -1316 1853 c 0,28,29
 -1335 1850 -1335 1850 -1395 1830 c 1,30,-1
 -1382 1883 l 1,31,32
 -1357 1895 -1357 1895 -1283 1918 c 0,33,34
 -1176 1949 -1176 1949 -1111 1949 c 0,35,36
 -1034 1949 -1034 1949 -838 1725 c 0,37,38
 -772 1649 -772 1649 -654 1497 c 1,21,-1
EndSplineSet
EndChar

StartChar: vs.chandra
Encoding: 376 2377 120
Width: 790
GlyphClass: 4
Flags: W
LayerCount: 2
Fore
SplineSet
1091 2011 m 0,0,1
 1094 1999 1094 1999 1094 1987.5 c 128,-1,2
 1094 1976 1094 1976 1094 1967 c 0,3,4
 1094 1762 1094 1762 857 1666 c 0,5,6
 667 1588 667 1588 372 1587 c 0,7,8
 148 1587 148 1587 -5 1649 c 0,9,10
 -204 1730 -204 1730 -204 1892 c 0,11,12
 -204 1933 -204 1933 -189 1990 c 0,13,14
 -162 2079 -162 2079 -89 2117 c 0,15,16
 -42 2142 -42 2142 27 2142 c 0,17,18
 71 2139 71 2139 75 2139 c 1,19,20
 48 2085 48 2085 23 2018.5 c 128,-1,21
 -2 1952 -2 1952 -2 1901 c 0,22,23
 -2 1801 -2 1801 75 1743 c 0,24,25
 171 1672 171 1672 387 1672 c 0,26,27
 702 1672 702 1672 829 1836 c 0,28,29
 910 1943 910 1943 910 2088 c 0,30,31
 910 2104 910 2104 910 2113.5 c 128,-1,32
 910 2123 910 2123 907 2133 c 1,33,34
 937 2136 937 2136 969 2136 c 0,35,36
 1016 2136 1016 2136 1050.5 2109 c 128,-1,37
 1085 2082 1085 2082 1091 2011 c 0,0,1
805 1407 m 1,38,-1
 540 1407 l 1,39,-1
 288 339 l 2,40,41
 285 330 285 330 274.5 282 c 128,-1,42
 264 234 264 234 264 196 c 0,43,44
 264 146 264 146 274.5 119.5 c 128,-1,45
 285 93 285 93 316 83.5 c 128,-1,46
 347 74 347 74 358 74 c 0,47,48
 417 74 417 74 489 140 c 0,49,50
 510 161 510 161 546 205 c 1,51,-1
 590 161 l 1,52,53
 584 146 584 146 543 106 c 0,54,55
 425 -9 425 -9 296 -9 c 0,56,57
 233 -9 233 -9 189 9 c 0,58,59
 112 39 112 39 82 104 c 128,-1,60
 52 169 52 169 52 240 c 0,61,62
 52 261 52 261 53.5 276.5 c 128,-1,63
 55 292 55 292 58 309 c 2,64,-1
 329 1407 l 1,65,-1
 -1 1407 l 1,66,-1
 -1 1497 l 1,67,-1
 805 1497 l 1,68,-1
 805 1407 l 1,38,-1
EndSplineSet
Ligature2: "'psts' Post Base Substitutions in Devanagari lookup 10 subtable" vs.aa vs.chandrae
EndChar

StartChar: vs.short.o
Encoding: 377 2378 121
Width: 805
GlyphClass: 4
Flags: W
LayerCount: 2
Fore
SplineSet
806 1407 m 1,0,-1
 541 1407 l 1,1,-1
 289 339 l 2,2,3
 286 330 286 330 275 282 c 128,-1,4
 264 234 264 234 264 196 c 0,5,6
 264 146 264 146 275 119.5 c 128,-1,7
 286 93 286 93 317 83.5 c 128,-1,8
 348 74 348 74 359 74 c 0,9,10
 418 74 418 74 489 140 c 0,11,12
 511 161 511 161 547 205 c 1,13,-1
 591 161 l 1,14,15
 585 146 585 146 544 106 c 0,16,17
 426 -9 426 -9 296 -9 c 0,18,19
 234 -9 234 -9 190 9 c 0,20,21
 112 39 112 39 82.5 104 c 128,-1,22
 53 169 53 169 53 240 c 0,23,24
 53 261 53 261 54.5 276.5 c 128,-1,25
 56 292 56 292 59 309 c 2,26,-1
 330 1407 l 1,27,-1
 0 1407 l 1,28,-1
 0 1497 l 1,29,-1
 806 1497 l 1,30,-1
 806 1407 l 1,0,-1
541 1497 m 1,31,-1
 318 1497 l 1,32,33
 336 1544 336 1544 352 1606.5 c 128,-1,34
 368 1669 368 1669 368 1702 c 0,35,36
 368 1774 368 1774 336 1812 c 0,37,38
 295 1859 295 1859 205 1859 c 0,39,40
 -62 1859 -62 1859 -175 1958 c 0,41,42
 -252 2026 -252 2026 -252 2145 c 0,43,44
 -252 2186 -252 2186 -247.5 2208.5 c 128,-1,45
 -243 2231 -243 2231 -240 2248 c 1,46,-1
 -21 2248 l 1,47,48
 -18 2242 -18 2242 -24 2216 c 0,49,50
 -46 2139 -46 2139 -47 2101 c 0,51,52
 -47 2014 -47 2014 3 1967 c 0,53,54
 68 1905 68 1905 231 1905 c 0,55,56
 421 1905 421 1905 502 1821 c 0,57,58
 561 1759 561 1759 561 1643 c 0,59,60
 561 1590 561 1590 552.5 1554 c 128,-1,61
 544 1518 544 1518 541 1497 c 1,31,-1
EndSplineSet
EndChar

StartChar: vs.o
Encoding: 378 2379 122
Width: 805
GlyphClass: 4
Flags: W
LayerCount: 2
Fore
SplineSet
517 1485 m 1,0,-1
 306 1485 l 1,1,2
 306 1535 306 1535 163 1818 c 0,3,4
 5 2136 5 2136 -83 2136 c 0,5,6
 -136 2136 -136 2136 -198.5 2123 c 128,-1,7
 -261 2110 -261 2110 -298 2098 c 1,8,-1
 -323 2151 l 1,9,10
 -305 2157 -305 2157 -163 2186.5 c 128,-1,11
 -21 2216 -21 2216 38 2216 c 0,12,13
 160 2216 160 2216 350 1853 c 0,14,15
 411 1731 411 1731 517 1485 c 1,0,-1
806 1407 m 1,16,-1
 541 1407 l 1,17,-1
 289 339 l 2,18,19
 286 330 286 330 275 282 c 128,-1,20
 264 234 264 234 264 196 c 0,21,22
 264 146 264 146 275 119.5 c 128,-1,23
 286 93 286 93 317 83.5 c 128,-1,24
 348 74 348 74 359 74 c 0,25,26
 418 74 418 74 489 140 c 0,27,28
 511 161 511 161 547 205 c 1,29,-1
 591 161 l 1,30,31
 585 146 585 146 544 106 c 0,32,33
 426 -9 426 -9 296 -9 c 0,34,35
 234 -9 234 -9 190 9 c 0,36,37
 112 39 112 39 82.5 104 c 128,-1,38
 53 169 53 169 53 240 c 0,39,40
 53 261 53 261 54.5 276.5 c 128,-1,41
 56 292 56 292 59 309 c 2,42,-1
 330 1407 l 1,43,-1
 0 1407 l 1,44,-1
 0 1497 l 1,45,-1
 806 1497 l 1,46,-1
 806 1407 l 1,16,-1
EndSplineSet
EndChar

StartChar: vs.au
Encoding: 379 2380 123
Width: 805
GlyphClass: 4
Flags: W
LayerCount: 2
Fore
SplineSet
806 1407 m 1,0,-1
 541 1407 l 1,1,-1
 289 339 l 2,2,3
 286 330 286 330 275 282 c 128,-1,4
 264 234 264 234 264 196 c 0,5,6
 264 146 264 146 275 119.5 c 128,-1,7
 286 93 286 93 317 83.5 c 128,-1,8
 348 74 348 74 359 74 c 0,9,10
 418 74 418 74 489 140 c 0,11,12
 511 161 511 161 547 205 c 1,13,-1
 591 161 l 1,14,15
 585 146 585 146 544 106 c 0,16,17
 426 -9 426 -9 296 -9 c 0,18,19
 234 -9 234 -9 190 9 c 0,20,21
 112 39 112 39 82.5 104 c 128,-1,22
 53 169 53 169 53 240 c 0,23,24
 53 261 53 261 54.5 276.5 c 128,-1,25
 56 292 56 292 59 309 c 2,26,-1
 330 1407 l 1,27,-1
 0 1407 l 1,28,-1
 0 1497 l 1,29,-1
 806 1497 l 1,30,-1
 806 1407 l 1,0,-1
728 1497 m 1,31,-1
 547 1497 l 1,32,33
 556 1532 556 1532 359 1839 c 0,34,35
 147 2169 147 2169 94 2177.5 c 128,-1,36
 41 2186 41 2186 19 2186 c 128,-1,37
 -3 2186 -3 2186 -15 2186 c 0,38,39
 -68 2186 -68 2186 -95 2181.5 c 128,-1,40
 -122 2177 -122 2177 -128 2177 c 1,41,-1
 -93 2228 l 2,42,43
 -87 2231 -87 2231 -43.5 2236.5 c 128,-1,44
 0 2242 0 2242 38 2242 c 0,45,46
 68 2242 68 2242 88.5 2242 c 128,-1,47
 109 2242 109 2242 172 2228 c 1,48,49
 268 2216 268 2216 508 1856 c 0,50,51
 585 1737 585 1737 728 1497 c 1,31,-1
258 1497 m 1,52,-1
 100 1497 l 1,53,54
 97 1528 97 1528 -62 1690 c 0,55,56
 -231 1865 -231 1865 -299 1865 c 0,57,58
 -350 1865 -350 1865 -404 1853 c 0,59,60
 -423 1850 -423 1850 -482 1830 c 1,61,-1
 -470 1883 l 1,62,63
 -445 1895 -445 1895 -371 1918 c 0,64,65
 -264 1949 -264 1949 -199 1949 c 0,66,67
 -122 1949 -122 1949 74 1725 c 0,68,69
 140 1649 140 1649 258 1497 c 1,52,-1
EndSplineSet
EndChar

StartChar: vs.virama
Encoding: 380 2381 124
Width: 4
GlyphClass: 4
Flags: W
LayerCount: 2
Fore
SplineSet
-190 -579 m 1,0,-1
 -289 -713 l 1,1,2
 -410 -713 -410 -713 -510 -512.5 c 128,-1,3
 -610 -312 -610 -312 -722 -283 c 0,4,5
 -766 -274 -766 -274 -819 -274 c 0,6,7
 -885 -274 -885 -274 -901.5 -275.5 c 128,-1,8
 -918 -277 -918 -277 -933 -283 c 1,9,-1
 -903 -214 l 1,10,11
 -872 -208 -872 -208 -828 -205 c 128,-1,12
 -784 -202 -784 -202 -722 -202 c 256,13,14
 -660 -202 -660 -202 -603.5 -208 c 128,-1,15
 -547 -214 -547 -214 -480 -244 c 128,-1,16
 -413 -274 -413 -274 -371 -362 c 0,17,18
 -274 -549 -274 -549 -190 -579 c 1,0,-1
EndSplineSet
EndChar

StartChar: uni094E
Encoding: 381 2382 125
Width: 709
GlyphClass: 2
Flags: W
LayerCount: 2
Fore
SplineSet
796 1336 m 1,0,-1
 389 1336 l 1,1,-1
 389 0 l 1,2,-1
 214 101 l 1,3,-1
 220 1336 l 1,4,-1
 220 1497 l 1,5,-1
 709 1497 l 1,6,-1
 796 1336 l 1,0,-1
EndSplineSet
EndChar

StartChar: s.aw
Encoding: 382 2383 126
Width: 805
GlyphClass: 2
Flags: W
LayerCount: 2
Fore
SplineSet
806 1407 m 1,0,-1
 541 1407 l 1,1,-1
 289 339 l 2,2,3
 286 330 286 330 275 282 c 128,-1,4
 264 234 264 234 264 196 c 0,5,6
 264 146 264 146 275 119.5 c 128,-1,7
 286 93 286 93 317 83.5 c 128,-1,8
 348 74 348 74 359 74 c 0,9,10
 418 74 418 74 489 140 c 0,11,12
 511 161 511 161 547 205 c 1,13,-1
 591 161 l 1,14,15
 585 146 585 146 544 106 c 0,16,17
 426 -9 426 -9 296 -9 c 0,18,19
 234 -9 234 -9 190 9 c 0,20,21
 112 39 112 39 82.5 104 c 128,-1,22
 53 169 53 169 53 240 c 0,23,24
 53 261 53 261 54.5 276.5 c 128,-1,25
 56 292 56 292 59 309 c 2,26,-1
 330 1407 l 1,27,-1
 0 1407 l 1,28,-1
 0 1497 l 1,29,-1
 806 1497 l 1,30,-1
 806 1407 l 1,0,-1
619 1414 m 1,31,-1
 406 1481 l 1,32,33
 437 1520 437 1520 472 1575 c 0,34,35
 505 1630 505 1630 516 1662 c 0,36,37
 538 1732 538 1732 518 1776 c 0,38,39
 493 1833 493 1833 408 1860 c 0,40,41
 154 1939 154 1939 75 2069 c 0,42,43
 22 2156 22 2156 57 2270 c 0,44,45
 69 2309 69 2309 81 2330 c 0,46,47
 92 2350 92 2350 100 2365 c 1,48,-1
 309 2299 l 1,49,50
 309 2290 309 2290 296 2270 c 0,51,52
 252 2202 252 2202 240 2167 c 0,53,54
 214 2087 214 2087 247 2024 c 0,55,56
 289 1946 289 1946 446 1896 c 0,57,58
 629 1837 629 1837 679 1735 c 0,59,60
 717 1656 717 1656 682 1547 c 0,61,62
 665 1496 665 1496 647 1465 c 0,63,64
 628 1433 628 1433 619 1414 c 1,31,-1
-505 2017 m 1,65,-1
 -288 2072 l 1,66,67
 -295 2023 -295 2023 -295 1958 c 0,68,69
 -295 1894 -295 1894 -287 1861 c 0,70,71
 -269 1790 -269 1790 -229 1763 c 0,72,73
 -176 1728 -176 1728 -91 1749 c 0,74,75
 166 1815 166 1815 302 1746 c 0,76,77
 395 1699 395 1699 423 1584 c 0,78,79
 432 1545 432 1545 434 1521 c 0,80,81
 435 1499 435 1499 436 1481 c 1,82,-1
 224 1427 l 1,83,84
 218 1435 218 1435 219 1459 c 0,85,86
 221 1540 221 1540 213 1577 c 0,87,88
 194 1659 194 1659 132 1694 c 0,89,90
 54 1738 54 1738 -105 1698 c 0,91,92
 -291 1652 -291 1652 -387 1713 c 0,93,94
 -460 1759 -460 1759 -488 1871 c 0,95,96
 -502 1923 -502 1923 -502 1959 c 0,97,98
 -503 1997 -503 1997 -505 2017 c 1,65,-1
EndSplineSet
EndChar

StartChar: aum
Encoding: 383 2384 127
Width: 2632
GlyphClass: 2
Flags: W
LayerCount: 2
Fore
SplineSet
1694 1838 m 1,0,-1
 1551 1697 l 1,1,-1
 1408 1838 l 1,2,-1
 1551 1978 l 1,3,-1
 1694 1838 l 1,0,-1
2068 1709 m 1,4,5
 2024 1567 2024 1567 1895.5 1457.5 c 128,-1,6
 1767 1348 1767 1348 1631 1348 c 0,7,8
 1371 1348 1371 1348 1095 1775 c 1,9,-1
 1170 1824 l 1,10,11
 1371 1509 1371 1509 1582 1508 c 0,12,13
 1803 1508 1803 1508 1932 1795 c 1,14,-1
 2068 1709 l 1,4,5
2463 794 m 0,15,16
 2463 633 2463 633 2374 535.5 c 128,-1,17
 2285 438 2285 438 2153 438 c 0,18,19
 1998 438 1998 438 1830 662 c 1,20,21
 1652 353 1652 353 1483 353 c 0,22,23
 1343 353 1343 353 1163 588 c 1,24,-1
 1152 588 l 1,25,26
 1166 433 1166 433 1064 330 c 0,27,28
 955 218 955 218 766 218 c 0,29,30
 424 218 424 218 169 769 c 1,31,-1
 246 815 l 1,32,33
 441 379 441 379 720 378 c 0,34,35
 843 378 843 378 920.5 462.5 c 128,-1,36
 998 547 998 547 998 659 c 0,37,38
 998 823 998 823 846 869 c 1,39,40
 624 784 624 784 599 783 c 0,41,42
 580 783 580 783 525 844.5 c 128,-1,43
 470 906 470 906 470 923 c 0,44,45
 470 972 470 972 519 972 c 0,46,47
 542 972 542 972 633.5 985 c 128,-1,48
 725 998 725 998 745 998 c 0,49,50
 785 998 785 998 837 1056 c 0,51,52
 903 1127 903 1127 903 1215 c 0,53,54
 903 1393 903 1393 731 1393 c 0,55,56
 648 1393 648 1393 527.5 1328.5 c 128,-1,57
 407 1264 407 1264 410 1264 c 1,58,59
 388 1264 388 1264 367 1299 c 0,60,61
 335 1354 335 1354 309 1420 c 1,62,63
 504 1520 504 1520 629 1519 c 0,64,65
 777 1519 777 1519 930 1376 c 0,66,67
 1058 1256 1058 1256 1058 1130 c 0,68,69
 1058 1070 1058 1070 1019 1009.5 c 128,-1,70
 980 949 980 949 923 923 c 1,71,72
 997 885 997 885 1278 585 c 0,73,74
 1347 514 1347 514 1411 514 c 0,75,76
 1572 514 1572 514 1743.5 846.5 c 128,-1,77
 1915 1179 1915 1179 2128 1179 c 0,78,79
 2248 1179 2248 1179 2351 1070 c 0,80,81
 2463 952 2463 952 2463 794 c 0,15,16
2334 878 m 0,82,83
 2334 946 2334 946 2297 999.5 c 128,-1,84
 2260 1053 2260 1053 2208 1053 c 0,85,86
 2110 1053 2110 1053 2040 986.5 c 128,-1,87
 1970 920 1970 920 1877 742 c 1,88,89
 1952 599 1952 599 2099 599 c 0,90,91
 2173 599 2173 599 2248 673 c 0,92,93
 2334 760 2334 760 2334 878 c 0,82,83
EndSplineSet
EndChar

StartChar: vs.udatta
Encoding: 384 2385 128
Width: 4
GlyphClass: 4
Flags: W
LayerCount: 2
Fore
SplineSet
-102 1497 m 1,0,-1
 -320 1497 l 1,1,2
 -229 1859 -229 1859 -210 1933 c 1,3,-1
 1 1933 l 1,4,-1
 -102 1497 l 1,0,-1
EndSplineSet
EndChar

StartChar: vs.anudatta
Encoding: 385 2386 129
Width: 0
GlyphClass: 4
Flags: W
LayerCount: 2
Fore
SplineSet
-175 -118 m 1,0,-1
 -74 -277 l 1,1,-1
 -854 -277 l 1,2,-1
 -954 -118 l 1,3,-1
 -175 -118 l 1,0,-1
EndSplineSet
EndChar

StartChar: uni0953
Encoding: 386 2387 130
Width: 0
GlyphClass: 4
Flags: W
LayerCount: 2
Fore
SplineSet
-749 1945 m 1,0,-1
 -482 1945 l 1,1,-1
 -326 1486 l 1,2,-1
 -456 1486 l 1,3,-1
 -749 1945 l 1,0,-1
EndSplineSet
EndChar

StartChar: vs.acute.accent
Encoding: 387 2388 131
Width: 0
GlyphClass: 4
Flags: W
LayerCount: 2
Fore
SplineSet
-326 1486 m 1,0,-1
 -456 1486 l 1,1,-1
 -300 1945 l 1,2,-1
 -33 1945 l 1,3,-1
 -326 1486 l 1,0,-1
EndSplineSet
EndChar

StartChar: uni0955
Encoding: 388 2389 132
Width: 0
GlyphClass: 2
Flags: W
LayerCount: 2
Fore
SplineSet
28 2174 m 1,0,1
 -15 2059 -15 2059 -129 1977.5 c 128,-1,2
 -243 1896 -243 1896 -358 1896 c 0,3,4
 -504 1896 -504 1896 -637 2004 c 0,5,6
 -749 2097 -749 2097 -814 2234 c 1,7,-1
 -746 2269 l 1,8,9
 -593 2039 -593 2039 -421 2039 c 0,10,11
 -315 2039 -315 2039 -224 2130 c 0,12,13
 -158 2199 -158 2199 -120 2294 c 1,14,-1
 28 2174 l 1,0,1
-14 1782 m 1,15,-1
 87 1623 l 1,16,-1
 -693 1623 l 1,17,-1
 -793 1782 l 1,18,-1
 -14 1782 l 1,15,-1
EndSplineSet
EndChar

StartChar: uni0956
Encoding: 389 2390 133
Width: 0
GlyphClass: 2
Flags: W
LayerCount: 2
Fore
SplineSet
-178 -80 m 1,0,1
 -358 -347 -358 -347 -606 -347 c 0,2,3
 -893 -347 -893 -347 -1034 -80 c 1,4,-1
 -912 -80 l 1,5,6
 -780 -216 -780 -216 -606 -215 c 0,7,8
 -420 -214 -420 -214 -300 -80 c 1,9,-1
 -178 -80 l 1,0,1
EndSplineSet
EndChar

StartChar: uni0957
Encoding: 390 2391 134
Width: 0
GlyphClass: 2
Flags: W
LayerCount: 2
Fore
SplineSet
-178 -350 m 1,0,1
 -358 -617 -358 -617 -606 -617 c 0,2,3
 -893 -617 -893 -617 -1034 -350 c 1,4,-1
 -912 -350 l 1,5,6
 -780 -486 -780 -486 -606 -485 c 0,7,8
 -420 -484 -420 -484 -300 -350 c 1,9,-1
 -178 -350 l 1,0,1
-178 -80 m 1,10,11
 -358 -347 -358 -347 -606 -347 c 0,12,13
 -893 -347 -893 -347 -1034 -80 c 1,14,-1
 -912 -80 l 1,15,16
 -780 -216 -780 -216 -606 -215 c 0,17,18
 -420 -214 -420 -214 -300 -80 c 1,19,-1
 -178 -80 l 1,10,11
EndSplineSet
EndChar

StartChar: l.qa
Encoding: 391 2392 135
Width: 2159
GlyphClass: 2
Flags: W
LayerCount: 2
Fore
SplineSet
490 117 m 1,0,-1
 396 -150 l 1,1,-1
 86 -150 l 1,2,-1
 181 117 l 1,3,-1
 490 117 l 1,0,-1
2160 1407 m 1,4,-1
 1271 1407 l 1,5,-1
 1195 1096 l 1,6,7
 1236 1114 1236 1114 1280 1129 c 0,8,9
 1376 1160 1376 1160 1464 1161 c 0,10,11
 1678 1161 1678 1161 1831 1060 c 128,-1,12
 1984 959 1984 959 1984 784 c 0,13,14
 1981 757 1981 757 1981 743 c 0,15,16
 1962 535 1962 535 1797 430 c 0,17,18
 1663 343 1663 343 1473 342 c 2,19,-1
 1435 342 l 2,20,21
 1414 342 1414 342 1368 349.5 c 128,-1,22
 1322 357 1322 357 1268 379 c 128,-1,23
 1214 401 1214 401 1195 413 c 1,24,-1
 1221 479 l 1,25,26
 1227 476 1227 476 1260 461 c 0,27,28
 1338 426 1338 426 1388 427 c 0,29,30
 1543 427 1543 427 1643 505 c 0,31,32
 1759 594 1759 594 1759 757 c 0,33,34
 1759 903 1759 903 1678 983 c 0,35,36
 1588 1073 1588 1073 1411 1075 c 0,37,38
 1339 1075 1339 1075 1257 1046 c 0,39,40
 1198 1027 1198 1027 1176 1009 c 1,41,-1
 1012 339 l 2,42,43
 1006 327 1006 327 994.5 282 c 128,-1,44
 983 237 983 237 983 190 c 256,45,46
 983 143 983 143 994.5 118 c 128,-1,47
 1006 93 1006 93 1035 83.5 c 128,-1,48
 1064 74 1064 74 1075 74 c 0,49,50
 1146 74 1146 74 1233 161 c 0,51,52
 1245 173 1245 173 1271 205 c 1,53,-1
 1310 161 l 1,54,55
 1304 146 1304 146 1263 106 c 0,56,57
 1145 -9 1145 -9 1015 -9 c 0,58,59
 953 -9 953 -9 909 9 c 0,60,61
 831 36 831 36 801.5 100 c 128,-1,62
 772 164 772 164 772 237 c 0,63,64
 772 261 772 261 773.5 276.5 c 128,-1,65
 775 292 775 292 778 309 c 2,66,-1
 800 404 l 1,67,68
 737 380 737 380 701 371 c 0,69,70
 576 333 576 333 496 333 c 0,71,72
 309 333 309 333 187 410 c 0,73,74
 38 506 38 506 38 701 c 0,75,76
 38 742 38 742 41 763 c 0,77,78
 65 959 65 959 211 1064 c 0,79,80
 342 1157 342 1157 535 1158 c 0,81,82
 556 1158 556 1158 582 1158 c 1,83,84
 613 1152 613 1152 660 1147.5 c 128,-1,85
 707 1143 707 1143 763 1119.5 c 128,-1,86
 819 1096 819 1096 825 1093 c 1,87,-1
 787 1021 l 1,88,89
 772 1031 772 1031 760 1040 c 0,90,91
 698 1075 698 1075 641 1075 c 0,92,93
 489 1075 489 1075 378.5 973 c 128,-1,94
 268 871 268 871 268 725 c 0,95,96
 268 588 268 588 344 497.5 c 128,-1,97
 420 407 420 407 555 407 c 0,98,99
 638 407 638 407 728 451 c 0,100,101
 796 482 796 482 825 517 c 1,102,-1
 1046 1407 l 1,103,-1
 0 1407 l 1,104,-1
 0 1497 l 1,105,-1
 2160 1497 l 1,106,-1
 2160 1407 l 1,4,-1
EndSplineSet
Ligature2: "'nukt' Nukta Forms in Devanagari lookup 0 subtable" l.ka s.nukta
EndChar

StartChar: l.khha
Encoding: 392 2393 136
Width: 2658
GlyphClass: 2
Flags: W
LayerCount: 2
Fore
SplineSet
270 117 m 1,0,-1
 176 -150 l 1,1,-1
 -134 -150 l 1,2,-1
 -39 117 l 1,3,-1
 270 117 l 1,0,-1
2658 1497 m 1,4,-1
 2658 1407 l 1,5,-1
 2394 1407 l 1,6,-1
 2142 339 l 2,7,8
 2139 330 2139 330 2128 282 c 128,-1,9
 2117 234 2117 234 2117 196 c 0,10,11
 2117 146 2117 146 2128 119.5 c 128,-1,12
 2139 93 2139 93 2170 83.5 c 128,-1,13
 2201 74 2201 74 2210 74 c 0,14,15
 2269 74 2269 74 2341 140 c 0,16,17
 2362 161 2362 161 2400 205 c 1,18,-1
 2444 161 l 1,19,20
 2438 146 2438 146 2397 106 c 0,21,22
 2278 -9 2278 -9 2148 -9 c 0,23,24
 2085 -9 2085 -9 2041 9 c 0,25,26
 1964 39 1964 39 1934.5 104 c 128,-1,27
 1905 169 1905 169 1905 240 c 0,28,29
 1905 261 1905 261 1906.5 276.5 c 128,-1,30
 1908 292 1908 292 1911 309 c 2,31,-1
 2183 1407 l 1,32,-1
 879 1407 l 1,33,34
 917 1360 917 1360 930 1328 c 0,35,36
 983 1228 983 1228 983 1123 c 0,37,38
 983 1105 983 1105 983 1087 c 1,39,40
 977 1062 977 1062 977 1049 c 0,41,42
 942 844 942 844 710 737 c 0,43,44
 632 702 632 702 482 672 c 1,45,46
 500 622 500 622 517.5 569.5 c 128,-1,47
 535 517 535 517 544 473 c 0,48,49
 582 312 582 312 632 223 c 0,50,51
 713 77 713 77 844 62 c 0,52,53
 859 59 859 59 891 59 c 0,54,55
 1059 59 1059 59 1202 208 c 0,56,57
 1312 321 1312 321 1316 380 c 1,58,59
 1278 421 1278 421 1263 454 c 0,60,61
 1210 561 1210 561 1211 704 c 0,62,63
 1211 906 1211 906 1363 1042.5 c 128,-1,64
 1515 1179 1515 1179 1728 1179 c 0,65,66
 1853 1179 1853 1179 1949 1149 c 0,67,68
 1979 1140 1979 1140 2023 1114 c 1,69,-1
 1993 1015 l 1,70,71
 1974 1034 1974 1034 1940 1052 c 0,72,73
 1877 1087 1877 1087 1809 1087 c 0,74,75
 1640 1087 1640 1087 1540.5 970 c 128,-1,76
 1441 853 1441 853 1441 685 c 0,77,78
 1441 527 1441 527 1530 437.5 c 128,-1,79
 1619 348 1619 348 1759 348 c 0,80,81
 1830 348 1830 348 1874 407 c 1,82,83
 1892 438 1892 438 1911 473 c 1,84,-1
 1911 348 l 1,85,86
 1873 310 1873 310 1836 274 c 1,87,88
 1777 239 1777 239 1699 240 c 0,89,90
 1596 240 1596 240 1512 264 c 0,91,92
 1474 277 1474 277 1429 299 c 1,93,94
 1328 147 1328 147 1316 137 c 0,95,96
 1155 -15 1155 -15 879 -15 c 0,97,98
 851 -15 851 -15 822 -15 c 0,99,100
 778 -9 778 -9 757 -9 c 0,101,102
 549 12 549 12 436 196 c 0,103,104
 380 289 380 289 237 685 c 0,105,106
 210 763 210 763 161 806 c 1,107,108
 111 833 111 833 65 862 c 1,109,110
 106 877 106 877 131 885 c 0,111,112
 205 906 205 906 255 906 c 0,113,114
 342 906 342 906 398 831 c 0,115,116
 420 801 420 801 442 737 c 1,117,118
 573 781 573 781 606 803 c 0,119,120
 768 906 768 906 769 1102 c 0,121,122
 769 1221 769 1221 713 1325 c 0,123,124
 695 1360 695 1360 657 1407 c 1,125,-1
 0 1407 l 1,126,-1
 0 1497 l 1,127,-1
 2658 1497 l 1,4,-1
EndSplineSet
Ligature2: "'nukt' Nukta Forms in Devanagari lookup 0 subtable" l.kh s.nukta
EndChar

StartChar: l.ghha
Encoding: 393 2394 137
Width: 2035
GlyphClass: 2
Flags: W
LayerCount: 2
Fore
SplineSet
750 117 m 1,0,-1
 656 -150 l 1,1,-1
 346 -150 l 1,2,-1
 441 117 l 1,3,-1
 750 117 l 1,0,-1
2035 1497 m 1,4,-1
 2035 1407 l 1,5,-1
 1771 1407 l 1,6,-1
 1518 339 l 2,7,8
 1515 330 1515 330 1504.5 282 c 128,-1,9
 1494 234 1494 234 1494 196 c 0,10,11
 1494 146 1494 146 1504.5 119.5 c 128,-1,12
 1515 93 1515 93 1546.5 83.5 c 128,-1,13
 1578 74 1578 74 1587 74 c 0,14,15
 1646 74 1646 74 1718 140 c 0,16,17
 1739 161 1739 161 1777 205 c 1,18,-1
 1821 161 l 1,19,20
 1815 146 1815 146 1774 106 c 0,21,22
 1655 -9 1655 -9 1526 -9 c 0,23,24
 1464 -9 1464 -9 1420 9 c 0,25,26
 1342 39 1342 39 1312.5 104 c 128,-1,27
 1283 169 1283 169 1283 240 c 0,28,29
 1283 261 1283 261 1284.5 276.5 c 128,-1,30
 1286 292 1286 292 1289 309 c 2,31,-1
 1560 1407 l 1,32,-1
 953 1407 l 1,33,34
 1009 1324 1009 1324 1037 1266 c 0,35,36
 1123 1085 1123 1085 1123 915 c 2,37,-1
 1123 877 l 2,38,39
 1123 859 1123 859 1117 816 c 0,40,41
 1090 611 1090 611 932.5 491 c 128,-1,42
 775 371 775 371 544 371 c 0,43,44
 500 371 500 371 476 374 c 0,45,46
 307 389 307 389 196 467 c 0,47,48
 65 556 65 556 65 692 c 2,49,-1
 65 719 l 1,50,51
 84 874 84 874 183.5 955.5 c 128,-1,52
 283 1037 283 1037 424 1037 c 0,53,54
 468 1037 468 1037 514.5 1027.5 c 128,-1,55
 561 1018 561 1018 629 989 c 0,56,57
 651 980 651 980 695 962 c 1,58,-1
 663 882 l 1,59,60
 638 897 638 897 623 903 c 0,61,62
 576 924 576 924 541 924 c 0,63,64
 432 924 432 924 360.5 858.5 c 128,-1,65
 289 793 289 793 289 692 c 0,66,67
 289 585 289 585 356.5 523 c 128,-1,68
 424 461 424 461 535 451 c 1,69,70
 704 451 704 451 803.5 576 c 128,-1,71
 903 701 903 701 903 874 c 2,72,-1
 903 909 l 2,73,74
 903 1043 903 1043 819 1239 c 0,75,76
 792 1301 792 1301 734 1407 c 1,77,-1
 0 1407 l 1,78,-1
 0 1497 l 1,79,-1
 2035 1497 l 1,4,-1
EndSplineSet
Ligature2: "'nukt' Nukta Forms in Devanagari lookup 0 subtable" l.ga s.nukta
EndChar

StartChar: l.za
Encoding: 394 2395 138
Width: 2035
GlyphClass: 2
Flags: W
LayerCount: 2
Fore
SplineSet
587 117 m 1,0,-1
 493 -150 l 1,1,-1
 183 -150 l 1,2,-1
 278 117 l 1,3,-1
 587 117 l 1,0,-1
1420 1081 m 1,4,-1
 1420 983 l 1,5,-1
 1072 983 l 1,6,7
 1119 936 1119 936 1144.5 876 c 128,-1,8
 1170 816 1170 816 1170 731 c 0,9,10
 1170 678 1170 678 1164 651 c 0,11,12
 1129 430 1129 430 959 324 c 0,13,14
 825 243 825 243 629 243 c 0,15,16
 567 243 567 243 514 252 c 0,17,18
 315 277 315 277 208 362 c 0,19,20
 81 462 81 462 81 647 c 0,21,22
 81 689 81 689 87 755.5 c 128,-1,23
 93 822 93 822 155 921 c 0,24,25
 185 971 185 971 223 1009 c 1,26,-1
 461 1009 l 1,27,28
 423 979 423 979 365 850 c 0,29,30
 318 749 318 749 310 698 c 128,-1,31
 302 647 302 647 302 609 c 0,32,33
 302 503 302 503 363 421 c 128,-1,34
 424 339 424 339 526 327 c 0,35,36
 547 324 547 324 585 324 c 0,37,38
 740 324 740 324 843.5 423.5 c 128,-1,39
 947 523 947 523 947 692 c 0,40,41
 947 813 947 813 885 909 c 0,42,43
 866 939 866 939 819 983 c 1,44,-1
 701 983 l 1,45,-1
 734 1081 l 1,46,-1
 1420 1081 l 1,4,-1
2035 1497 m 1,47,-1
 2035 1407 l 1,48,-1
 1771 1407 l 1,49,-1
 1518 339 l 2,50,51
 1515 330 1515 330 1504.5 282 c 128,-1,52
 1494 234 1494 234 1494 196 c 0,53,54
 1494 146 1494 146 1504.5 119.5 c 128,-1,55
 1515 93 1515 93 1546.5 83.5 c 128,-1,56
 1578 74 1578 74 1587 74 c 0,57,58
 1646 74 1646 74 1718 140 c 0,59,60
 1739 161 1739 161 1777 205 c 1,61,-1
 1821 161 l 1,62,63
 1815 146 1815 146 1774 106 c 0,64,65
 1655 -9 1655 -9 1526 -9 c 0,66,67
 1464 -9 1464 -9 1420 9 c 0,68,69
 1342 39 1342 39 1312.5 104 c 128,-1,70
 1283 169 1283 169 1283 240 c 0,71,72
 1283 261 1283 261 1284.5 276.5 c 128,-1,73
 1286 292 1286 292 1289 309 c 2,74,-1
 1560 1407 l 1,75,-1
 0 1407 l 1,76,-1
 0 1497 l 1,77,-1
 2035 1497 l 1,47,-1
EndSplineSet
Ligature2: "'nukt' Nukta Forms in Devanagari lookup 0 subtable" l.ja s.nukta
EndChar

StartChar: l.dddha
Encoding: 395 2396 139
Width: 1734
GlyphClass: 2
Flags: W
LayerCount: 2
Fore
SplineSet
957 -103 m 1,0,-1
 863 -370 l 1,1,-1
 553 -370 l 1,2,-1
 648 -103 l 1,3,-1
 957 -103 l 1,0,-1
1734 1407 m 1,4,-1
 1382 1407 l 1,5,-1
 1280 956 l 1,6,-1
 1129 956 l 1,7,8
 1082 994 1082 994 1006 1024.5 c 128,-1,9
 930 1055 930 1055 847 1055 c 0,10,11
 713 1055 713 1055 626 1015 c 0,12,13
 514 962 514 962 514 856 c 0,14,15
 514 731 514 731 660 685 c 0,16,17
 766 651 766 651 953 651 c 0,18,19
 1208 651 1208 651 1318.5 585.5 c 128,-1,20
 1429 520 1429 520 1429 354 c 0,21,22
 1429 77 1429 77 1040 33 c 0,23,24
 930 21 930 21 648 21 c 0,25,26
 293 21 293 21 152 193 c 1,27,28
 111 286 111 286 71 380 c 1,29,-1
 306 427 l 1,30,31
 324 334 324 334 348 286 c 0,32,33
 429 137 429 137 617 103 c 0,34,35
 717 88 717 88 787 87 c 0,36,37
 974 87 974 87 1089.5 152 c 128,-1,38
 1205 217 1205 217 1205 342 c 0,39,40
 1205 476 1205 476 1122.5 523 c 128,-1,41
 1040 570 1040 570 813 570 c 0,42,43
 585 570 585 570 454 623 c 0,44,45
 274 698 274 698 274 862 c 0,46,47
 274 1008 274 1008 394 1081.5 c 128,-1,48
 514 1155 514 1155 701 1155 c 0,49,50
 760 1155 760 1155 833 1147.5 c 128,-1,51
 906 1140 906 1140 1002 1114 c 0,52,53
 1037 1105 1037 1105 1093 1087 c 1,54,-1
 1164 1407 l 1,55,-1
 0 1407 l 1,56,-1
 0 1497 l 1,57,-1
 1734 1497 l 1,58,-1
 1734 1407 l 1,4,-1
EndSplineSet
Ligature2: "'nukt' Nukta Forms in Devanagari lookup 0 subtable" l.dda s.nukta
EndChar

StartChar: l.dddhha
Encoding: 396 2397 140
Width: 1615
GlyphClass: 2
Flags: W
LayerCount: 2
Fore
SplineSet
957 -103 m 1,0,-1
 863 -370 l 1,1,-1
 553 -370 l 1,2,-1
 648 -103 l 1,3,-1
 957 -103 l 1,0,-1
1616 1407 m 1,4,-1
 1221 1407 l 1,5,-1
 1111 950 l 1,6,7
 1070 965 1070 965 970.5 977 c 128,-1,8
 871 989 871 989 766 989 c 0,9,10
 576 989 576 989 437.5 876 c 128,-1,11
 299 763 299 763 280 576 c 0,12,13
 277 558 277 558 277 517 c 0,14,15
 277 348 277 348 388 241 c 128,-1,16
 499 134 499 134 654 134 c 0,17,18
 927 134 927 134 1074 223 c 128,-1,19
 1221 312 1221 312 1221 433 c 1,20,21
 1227 511 1227 511 1167.5 554 c 128,-1,22
 1108 597 1108 597 1021 597 c 0,23,24
 932 597 932 597 866 548 c 128,-1,25
 800 499 800 499 800 404 c 0,26,27
 800 336 800 336 853 292 c 0,28,29
 871 277 871 277 921 252 c 1,30,-1
 859 199 l 1,31,32
 793 214 793 214 740 246 c 0,33,34
 634 309 634 309 635 413 c 0,35,36
 635 426 635 426 641 464 c 0,37,38
 663 567 663 567 775.5 624 c 128,-1,39
 888 681 888 681 1028 681 c 0,40,41
 1183 681 1183 681 1293.5 617 c 128,-1,42
 1404 553 1404 553 1404 439 c 0,43,44
 1404 258 1404 258 1271 155 c 0,45,46
 1122 39 1122 39 816 41 c 0,47,48
 727 41 727 41 623 50 c 0,49,50
 409 74 409 74 243 190 c 0,51,52
 41 333 41 333 41 538 c 0,53,54
 41 812 41 812 234 956 c 0,55,56
 412 1087 412 1087 713 1087 c 0,57,58
 790 1087 790 1087 836 1084 c 128,-1,59
 882 1081 882 1081 921 1075 c 1,60,-1
 1006 1407 l 1,61,-1
 0 1407 l 1,62,-1
 0 1497 l 1,63,-1
 1616 1497 l 1,64,-1
 1616 1407 l 1,4,-1
EndSplineSet
Ligature2: "'nukt' Nukta Forms in Devanagari lookup 0 subtable" l.ddha s.nukta
EndChar

StartChar: l.fa
Encoding: 397 2398 141
Width: 2045
GlyphClass: 2
Flags: W
LayerCount: 2
Fore
SplineSet
390 117 m 1,0,-1
 296 -150 l 1,1,-1
 -14 -150 l 1,2,-1
 81 117 l 1,3,-1
 390 117 l 1,0,-1
2046 1407 m 1,4,-1
 1152 1407 l 1,5,-1
 1090 1120 l 1,6,7
 1120 1138 1120 1138 1210.5 1158.5 c 128,-1,8
 1301 1179 1301 1179 1363 1179 c 0,9,10
 1572 1179 1572 1179 1721.5 1070.5 c 128,-1,11
 1871 962 1871 962 1871 784 c 0,12,13
 1868 760 1868 760 1868 743 c 0,14,15
 1847 532 1847 532 1681 416 c 0,16,17
 1541 321 1541 321 1354 321 c 2,18,-1
 1319 321 l 2,19,20
 1301 321 1301 321 1256 328.5 c 128,-1,21
 1211 336 1211 336 1152 356.5 c 128,-1,22
 1093 377 1093 377 1064 392 c 1,23,-1
 1105 479 l 1,24,25
 1140 457 1140 457 1191 442 c 128,-1,26
 1242 427 1242 427 1277 427 c 0,27,28
 1411 427 1411 427 1509 505 c 0,29,30
 1628 597 1628 597 1628 757 c 0,31,32
 1631 781 1631 781 1631 790 c 0,33,34
 1631 921 1631 921 1553 993 c 0,35,36
 1467 1073 1467 1073 1298 1075 c 0,37,38
 1227 1075 1227 1075 1157 1049.5 c 128,-1,39
 1087 1024 1087 1024 1064 1009 c 1,40,-1
 897 339 l 2,41,42
 891 327 891 327 879.5 283.5 c 128,-1,43
 868 240 868 240 868 193 c 256,44,45
 868 146 868 146 879.5 119.5 c 128,-1,46
 891 93 891 93 922 83.5 c 128,-1,47
 953 74 953 74 962 74 c 0,48,49
 1021 74 1021 74 1093 140 c 0,50,51
 1114 161 1114 161 1152 205 c 1,52,-1
 1195 161 l 1,53,54
 1186 134 1186 134 1114 74 c 0,55,56
 1011 -9 1011 -9 903 -9 c 0,57,58
 838 -9 838 -9 793 9 c 0,59,60
 716 39 716 39 686.5 104 c 128,-1,61
 657 169 657 169 657 240 c 0,62,63
 657 261 657 261 658.5 276.5 c 128,-1,64
 660 292 660 292 663 309 c 2,65,-1
 731 567 l 1,66,67
 710 555 710 555 603 518.5 c 128,-1,68
 496 482 496 482 407 482 c 0,69,70
 184 482 184 482 93 620 c 0,71,72
 33 710 33 710 35 844 c 0,73,74
 35 862 35 862 35 875 c 128,-1,75
 35 888 35 888 38 897 c 2,76,-1
 166 1407 l 1,77,-1
 0 1407 l 1,78,-1
 0 1497 l 1,79,-1
 2046 1497 l 1,80,-1
 2046 1407 l 1,4,-1
933 1407 m 1,81,-1
 383 1407 l 1,82,-1
 252 871 l 2,83,84
 249 847 249 847 249 834 c 0,85,86
 249 701 249 701 310 640 c 128,-1,87
 371 579 371 579 479 579 c 1,88,89
 550 573 550 573 636 604 c 128,-1,90
 722 635 722 635 763 675 c 1,91,-1
 933 1407 l 1,81,-1
EndSplineSet
Ligature2: "'nukt' Nukta Forms in Devanagari lookup 0 subtable" l.pha s.nukta
EndChar

StartChar: l.yya
Encoding: 398 2399 142
Width: 1740
GlyphClass: 2
Flags: W
LayerCount: 2
Fore
SplineSet
540 117 m 1,0,-1
 446 -150 l 1,1,-1
 136 -150 l 1,2,-1
 231 117 l 1,3,-1
 540 117 l 1,0,-1
1740 1497 m 1,4,-1
 1740 1407 l 1,5,-1
 1476 1407 l 1,6,-1
 1224 339 l 2,7,8
 1221 330 1221 330 1209.5 282 c 128,-1,9
 1198 234 1198 234 1198 196 c 0,10,11
 1198 146 1198 146 1209.5 119.5 c 128,-1,12
 1221 93 1221 93 1252 83.5 c 128,-1,13
 1283 74 1283 74 1292 74 c 0,14,15
 1351 74 1351 74 1423 140 c 0,16,17
 1444 161 1444 161 1482 205 c 1,18,-1
 1526 161 l 1,19,20
 1520 146 1520 146 1479 106 c 0,21,22
 1360 -9 1360 -9 1230 -9 c 0,23,24
 1167 -9 1167 -9 1123 9 c 0,25,26
 1046 39 1046 39 1016 104 c 128,-1,27
 986 169 986 169 986 240 c 0,28,29
 986 261 986 261 988 276.5 c 128,-1,30
 990 292 990 292 993 309 c 2,31,-1
 1263 1407 l 1,32,-1
 734 1407 l 1,33,34
 755 1389 755 1389 798 1286 c 128,-1,35
 841 1183 841 1183 841 1096 c 0,36,37
 841 935 841 935 707 862 c 0,38,39
 611 809 611 809 451 809 c 0,40,41
 392 809 392 809 345.5 815.5 c 128,-1,42
 299 822 299 822 289 828 c 1,43,44
 286 819 286 819 286 775 c 0,45,46
 286 734 286 734 297.5 680 c 128,-1,47
 309 626 309 626 337 564 c 128,-1,48
 365 502 365 502 441 450 c 128,-1,49
 517 398 517 398 629 398 c 0,50,51
 778 398 778 398 882 441.5 c 128,-1,52
 986 485 986 485 1052 564 c 1,53,-1
 993 398 l 1,54,55
 952 357 952 357 846 328 c 128,-1,56
 740 299 740 299 603 299 c 0,57,58
 298 299 298 299 172 451 c 0,59,60
 76 567 76 567 74 784 c 0,61,62
 74 850 74 850 80.5 896 c 128,-1,63
 87 942 87 942 90 971 c 1,64,65
 131 944 131 944 165 929.5 c 128,-1,66
 199 915 199 915 236.5 909 c 128,-1,67
 274 903 274 903 318 903 c 0,68,69
 439 903 439 903 526 956 c 0,70,71
 629 1018 629 1018 629 1132 c 0,72,73
 629 1210 629 1210 591 1289 c 0,74,75
 541 1395 541 1395 502 1407 c 1,76,-1
 0 1407 l 1,77,-1
 0 1497 l 1,78,-1
 1740 1497 l 1,4,-1
EndSplineSet
Ligature2: "'nukt' Nukta Forms in Devanagari lookup 0 subtable" l.ya s.nukta
EndChar

StartChar: l.vrr
Encoding: 399 2400 143
Width: 2263
GlyphClass: 2
Flags: W
LayerCount: 2
Fore
SplineSet
2263 -211 m 1,0,1
 2195 -246 2195 -246 2151 -261 c 0,2,3
 2020 -312 2020 -312 1927 -312 c 0,4,5
 1784 -312 1784 -312 1701.5 -263 c 128,-1,6
 1619 -214 1619 -214 1619 -125 c 1,7,8
 1607 9 1607 9 1722 109 c 0,9,10
 1812 187 1812 187 1856 187 c 1,11,12
 1815 169 1815 169 1669 217 c 0,13,14
 1494 277 1494 277 1494 392 c 0,15,16
 1494 550 1494 550 1649 632 c 0,17,18
 1771 695 1771 695 1833 678 c 1,19,20
 1789 678 1789 678 1713 707.5 c 128,-1,21
 1637 737 1637 737 1600 776.5 c 128,-1,22
 1563 816 1563 816 1538 874 c 1,23,-1
 1189 822 l 1,24,-1
 1072 339 l 2,25,26
 1066 327 1066 327 1054.5 282 c 128,-1,27
 1043 237 1043 237 1043 190 c 256,28,29
 1043 143 1043 143 1053.5 118 c 128,-1,30
 1064 93 1064 93 1093.5 83.5 c 128,-1,31
 1123 74 1123 74 1132 74 c 0,32,33
 1204 74 1204 74 1292 161 c 0,34,35
 1304 173 1304 173 1328 205 c 1,36,-1
 1370 161 l 1,37,38
 1360 134 1360 134 1289 74 c 0,39,40
 1186 -9 1186 -9 1078 -9 c 0,41,42
 1012 -9 1012 -9 968 9 c 0,43,44
 891 36 891 36 861 100 c 128,-1,45
 831 164 831 164 831 237 c 0,46,47
 831 261 831 261 832.5 276.5 c 128,-1,48
 834 292 834 292 838 309 c 2,49,-1
 903 558 l 1,50,51
 819 492 819 492 769 457 c 0,52,53
 614 348 614 348 508 309 c 0,54,55
 439 284 439 284 370.5 268 c 128,-1,56
 302 252 302 252 261 246 c 1,57,-1
 155 374 l 1,58,59
 264 386 264 386 334 401 c 128,-1,60
 404 416 404 416 507 454 c 128,-1,61
 610 492 610 492 728 564 c 0,62,63
 903 667 903 667 947 710 c 1,64,65
 860 841 860 841 687 945 c 128,-1,66
 514 1049 514 1049 330 1049 c 0,67,68
 261 1049 261 1049 158 1015 c 0,69,70
 123 1006 123 1006 65 977 c 1,71,-1
 93 1096 l 1,72,73
 152 1114 152 1114 184 1120 c 0,74,75
 280 1145 280 1145 330 1146 c 0,76,77
 541 1146 541 1146 720.5 1090 c 128,-1,78
 900 1034 900 1034 1006 950 c 1,79,-1
 1111 1407 l 1,80,-1
 0 1407 l 1,81,-1
 0 1497 l 1,82,-1
 2225 1497 l 1,83,-1
 2225 1407 l 1,84,-1
 1336 1407 l 1,85,-1
 1221 924 l 1,86,-1
 1515 968 l 1,87,88
 1512 977 1512 977 1512 988 c 128,-1,89
 1512 999 1512 999 1512 1002 c 0,90,91
 1512 1023 1512 1023 1515 1037 c 0,92,93
 1531 1078 1531 1078 1538 1096 c 0,94,95
 1556 1143 1556 1143 1612.5 1169 c 128,-1,96
 1669 1195 1669 1195 1737 1195 c 0,97,98
 1812 1195 1812 1195 1860 1163.5 c 128,-1,99
 1908 1132 1908 1132 1908 1067 c 0,100,101
 1908 993 1908 993 1833 959 c 0,102,103
 1809 950 1809 950 1759 936 c 1,104,105
 1765 898 1765 898 1768 882 c 0,106,107
 1783 822 1783 822 1809.5 792.5 c 128,-1,108
 1836 763 1836 763 1888 748.5 c 128,-1,109
 1940 734 1940 734 2002 734 c 0,110,111
 2052 734 2052 734 2094 740 c 128,-1,112
 2136 746 2136 746 2139 751 c 2,113,-1
 2107 666 l 1,114,115
 2088 669 2088 669 2042 663 c 128,-1,116
 1996 657 1996 657 1946 644 c 0,117,118
 1845 614 1845 614 1778.5 546.5 c 128,-1,119
 1712 479 1712 479 1712 407 c 0,120,121
 1712 307 1712 307 1862 258 c 0,122,123
 1877 252 1877 252 1918 252 c 0,124,125
 1984 252 1984 252 2050.5 277 c 128,-1,126
 2117 302 2117 302 2126 318 c 1,127,-1
 2126 187 l 1,128,129
 2092 187 2092 187 2009.5 160.5 c 128,-1,130
 1927 134 1927 134 1878.5 74.5 c 128,-1,131
 1830 15 1830 15 1830 -56 c 0,132,133
 1830 -175 1830 -175 1961 -211 c 0,134,135
 1985 -217 1985 -217 2002 -217 c 0,136,137
 2052 -217 2052 -217 2104 -190 c 0,138,139
 2175 -152 2175 -152 2198 -116 c 1,140,-1
 2263 -211 l 1,0,1
EndSplineSet
EndChar

StartChar: l.vll
Encoding: 400 2401 144
Width: 2246
GlyphClass: 2
Flags: W
LayerCount: 2
Fore
SplineSet
2119 -467 m 1,0,1
 2091 -530 2091 -530 2010 -611 c 0,2,3
 1929 -691 1929 -691 1851 -730 c 0,4,5
 1647 -832 1647 -832 1502 -812 c 0,6,7
 1362 -794 1362 -794 1296 -673 c 0,8,9
 1289 -660 1289 -660 1282 -639 c 0,10,11
 1229 -482 1229 -482 1330 -350 c 0,12,13
 1408 -248 1408 -248 1555 -175 c 0,14,15
 1647 -128 1647 -128 1707 -109 c 1,16,-1
 1685 -51 l 1,17,-1
 1776 -119 l 1,18,-1
 1725 -153 l 1,19,20
 1604 -246 1604 -246 1599 -248 c 0,21,22
 1506 -294 1506 -294 1469 -386 c 0,23,24
 1433 -477 1433 -477 1482 -576 c 0,25,26
 1529 -671 1529 -671 1637 -678 c 0,27,28
 1726 -684 1726 -684 1841 -627 c 0,29,30
 1954 -570 1954 -570 2001 -495 c 0,31,32
 2020 -466 2020 -466 2041 -402 c 1,33,-1
 2119 -467 l 1,0,1
0 1497 m 1,34,-1
 2246 1497 l 1,35,-1
 2246 1407 l 1,36,-1
 1718 1407 l 1,37,-1
 1623 1058 l 1,38,39
 1678 1032 1678 1032 1724 992 c 0,40,41
 1732 986 1732 986 1739 980 c 0,42,43
 1797 927 1797 927 1835 859 c 0,44,45
 1880 778 1880 778 1890 688 c 0,46,47
 1900 596 1900 596 1873 505 c 128,-1,48
 1846 414 1846 414 1788 339 c 0,49,50
 1744 282 1744 282 1687 237 c 0,51,52
 1604 173 1604 173 1498 136 c 0,53,54
 1473 128 1473 128 1386 103 c 0,55,56
 1321 84 1321 84 1290 69 c 0,57,58
 1240 46 1240 46 1214 17 c 0,59,60
 1179 -21 1179 -21 1174 -61 c 0,61,62
 1169 -95 1169 -95 1184 -131 c 0,63,64
 1191 -145 1191 -145 1200 -158 c 0,65,66
 1231 -201 1231 -201 1288 -220 c 0,67,68
 1339 -237 1339 -237 1400 -228 c 0,69,70
 1453 -220 1453 -220 1509 -189 c 0,71,72
 1572 -155 1572 -155 1620 -100 c 0,73,74
 1655 -62 1655 -62 1678 -17 c 2,75,-1
 1694 19 l 1,76,-1
 1825 -43 l 1,77,78
 1816 -60 1816 -60 1798 -88 c 0,79,80
 1762 -144 1762 -144 1713 -191 c 0,81,82
 1645 -255 1645 -255 1562 -294 c 0,83,84
 1490 -328 1490 -328 1414 -337 c 0,85,86
 1331 -347 1331 -347 1253 -321 c 0,87,88
 1170 -293 1170 -293 1114 -224 c 0,89,90
 1097 -204 1097 -204 1085 -180 c 0,91,92
 1054 -122 1054 -122 1052 -55 c 0,93,94
 1053 29 1053 29 1098 100 c 0,95,96
 1138 164 1138 164 1200 211 c 0,97,98
 1249 248 1249 248 1313 282 c 0,99,100
 1328 289 1328 289 1362.5 306.5 c 128,-1,101
 1397 324 1397 324 1413 333 c 0,102,103
 1488 376 1488 376 1545 420 c 0,104,105
 1588 452 1588 452 1617 483 c 0,106,107
 1662 529 1662 529 1689 577 c 0,108,109
 1720 634 1720 634 1727 686 c 0,110,111
 1736 745 1736 745 1716 805 c 0,112,113
 1698 860 1698 860 1661 901 c 0,114,115
 1656 906 1656 906 1651 911 c 0,116,117
 1607 955 1607 955 1542 976 c 0,118,119
 1479 997 1479 997 1416 990 c 0,120,121
 1333 982 1333 982 1266 933 c 0,122,123
 1219 899 1219 899 1188 850 c 0,124,125
 1184 843 1184 843 1179 836 c 1,126,127
 1177 799 1177 799 1162 760 c 1,128,-1
 1162 760 l 1,129,130
 1138 682 1138 682 1066.5 639 c 128,-1,131
 995 596 995 596 917 595 c 0,132,133
 843 595 843 595 791.5 627 c 128,-1,134
 740 659 740 659 739 718 c 0,135,136
 738 824 738 824 865 915 c 0,137,138
 919 954 919 954 953 971.5 c 128,-1,139
 987 989 987 989 1001 984 c 1,140,-1
 1002 984 l 1,141,-1
 1001 985 l 1,142,143
 980 1012 980 1012 961 1044 c 1,144,-1
 961 1044 l 1,145,146
 905 1097 905 1097 801 1096 c 0,147,148
 608 1095 608 1095 464.5 924 c 128,-1,149
 321 753 321 753 323 528 c 0,150,151
 324 391 324 391 390 285 c 0,152,153
 472 158 472 158 612 138 c 0,154,155
 628 135 628 135 660 135 c 0,156,157
 725 135 725 135 793 163 c 0,158,159
 882 202 882 202 911 240 c 1,160,-1
 942 141 l 1,161,162
 895 116 895 116 862 104 c 0,163,164
 756 65 756 65 639 64 c 0,165,166
 583 64 583 64 517 72 c 0,167,168
 330 95 330 95 213.5 231.5 c 128,-1,169
 97 368 97 368 96 558 c 0,170,171
 94 844 94 844 314 1017 c 0,172,173
 518 1176 518 1176 814 1179 c 0,174,175
 819 1179 819 1179 824 1179 c 0,176,177
 975 1178 975 1178 1079 1106 c 1,178,179
 1121 1065 1121 1065 1144 1043 c 0,180,181
 1156 1032 1156 1032 1163 1025 c 0,182,183
 1167 1022 1167 1022 1170 1020 c 0,184,185
 1183 1029 1183 1029 1197 1038 c 0,186,187
 1295 1096 1295 1096 1408 1102 c 0,188,189
 1411 1102 1411 1102 1414 1102 c 2,190,-1
 1502 1407 l 1,191,-1
 0 1407 l 1,192,-1
 0 1497 l 1,34,-1
EndSplineSet
EndChar

